<svg width="24.000000" height="18.293457" viewBox="0 0 24 18.2935" fill="none" xmlns="http://www.w3.org/2000/svg" xmlns:xlink="http://www.w3.org/1999/xlink">
	<desc>
			Created with Pixso.
	</desc>
	<defs/>
	<path id="Vector" d="M20.3174 1.51636C18.7871 0.814453 17.1475 0.297363 15.4316 0.0012207C15.4004 -0.00439453 15.3691 0.00976562 15.3535 0.0383301C15.1426 0.413574 14.9092 0.903076 14.7451 1.28784C12.9004 1.01172 11.0654 1.01172 9.25879 1.28784C9.09473 0.894531 8.85254 0.413574 8.64062 0.0383301C8.62402 0.0107422 8.59375 -0.00341797 8.5625 0.0012207C6.84766 0.296387 5.20801 0.813477 3.67676 1.51636C3.66406 1.52222 3.65234 1.53174 3.64453 1.54395C0.533203 6.19238 -0.319336 10.7266 0.0996094 15.2043C0.100586 15.2263 0.113281 15.2473 0.130859 15.2605C2.18359 16.7681 4.17188 17.6833 6.12305 18.29C6.1543 18.2996 6.1875 18.2881 6.20703 18.2625C6.66895 17.6318 7.08105 16.9673 7.43359 16.2681C7.4541 16.2273 7.43457 16.1787 7.3916 16.1624C6.73926 15.9148 6.11719 15.613 5.51953 15.27C5.47266 15.2424 5.46875 15.1748 5.51172 15.1426C5.6377 15.0481 5.76367 14.9502 5.88379 14.8511C5.90527 14.833 5.93555 14.8291 5.96191 14.8406C9.88965 16.6338 14.1416 16.6338 18.0234 14.8406C18.0488 14.8281 18.0791 14.832 18.1016 14.8501C18.2217 14.9492 18.3477 15.0481 18.4746 15.1426C18.5176 15.1748 18.5146 15.2424 18.4678 15.27C17.8701 15.6196 17.248 15.9148 16.5947 16.1614C16.5518 16.1777 16.5332 16.2273 16.5537 16.2681C16.9141 16.9663 17.3262 17.6309 17.7793 18.2615C17.7979 18.2881 17.832 18.2996 17.8633 18.29C19.8242 17.6833 21.8125 16.7681 23.8652 15.2605C23.8838 15.2473 23.8945 15.2273 23.8965 15.2053C24.3975 10.0283 23.0586 5.53149 20.3486 1.54492C20.3418 1.53174 20.3301 1.52222 20.3174 1.51636ZM8.02051 12.4778C6.83789 12.4778 5.86328 11.3921 5.86328 10.0588C5.86328 8.72559 6.81836 7.63989 8.02051 7.63989C9.23047 7.63989 10.1963 8.73511 10.1768 10.0588C10.1768 11.3921 9.22168 12.4778 8.02051 12.4778ZM15.9951 12.4778C14.8125 12.4778 13.8379 11.3921 13.8379 10.0588C13.8379 8.72559 14.793 7.63989 15.9951 7.63989C17.2061 7.63989 18.1709 8.73511 18.1514 10.0588C18.1514 11.3921 17.2061 12.4778 15.9951 12.4778Z" fill-rule="nonzero" fill="#C8C7D8"/>
</svg>
