<svg width="24.000000" height="24.000000" viewBox="0 0 24 24" fill="none" xmlns="http://www.w3.org/2000/svg" xmlns:xlink="http://www.w3.org/1999/xlink">
	<desc>
			Created with Pixso.
	</desc>
	<defs>
		<clipPath id="clip3_1915">
			<rect id="Twitter - Negative" width="24.000000" height="24.000000" fill="white"/>
		</clipPath>
	</defs>
	<g clip-path="url(#clip3_1915)">
		<path id="Vector" d="M7.5498 21.7507C16.6045 21.7507 21.5586 14.2476 21.5586 7.74268C21.5586 7.53174 21.5537 7.31592 21.5439 7.10498C22.5078 6.4082 23.3398 5.54492 24 4.55615C23.1025 4.95532 22.1494 5.21606 21.1738 5.32959C22.2012 4.71362 22.9707 3.74609 23.3389 2.60645C22.3721 3.1792 21.3154 3.58325 20.2139 3.80127C19.4707 3.01221 18.4893 2.48975 17.4199 2.3147C16.3506 2.13965 15.2529 2.32178 14.2979 2.83276C13.3428 3.34399 12.582 4.15552 12.1338 5.14209C11.6855 6.12866 11.5752 7.23535 11.8193 8.29102C9.8623 8.19287 7.94824 7.68433 6.2002 6.79883C4.45215 5.91333 2.91016 4.67017 1.67285 3.15015C1.04395 4.23389 0.852539 5.51636 1.13477 6.73682C1.41797 7.95728 2.15527 9.02417 3.19629 9.7207C2.41504 9.6958 1.65039 9.48535 0.96582 9.10669L0.96582 9.16748C0.964844 10.3049 1.3584 11.4072 2.07812 12.2876C2.79883 13.1677 3.80176 13.7712 4.91602 13.9956C4.19238 14.1938 3.43164 14.2227 2.69531 14.0801C3.00977 15.0581 3.62109 15.9136 4.44531 16.5271C5.26953 17.1406 6.26465 17.4814 7.29199 17.502C5.54883 18.8718 3.39453 19.6147 1.17676 19.6113C0.783203 19.6108 0.390625 19.5867 0 19.5391C2.25293 20.9844 4.87305 21.7522 7.5498 21.7507Z" fill-rule="nonzero" fill="#C8C7D8"/>
	</g>
</svg>
