<svg width="230.000000" height="64.000000" viewBox="0 0 230 64" fill="none" xmlns="http://www.w3.org/2000/svg" xmlns:xlink="http://www.w3.org/1999/xlink">
	<desc>
			Created with Pixso.
	</desc>
	<defs/>
	<path id="Oval" d="M95.8418 0.559631C95.5127 0.882568 95.2451 0.916992 94.9297 0.676331C94.3115 0.206238 91.5742 1.44482 91.1367 2.39233C90.8867 2.93231 90.8584 2.79529 91.0225 1.84906L91.2432 0.583557L89.6758 0.835388C87.3857 1.20386 86.7207 1.24353 86.3271 1.03534C85.8184 0.766846 83.5352 0.990112 83.0498 1.35565C82.7793 1.55957 82.584 1.52124 82.4805 1.24323C82.3535 0.903259 82.0908 0.898315 81.1465 1.21765C80.3447 1.48877 79.7607 1.51239 79.3115 1.29205C78.8086 1.04517 78.4795 1.12653 77.9258 1.63501C77.3213 2.18939 76.9434 2.26184 75.6826 2.06647C74.8496 1.93695 74.0059 1.88025 73.8096 1.94025C73.6133 1.99988 72.5674 2.0943 71.4854 2.14972C68.3604 2.31006 68.2686 2.32251 68.2686 2.58643C68.2686 2.72443 67.7617 2.76874 67.1416 2.68542C66.1338 2.54968 66.0352 2.60809 66.2139 3.23395C66.3477 3.7041 66.248 3.9342 65.9111 3.9342C65.6348 3.9342 65.4082 3.71295 65.4082 3.44244C65.4082 3.11462 65.0508 2.95068 64.3359 2.95068C63.7158 2.95068 63.2637 3.12378 63.2637 3.36047C63.2627 3.61359 62.709 3.78705 61.8145 3.81421C60.167 3.86407 59.6455 4.15753 60.4131 4.60272C60.7695 4.80927 60.7949 4.90924 60.4922 4.9129C60.2471 4.91553 60.0459 5.1391 60.0459 5.40955C60.0459 5.68005 59.8047 5.90137 59.5098 5.90137C59.2148 5.90137 58.9736 5.68005 58.9736 5.40955C58.9736 5.1391 59.1338 4.91779 59.3311 4.91779C59.5273 4.91779 59.6885 4.77026 59.6885 4.58997C59.6885 4.09552 58.7197 4.19653 58.5029 4.7132C58.3887 4.98798 57.9805 5.10596 57.4609 5.01483C56.6719 4.87683 56.6182 4.95288 56.7539 6.01678C56.8936 7.11145 57.7783 7.87799 58.2295 7.29474C58.3438 7.14752 58.8799 7.00098 59.4199 6.96948C59.9609 6.93805 60.6045 6.89539 60.8496 6.87476C61.0957 6.85406 61.6592 6.93903 62.1016 7.06323C62.7021 7.23212 62.9053 7.15704 62.9053 6.76721C62.9053 6.34265 63.0762 6.30493 63.8223 6.56525C65.2031 7.0462 66.4805 6.96362 66.4805 6.39313C66.4805 6.08722 66.8184 5.90137 67.374 5.90137C67.8965 5.90137 68.2686 6.08984 68.2686 6.35443C68.2686 6.9754 71.0967 7.01471 71.3545 6.3974C71.457 6.15149 71.9717 5.95807 72.4971 5.96722C74.3164 5.99939 74.7031 5.89905 74.7031 5.39514C74.7031 5.11682 74.9043 4.9129 75.1504 4.94238C75.3965 4.97156 75.9648 4.97809 76.4141 4.95648C77.1133 4.92334 77.1768 4.82471 76.8525 4.26965C76.5439 3.74048 76.5742 3.65656 77.0186 3.81262C77.3184 3.91815 77.5635 4.20996 77.5635 4.46112C77.5635 4.71222 77.7871 4.91779 78.0615 4.91779C78.335 4.91779 78.6504 5.13678 78.7627 5.4043C79.0615 6.11902 83.373 5.9292 84.3555 5.15808C85.1113 4.565 85.9707 4.37781 85.6328 4.88043C85.5244 5.0401 85.8408 5.24139 86.335 5.32825C86.8291 5.41479 87.3203 5.35547 87.4277 5.19647C87.5352 5.03711 87.7725 4.99188 87.9551 5.09583C88.1387 5.1994 88.2881 5.12793 88.2881 4.93713C88.2881 4.74634 88.6201 4.58997 89.0244 4.58997C89.4287 4.58997 89.6611 4.73749 89.54 4.91779C89.4033 5.11945 89.9111 5.22662 90.8594 5.19647C91.8867 5.1637 92.0791 5.10236 91.4365 5.01251C90.749 4.9165 90.5332 4.73419 90.6816 4.37848C90.7959 4.10406 90.9883 4.00244 91.1084 4.15259C91.4473 4.57587 92.8691 5.24567 93.4297 5.24567C93.707 5.24567 94.6738 4.60406 95.5801 3.81946C96.707 2.84314 97.2256 2.5625 97.2256 2.92938C97.2256 3.22375 96.7402 3.72803 96.1475 4.04932C94.9326 4.70734 95.0352 5.24567 96.374 5.24567C96.9463 5.24567 97.1787 5.11255 97.0195 4.87646C96.8408 4.61188 96.9512 4.59979 97.4062 4.83356C98.2109 5.24664 99.3711 4.98334 99.3711 4.38763C99.3711 4.13849 99.5322 3.9342 99.7285 3.9342C99.9248 3.9342 100.086 4.13092 100.086 4.37128C100.086 5.05713 104.297 4.97876 104.499 4.28931C104.624 3.86145 104.658 3.87097 104.692 4.34406C104.74 5.005 105.466 5.09875 106.092 4.52435C106.417 4.22601 106.521 4.22437 106.521 4.51746C106.521 4.94629 112.8 4.92761 113.552 4.49683C113.78 4.36536 114.05 4.44336 114.149 4.66992C114.289 4.98438 114.417 4.96924 114.692 4.60565C114.892 4.34375 114.976 4.01355 114.88 3.87164C114.785 3.72998 114.956 3.70178 115.262 3.80902C115.566 3.9165 115.816 4.17816 115.816 4.39093C115.816 4.81354 116.499 4.90991 119.212 4.87061C120.195 4.85614 122.287 4.87811 123.86 4.91913C128.871 5.04993 129.18 5.03448 129.32 4.64764C129.416 4.3844 129.622 4.41779 129.992 4.75684C130.665 5.37384 132.878 5.3866 134.455 4.78241C135.497 4.38342 135.76 4.38342 136.354 4.78241C137.199 5.34894 137.937 5.40106 137.338 4.85223C136.754 4.31683 136.799 3.9342 137.445 3.9342C137.74 3.9342 137.981 4.15552 137.981 4.42603C137.981 4.69647 138.263 4.92993 138.606 4.94434C138.951 4.95911 139.715 5.00598 140.305 5.04858C140.895 5.09125 141.496 4.96863 141.641 4.77618C141.815 4.54205 141.904 4.56177 141.908 4.83582C141.911 5.0614 142.275 5.24335 142.718 5.24072C143.277 5.23712 143.382 5.1535 143.059 4.96564C142.686 4.74896 142.698 4.61713 143.123 4.29388C143.554 3.96637 143.723 4.01489 144.039 4.55652C144.271 4.95416 144.643 5.14563 144.963 5.0329C145.257 4.92926 145.697 4.9942 145.94 5.17712C146.66 5.71838 147.839 5.76953 148.473 5.28729C148.856 4.99518 149.063 4.96631 149.063 5.20563C149.063 5.59613 150.219 5.71613 150.602 5.3653C151.116 4.89355 153.68 4.92438 153.974 5.40594C154.285 5.91577 155.816 6.05676 158.104 5.78625C158.848 5.69806 159.935 5.75153 160.517 5.9046C161.1 6.05804 161.576 6.06464 161.576 5.91937C161.576 5.77417 161.979 5.65546 162.471 5.65546C162.962 5.65546 163.364 5.841 163.364 6.06787C163.364 6.56067 164.71 6.95081 164.873 6.50494C164.935 6.33411 165.586 6.07019 166.32 5.9184C167.518 5.6709 167.654 5.71021 167.654 6.30035C167.654 6.88226 167.808 6.93146 168.995 6.72821C169.732 6.60199 170.211 6.61377 170.059 6.75439C169.657 7.12488 172.037 7.80554 172.538 7.46387C172.78 7.29834 173.049 7.32355 173.185 7.52454C173.312 7.71375 174.023 7.86847 174.766 7.86847C175.508 7.86847 176.23 7.97467 176.372 8.10449C176.772 8.47174 180.292 8.47925 180.792 8.11438C181.113 7.87994 181.239 7.94257 181.239 8.3363C181.239 8.77466 181.579 8.88025 182.938 8.86285C183.871 8.85071 185.176 8.93628 185.837 9.05298C186.614 9.19006 187.132 9.12543 187.304 8.87036C187.509 8.56775 187.687 8.57794 188.069 8.91364C188.794 9.55005 190.423 10.1562 190.707 9.89557C191.151 9.48773 192.655 9.6333 192.852 10.1035C193.004 10.467 193.154 10.4818 193.562 10.1723C194.077 9.77985 194.978 9.99884 194.678 10.4434C194.539 10.6497 195.548 10.6952 196.88 10.5424C197.126 10.5142 197.34 10.233 197.355 9.91754C197.378 9.45886 197.425 9.4425 197.592 9.83557C197.706 10.1061 198.04 10.4893 198.333 10.6873C198.626 10.8854 198.761 11.2037 198.632 11.3945C198.487 11.6093 198.658 11.6794 199.08 11.5781C199.455 11.4883 200.347 11.6693 201.062 11.98C201.776 12.2912 203.159 12.546 204.134 12.546C205.109 12.546 205.907 12.6738 205.907 12.8299C205.907 12.9863 206.148 13.1141 206.443 13.1141C206.738 13.1141 206.979 12.9509 206.979 12.7512C206.979 12.5515 207.221 12.4731 207.516 12.5771C207.811 12.6807 208.052 12.6227 208.052 12.4482C208.052 11.9266 209.03 12.0889 209.265 12.6492C209.586 13.4157 209.562 13.442 208.562 13.442C207.689 13.442 207.674 13.4702 208.266 14.0128C208.709 14.4193 208.931 14.4675 209.035 14.1799C209.135 13.9055 209.558 14.0396 210.357 14.5989C211.101 15.1193 211.761 15.3412 212.152 15.2035C212.519 15.0746 212.897 15.1724 213.081 15.4432C213.251 15.6949 213.678 15.9012 214.028 15.9012C214.379 15.9015 214.686 16.0861 214.71 16.311C214.735 16.5363 214.775 16.8444 214.8 16.9955C214.925 17.7644 218.062 18.3755 218.062 17.6309C218.062 17.4106 218.312 17.5585 218.619 17.9595C218.926 18.3607 219.088 18.8194 218.98 18.9788C218.72 19.3656 219.443 19.8587 220.664 20.1262C221.256 20.256 222.051 20.8658 222.63 21.6343C223.165 22.3442 223.802 22.9304 224.043 22.9373C224.285 22.9441 224.593 23.3503 224.728 23.8405C224.861 24.3303 225.268 25.0227 225.63 25.3794C226.077 25.8197 226.204 26.2443 226.026 26.702C225.882 27.0724 225.8 27.957 225.842 28.6671C225.886 29.3776 225.681 30.2943 225.388 30.7047C225.095 31.1152 224.854 31.6771 224.854 31.9542C224.854 32.2309 224.693 32.4204 224.496 32.3755C224.299 32.3302 223.935 32.6624 223.686 33.1132C223.437 33.5639 222.874 34.0783 222.435 34.2563C221.996 34.4344 221.637 34.8327 221.637 35.1415C221.637 35.4507 221.409 35.8212 221.132 35.9655C220.854 36.1097 220.572 36.6703 220.506 37.2113C220.419 37.9277 220.19 38.204 219.666 38.2283C218.721 38.2722 217.031 39.0961 215.925 40.0521C215.438 40.4731 214.998 40.7849 214.946 40.7446C214.682 40.5393 211.36 41.9081 210.649 42.5156C210.4 42.7281 210.197 43.0772 210.197 43.2913C210.197 43.5143 209.902 43.6103 209.51 43.5159C209.132 43.4254 208.323 43.6293 207.713 43.9697C207.104 44.3096 206.373 44.588 206.09 44.588C205.806 44.588 204.979 45.0673 204.252 45.6528C203.524 46.2387 202.634 46.6718 202.272 46.6157C201.811 46.5439 201.617 46.7158 201.617 47.1964C201.617 47.7721 201.468 47.8445 200.664 47.6596C199.876 47.4783 199.751 47.5338 199.938 47.9813C200.089 48.3429 199.978 48.5222 199.602 48.5222C199.247 48.5222 199.114 48.3393 199.244 48.0305C199.384 47.696 199.225 47.5386 198.746 47.5386C198.358 47.5386 198.042 47.6616 198.042 47.8118C198.042 47.9622 197.841 48.1101 197.595 48.1409C193.666 48.6324 191.686 49.3261 191.538 50.2631C191.439 50.8995 191.376 50.9188 190.907 50.4559C190.376 49.9316 190.357 49.9333 187.256 50.8011C186.535 51.0031 185.342 51.2391 184.605 51.3254C183.868 51.4119 183.081 51.6237 182.854 51.7958C182.628 51.968 181.488 52.2056 180.322 52.324C179.145 52.4434 177.448 52.9066 176.512 53.3649C175.155 54.0278 174.72 54.1121 174.3 53.7924C173.918 53.5016 173.585 53.4888 173.063 53.7452C172.67 53.938 171.8 54.0957 171.129 54.0957C170.458 54.0957 169.41 54.3239 168.8 54.6029C168.118 54.9153 166.292 55.1721 164.049 55.2711C162.045 55.3596 160.128 55.5684 159.789 55.7353C159.449 55.9019 158.063 56.0622 156.709 56.0917C155.355 56.1212 153.601 56.3425 152.809 56.5838C152.018 56.8248 150.329 57.0487 149.056 57.0815C147.435 57.1234 146.488 57.3208 145.9 57.7405C145.171 58.2607 144.993 58.2778 144.548 57.8693C144.174 57.527 143.798 57.4814 143.165 57.7021C142.687 57.869 141.687 57.9939 140.942 57.9798C140.198 57.9657 139.429 57.986 139.232 58.025C139.036 58.0644 138.368 58.0712 137.749 58.0408C137.13 58.0103 136.518 58.1431 136.388 58.3355C136.258 58.528 135.778 58.6857 135.322 58.6857C134.867 58.6857 134.297 58.9027 134.057 59.1683C133.697 59.5663 133.538 59.5754 133.151 59.2214C132.571 58.6886 128.476 58.8214 127.719 59.3974C127.313 59.7059 127.139 59.6971 126.908 59.3555C126.688 59.0299 125.612 58.9341 122.643 58.9761C118.3 59.0374 116.895 59.3443 116.878 60.2347C116.867 60.7737 116.838 60.7714 116.479 60.2036C116.164 59.7076 116.03 59.6764 115.774 60.0397C115.526 60.3922 115.415 60.3449 115.258 59.8193C115.121 59.365 114.72 59.1263 114.007 59.0765C113.429 59.0361 112.956 59.1335 112.956 59.2932C112.956 59.4528 112.474 59.5315 111.884 59.4686C111.294 59.4056 110.812 59.4879 110.812 59.6515C110.812 60.0767 109.716 60.2387 108.637 59.9734C107.941 59.8026 107.609 59.8994 107.293 60.3636C107.062 60.7029 106.601 60.9806 106.268 60.9806C105.798 60.9806 105.759 60.8931 106.092 60.5872C107.002 59.7531 106.507 59.5056 104.013 59.5469C102.633 59.5695 101.42 59.4647 101.318 59.3132C101.047 58.9099 99.4297 59.6722 99.25 60.2885C99.126 60.7141 99.0879 60.6996 99.0547 60.2141C99.0176 59.6761 98.7168 59.6207 96.2432 59.6997C94.7188 59.7482 93.1162 59.9033 92.6807 60.0439C92.2139 60.1948 91.7949 60.161 91.6611 59.9623C91.5361 59.7764 91.1885 59.7108 90.8877 59.8164C90.5879 59.922 90.1621 59.8797 89.9414 59.7223C88.7812 58.8961 87.248 59.1873 86.7656 60.3249C86.6006 60.7157 86.5518 60.6977 86.5293 60.2377C86.5088 59.8276 86.2148 59.6627 85.5176 59.6725C84.9775 59.6797 84.1377 59.6453 83.6523 59.5955C82.6787 59.4961 82.1436 60.5374 82.9365 60.9865C83.1777 61.1232 83.2646 61.3993 83.1289 61.5996C82.7744 62.1258 82.2109 62.0478 82.2109 61.4724C82.2109 61.2019 82.0439 60.9806 81.8408 60.9806C81.5957 60.9806 81.6064 60.7475 81.873 60.2911C82.2607 59.6269 82.209 59.6063 80.4551 59.7174C79.0898 59.8043 78.6357 59.7207 78.6357 59.3833C78.6357 59.0204 78.5322 59.0122 78.0996 59.3414C77.7744 59.5889 77.5635 59.6151 77.5635 59.4079C77.5635 59.2079 76.6367 59.0646 75.3291 59.0624C74.1006 59.0601 71.2988 59.0089 69.1035 58.9489C66.9082 58.8892 65.1875 58.9512 65.2783 59.0869C65.5 59.4155 64.3652 59.0214 63.3174 58.4053C62.709 58.048 62.3154 58.0054 61.8877 58.2502C61.5586 58.4388 60.9805 58.4749 60.582 58.3322C59.5283 57.9548 56.8486 57.9827 55.2598 58.3876C54.2119 58.6542 53.8037 58.6447 53.6045 58.3489C53.4541 58.1254 52.4355 57.9365 51.2402 57.9109C49.502 57.8739 49.0039 57.9922 48.3379 58.6037C47.3369 59.5214 46.6475 59.5826 47.248 58.7004C47.7549 57.9572 47.3652 57.3969 46.7402 57.97C46.124 58.5349 45.5781 58.4457 46.1035 57.866C46.3477 57.5955 46.4883 57.3667 46.415 57.3575C46.3418 57.3487 45.2646 57.2592 44.0215 57.1588C41.9951 56.9952 41.667 57.0559 40.8428 57.749L39.9248 58.5217L40.1602 57.6201C40.418 56.6379 40.4414 56.6494 37.9697 56.5533C37.1338 56.5205 36.4502 56.6287 36.4502 56.7936C36.4502 56.9585 36.1973 56.8615 35.8887 56.5779C35.5801 56.2946 35.043 56.0628 34.6973 56.0628C34.3506 56.0628 33.9648 55.9684 33.8389 55.8533C33.7129 55.7379 33.002 55.6061 32.2598 55.5605C28.8301 55.3488 26.6416 55.0403 26.2031 54.7068C25.8486 54.4373 25.5762 54.4567 25.1504 54.7809C24.6641 55.1514 24.5049 55.1298 24.1143 54.6396C23.7676 54.2049 23.6055 54.1672 23.4648 54.4882C23.3174 54.8232 23.21 54.8281 22.9648 54.5114C22.793 54.2895 22.2783 54.1737 21.8223 54.2544C21.3643 54.3354 20.0908 54.1115 18.9912 53.757C17.8926 53.4023 16.7051 53.1961 16.3535 53.2983C15.9619 53.4121 15.7129 53.3171 15.71 53.0521C15.7061 52.7341 15.6113 52.7499 15.3496 53.1122C15.0459 53.5331 14.9053 53.4997 14.3721 52.881C14.0293 52.4836 12.8242 51.8362 11.6934 51.4421C10.5625 51.0483 9.6377 50.6287 9.6377 50.5096C9.6377 50.3906 9.07422 50.3533 8.38672 50.4271C7.23633 50.5503 7.13477 50.4913 7.13477 49.6973C7.13477 48.9953 6.92969 48.796 6.03516 48.632C5.25977 48.4897 4.66309 48.0341 4.00879 47.0829C3.49805 46.3417 3.11914 45.6853 3.16504 45.6237C3.21191 45.562 3.01758 45.3407 2.73242 45.1319C2.44824 44.923 2.11426 43.9054 1.99121 42.871C1.79492 41.2167 1.85352 40.9406 2.48535 40.579C2.87988 40.3531 3.20312 39.8348 3.20312 39.4272C3.20312 39.0201 3.35645 38.6866 3.54297 38.6866C3.73047 38.6866 4.15137 38.1703 4.47754 37.5391C4.80469 36.908 5.29492 36.3917 5.56738 36.3917C5.83984 36.3917 6.0625 36.2057 6.0625 35.9789C6.0625 35.7517 6.38477 35.3815 6.77734 35.1563C7.1709 34.9311 7.49316 34.4701 7.49316 34.1321C7.49316 33.7813 7.81836 33.4393 8.25195 33.3354C8.8623 33.1888 8.9668 32.9892 8.78125 32.3135C8.55664 31.4939 9.01758 31.1464 9.45898 31.8017C9.58008 31.9821 9.81445 32.1296 9.97852 32.1296C10.4229 32.1296 10.751 31.1431 10.4521 30.7067C10.3096 30.4975 10.2383 30.0684 10.2949 29.7526C10.3516 29.4373 10.2168 29.1789 9.99707 29.1789C9.77637 29.1789 9.69238 29.3221 9.81055 29.4973C9.92773 29.6723 9.62207 29.908 9.12891 30.0215C8.63672 30.1349 8.13672 30.508 8.01758 30.8506C7.89941 31.1935 7.65234 31.4739 7.46875 31.4739C7.28516 31.4739 7.13477 31.6535 7.13477 31.8732C7.13477 32.0928 6.70703 32.6099 6.18457 33.022C5.66113 33.4338 5.05762 34.1026 4.8418 34.5075C4.62695 34.9127 3.93164 35.4655 3.29785 35.736C2.66309 36.0068 2.14258 36.4808 2.1377 36.7913C2.13281 37.1562 1.94141 37.288 1.59375 37.166C0.97168 36.947 0.917969 37.3237 1.40332 38.4955C1.69043 39.1863 1.62695 39.3909 1.03613 39.6807C0.643555 39.8735 0.420898 40.1774 0.541992 40.3567C0.663086 40.5357 0.556641 40.9091 0.305664 41.1865C-0.0341797 41.5616 -0.0498047 41.838 0.242188 42.2671C0.482422 42.6199 0.510742 43.0228 0.31543 43.3057C-0.119141 43.9355 -0.0996094 45.5715 0.342773 45.5715C0.539062 45.5715 0.712891 45.9774 0.728516 46.4731C0.744141 46.9689 0.837891 47.1905 0.936523 46.9649C1.1709 46.4335 1.70508 46.4335 1.6543 46.9649C1.58789 47.6567 2.94922 49.8336 3.44727 49.8336C3.70605 49.8336 3.91797 50.0411 3.91797 50.2946C3.91797 50.5841 4.16699 50.6959 4.58691 50.5952C5.0459 50.4854 5.50391 50.7532 6.04199 51.4457C6.47266 52.0017 7.1377 52.4564 7.5166 52.4564C7.89746 52.4564 8.20801 52.6777 8.20801 52.9482C8.20801 53.2187 8.44922 53.44 8.74414 53.44C9.03906 53.44 9.28027 53.6 9.28027 53.795C9.28027 53.9905 9.48145 54.0826 9.72754 54C9.97266 53.9174 10.1357 53.6891 10.0889 53.4928C10.042 53.2964 10.2432 53.22 10.5361 53.3229C10.8281 53.4259 11.0674 53.699 11.0674 53.9295C11.0674 54.3386 13.1104 55.4071 13.8926 55.4071C14.1084 55.4071 14.2852 55.5323 14.2852 55.6851C14.2852 55.838 14.7842 55.976 15.3936 55.992C16.0039 56.0078 16.7891 56.2589 17.1396 56.5497C17.5664 56.9044 18.084 57.0074 18.7119 56.8628C19.2607 56.7366 19.6475 56.7851 19.6475 56.9802C19.6475 57.1631 19.9697 57.2355 20.3633 57.1415C21.1699 56.9477 21.3008 56.5277 20.6309 56.2798C20.3857 56.189 20.5459 56.1028 20.9883 56.0887C21.4531 56.0736 21.793 56.2566 21.793 56.5225C21.793 57.07 23.7842 57.8506 24.9209 57.749C25.3633 57.7097 25.7256 57.8146 25.7256 57.9824C25.7256 58.4896 26.8555 58.7224 27.3799 58.3234C27.7598 58.0339 27.8701 58.0637 27.8701 58.4555C27.8701 58.8378 28.416 59.0063 30.1045 59.1453C31.334 59.2466 32.7979 59.3135 33.3584 59.2945C34.2764 59.263 34.3574 59.1689 34.1777 58.3463C34.0381 57.704 34.1416 57.3762 34.5293 57.2398C35.3643 56.946 35.4746 56.9992 35.2324 57.5778C35.0615 57.9863 35.1768 58.069 35.7305 57.9362C36.6484 57.7162 36.6553 58.0775 35.7451 58.6791C35.0957 59.1086 35.085 59.1912 35.6113 59.7246C36.0146 60.1331 36.3594 60.217 36.7832 60.0095C37.123 59.8423 37.5996 59.8377 37.8828 59.9984C38.1572 60.1541 38.4971 60.2167 38.6377 60.1371C38.7783 60.0574 39.3486 60.1528 39.9062 60.3492C40.4639 60.5455 41.7236 60.7721 42.707 60.8531C43.6895 60.9337 44.7959 61.0852 45.165 61.1895C45.6016 61.3127 45.75 61.2521 45.5908 61.0157C45.2236 60.4714 45.9482 60.5787 46.4609 61.1445C47.0889 61.8393 47.5332 61.7547 47.5332 60.9406C47.5332 60.4315 47.6533 60.3308 47.9795 60.5649C48.2256 60.7413 48.9502 61.0468 49.5889 61.2439C50.6787 61.5803 50.751 61.555 50.751 60.838C50.751 60.3495 51.0088 60.0118 51.4648 59.9023C52.0264 59.7676 52.1123 59.8387 51.8701 60.2361C51.3301 61.1203 52.627 61.9278 54.5732 61.9199C55.5186 61.916 56.9766 62.0566 57.8135 62.2321C58.7021 62.4183 59.417 62.4291 59.5322 62.2576C59.6416 62.0963 59.5596 61.9642 59.3516 61.9642C59.1436 61.9642 58.9736 61.8491 58.9736 61.7081C58.9736 61.3032 60.998 60.7098 61.4688 60.9767C61.7471 61.1347 61.6064 61.2914 61.0596 61.4327L60.2246 61.6478L61.0381 62.2753C62.0713 63.072 67.1172 63.189 67.4375 62.4238C67.6934 61.813 68.2686 61.8353 68.2686 62.4559C68.2686 62.7582 68.6035 62.9478 69.1377 62.9478C69.8701 62.9478 70.0029 62.7939 69.9775 61.9806C69.9561 61.2737 69.7539 60.9868 69.2275 60.915C68.5996 60.8292 68.5771 60.7646 69.0479 60.4088C69.5049 60.0636 69.7197 60.2364 70.4473 61.5341L71.3066 63.0671L71.5098 62.1058C71.6211 61.577 71.5879 60.8196 71.4355 60.4226C71.2207 59.8633 71.2764 59.742 71.6797 59.884C71.9658 59.9846 72.2031 60.2357 72.2061 60.442C72.209 60.6662 72.3369 60.6351 72.5244 60.3649C72.9629 59.7292 73.7051 60.2488 73.4424 61.0082C73.3232 61.3537 73.3857 61.6364 73.582 61.6364C73.7793 61.6364 74.042 61.9314 74.167 62.2921C74.292 62.6526 74.624 62.9478 74.9062 62.9478C75.1875 62.9478 75.418 63.0953 75.418 63.2756C75.418 63.7126 76.7129 63.6929 77.6318 63.2418C78.1982 62.9641 78.4404 62.9832 78.6758 63.3238C78.9141 63.6683 78.9834 63.6395 78.9883 63.1936C78.9941 62.5097 79.9619 62.4406 80.7529 63.0674C81.0635 63.3133 81.9209 63.5992 82.6582 63.7025C83.7031 63.8487 83.998 63.7815 83.998 63.3969C83.998 62.9022 84.8672 62.9897 86.124 63.6104C86.4092 63.751 87.0068 63.7388 87.4521 63.5831C87.9395 63.4136 88.3477 63.4268 88.4756 63.6159C88.7871 64.0785 91.0635 64.0008 91.2393 63.5215C91.3477 63.2258 91.5303 63.2081 91.8945 63.4579C92.1719 63.6487 93.3242 63.8414 94.4531 63.8867C96.2695 63.9592 96.6074 63.8696 97.375 63.11L98.2432 62.2514L98.3604 63.0094C98.4697 63.7215 98.6182 63.7631 100.801 63.6962C102.079 63.6572 103.285 63.61 103.482 63.591C103.679 63.5723 106.036 63.6588 108.721 63.7828C113.301 63.9946 113.613 63.9709 113.774 63.3962C113.926 62.8556 113.95 62.851 113.987 63.3575C114.024 63.8693 114.423 64.0765 115.175 63.9749C115.719 63.9011 126.062 63.5333 126.988 63.5546C127.528 63.567 127.972 63.4392 127.972 63.2703C127.972 63.0848 128.3 63.0786 128.806 63.2549C129.265 63.4149 129.854 63.4247 130.114 63.2769C130.377 63.1277 130.856 63.1612 131.189 63.352C131.562 63.5657 132.318 63.5956 133.188 63.4307C133.956 63.2848 134.731 63.1979 134.909 63.2375C135.088 63.2775 135.35 63.1395 135.49 62.9313C135.683 62.6451 135.934 62.6448 136.513 62.9291C136.936 63.1362 137.428 63.2228 137.606 63.1215C137.785 63.0202 138.939 62.8651 140.171 62.7776C141.402 62.6897 142.514 62.4635 142.641 62.2747C142.768 62.0858 143.179 61.9366 143.555 61.9435C144.495 61.9603 145.549 61.9586 146.293 61.9396C146.637 61.9307 146.919 61.7114 146.919 61.4521C146.919 61.1927 147.16 60.9806 147.455 60.9806C147.75 60.9806 147.991 61.1282 147.991 61.3085C147.991 61.4888 148.223 61.6364 148.505 61.6364C148.871 61.6364 149.014 61.2531 148.999 60.3091C148.988 59.579 149.078 58.8906 149.2 58.7791C149.322 58.6676 149.422 58.9627 149.422 59.4351C149.422 60.3944 150.104 61.9642 150.522 61.9642C151.191 61.9642 151.924 61.5278 151.924 61.1288C151.924 60.3905 152.721 60.1918 153.212 60.8079C153.764 61.4987 154.965 61.2305 154.653 60.4862C154.534 60.2003 154.651 59.9971 154.936 59.9971C155.203 59.9971 155.515 60.2184 155.628 60.4888C155.741 60.7593 156.201 60.9636 156.649 60.9426C157.255 60.9144 157.304 60.8658 156.84 60.7548C156.113 60.5806 155.991 59.9971 156.682 59.9971C156.939 59.9971 157.462 60.2062 157.843 60.4616C158.332 60.7898 158.668 60.8262 158.983 60.5856C159.299 60.3456 159.432 60.358 159.432 60.6275C159.432 60.8816 159.822 60.9432 160.594 60.8111C161.834 60.5983 162.255 60.5328 165.866 59.9899C167.145 59.7974 168.512 59.5046 168.905 59.3384C169.299 59.1725 170.022 59.0522 170.514 59.0712C171.792 59.121 174.208 58.6837 174.607 58.3303C174.794 58.165 175.252 58.03 175.625 58.03C175.997 58.03 176.729 57.7545 177.252 57.4175C177.897 57.0005 178.429 56.8887 178.915 57.0667C180.046 57.4801 180.52 57.4169 180.296 56.8824C180.166 56.571 180.301 56.3907 180.665 56.3907C180.98 56.3907 181.239 56.5382 181.239 56.7185C181.239 56.8989 181.48 57.0464 181.775 57.0464C182.409 57.0464 182.415 57.0103 181.963 55.9202C181.736 55.3737 181.736 55.0793 181.963 55.0793C182.154 55.0793 182.312 55.3006 182.312 55.571C182.312 55.8416 182.62 56.0628 182.997 56.0628C183.374 56.0628 183.735 56.2057 183.802 56.3805C183.871 56.5667 184.603 56.4733 185.565 56.155C186.811 55.7435 187.311 55.3688 187.62 54.6157L188.03 53.6203L188.575 54.3328C189.093 55.0111 189.189 55.0225 190.58 54.5728C191.383 54.3127 192.161 54.1685 192.309 54.2521C192.455 54.3354 192.504 54.0567 192.415 53.6324C192.258 52.8748 193.055 52.0132 193.297 52.6797C193.364 52.8666 193.629 53.281 193.884 53.601C194.293 54.1144 194.512 54.1357 195.748 53.7826C196.519 53.5626 197.83 53.1007 198.663 52.7558C199.497 52.4109 200.425 52.1286 200.727 52.1286C201.027 52.1286 201.911 51.7598 202.689 51.309C203.468 50.8582 204.338 50.4893 204.623 50.4893C204.907 50.4893 205.354 50.3047 205.613 50.0795C205.873 49.8543 206.626 49.63 207.286 49.5818C207.946 49.5333 208.826 49.2753 209.242 49.0081C209.658 48.7409 210.284 48.5222 210.634 48.5222C210.983 48.5222 211.27 48.3009 211.27 48.0305C211.27 47.7547 211.588 47.5386 211.995 47.5386C212.396 47.5386 212.814 47.3174 212.928 47.0469C213.041 46.7764 213.522 46.5551 213.998 46.5551C214.591 46.5551 214.969 46.2977 215.202 45.7355C215.534 44.9335 216.274 44.5942 216.274 45.2437C216.274 45.7286 216.964 45.6417 217.577 45.0798C217.872 44.8093 218.385 44.588 218.718 44.588C219.051 44.588 219.481 44.268 219.676 43.8772C219.869 43.4861 220.349 43.0067 220.74 42.8116C221.133 42.6166 221.809 42.1251 222.243 41.7192C222.678 41.3137 223.161 40.9753 223.318 40.9678C223.475 40.96 224.006 40.4905 224.497 39.924C224.988 39.3574 225.834 38.5073 226.377 38.0352C227.691 36.8893 229.782 33.041 228.78 33.6085C228.058 34.0187 228.312 32.4689 229.233 30.8447C229.788 29.8674 230.116 28.9822 229.962 28.8776C229.807 28.7727 229.681 27.6665 229.68 26.4194C229.68 24.8991 229.532 24.1064 229.233 24.0149C228.987 23.9398 228.787 23.6854 228.787 23.4493C228.787 23.213 228.561 22.9402 228.284 22.8431C228.008 22.7458 227.674 22.2153 227.542 21.6642C227.41 21.113 227.153 20.578 226.972 20.475C226.79 20.3724 226.637 19.9649 226.629 19.5699C226.622 19.1748 226.26 18.4768 225.825 18.0188C224.741 16.8782 222.352 15.2973 222.352 15.7202C222.352 15.9097 222.11 16.0648 221.815 16.0648C221.521 16.0648 221.279 15.9409 221.279 15.7897C221.279 15.6382 220.877 15.3461 220.386 15.1409C219.895 14.9354 219.488 14.5062 219.483 14.1865C219.474 13.5931 217.442 12.4584 216.389 12.4584C216.074 12.4584 215.588 12.2001 215.309 11.8846C214.958 11.4902 214.743 11.4326 214.621 11.7004C214.5 11.964 214.209 11.8755 213.719 11.426C213.216 10.965 212.731 10.8231 212.132 10.9608C211.648 11.0723 211.27 11.0145 211.27 10.8297C211.27 10.2946 208.705 8.97205 207.158 8.70874C206.372 8.57501 205.563 8.34058 205.361 8.18811C204.621 7.6275 200.887 6.66101 198.276 6.3548C197.459 6.25903 196.268 6.05579 195.629 5.90332C194.842 5.71576 194.467 5.742 194.467 5.98492C194.467 6.18201 194.104 6.03674 193.662 5.66168C193.157 5.23383 192.192 4.91974 191.07 4.81781C190.087 4.72827 188.479 4.48993 187.495 4.28766C186.513 4.08569 184.776 3.86273 183.638 3.79193C182.498 3.72144 181.372 3.52179 181.135 3.34839C180.897 3.17493 179.577 3.01953 178.2 3.00281C175.734 2.97296 175.148 2.90576 174.089 2.53302C173.127 2.19434 169.799 2.05597 169.799 2.35461C169.799 2.51495 169.502 2.50018 169.139 2.32184C168.685 2.09894 168.35 2.11566 168.066 2.37598C167.755 2.6615 167.654 2.64215 167.654 2.29791C167.654 1.96582 167.532 1.9953 167.204 2.40613C166.696 3.04279 165.258 2.98218 164.801 2.30511C164.605 2.01495 164.137 1.94025 163.383 2.07861C162.616 2.21893 162.333 2.17139 162.496 1.92944C162.646 1.70648 162.43 1.72388 161.916 1.97595C161.238 2.30872 161.027 2.29041 160.691 1.87006C160.328 1.41437 160.245 1.41864 159.88 1.9104C159.503 2.41888 159.472 2.41693 159.452 1.88513C159.44 1.56976 159.391 1.29797 159.342 1.28156C159.293 1.2655 157.654 1.18683 155.7 1.10718C153.746 1.02716 151.951 0.812073 151.71 0.62915C151.41 0.40094 151.193 0.413757 151.021 0.669128C150.857 0.912415 150.317 0.959595 149.47 0.804565C147.256 0.399353 145.847 0.432434 145.847 0.889771C145.847 1.12158 145.686 1.3114 145.489 1.3114C145.292 1.3114 145.172 1.14551 145.221 0.942566C145.271 0.739624 144.908 0.533752 144.416 0.484924C143.925 0.436035 143.161 0.289795 142.718 0.159668C142.109 -0.019043 141.914 0.0524292 141.914 0.45343C141.914 0.745239 142.102 0.983582 142.331 0.983582C142.561 0.983582 142.628 1.09406 142.48 1.22882C142.333 1.36389 142.011 1.22058 141.764 0.910461C141.152 0.143921 139.486 0.0901489 138.029 0.789795C137.082 1.24451 136.74 1.28156 136.421 0.963257C136.114 0.65863 136.124 0.616333 136.462 0.790771C136.736 0.932739 136.909 0.82489 136.909 0.511108C136.909 0.230164 136.703 0 136.452 0C135.896 0 134.392 0.893066 133.78 1.58582C133.392 2.02643 133.334 1.99597 133.334 1.35205C133.334 0.76062 133.189 0.653381 132.619 0.819641C132.109 0.967834 131.903 0.878662 131.903 0.50885C131.903 0.128845 131.592 0.00622559 130.742 0.0514526C130.103 0.0858765 129.319 0.230469 129.001 0.373108C128.683 0.515686 128.325 0.543274 128.206 0.434082C128.087 0.324585 126.514 0.193115 124.71 0.141663C122.23 0.071167 121.227 0.170837 120.594 0.551453C119.891 0.973694 119.726 0.981262 119.565 0.598633C119.364 0.11969 118.051 0.0357056 117.312 0.454712C117.072 0.590149 116.953 0.814392 117.047 0.952759C117.14 1.09106 116.997 1.49237 116.729 1.84387C116.312 2.3894 115.122 2.5907 114.028 2.30084C113.727 2.22089 115.616 1.53241 115.949 1.60156C116.121 1.63696 116.161 1.42682 116.039 1.13403C115.916 0.841614 115.816 0.465576 115.816 0.299011C115.816 0.122925 114.654 0.076416 113.046 0.187866C109.777 0.414062 109.836 0.414734 108.577 0.139038C107.824 -0.0258789 107.594 0.0435791 107.594 0.434082C107.594 0.886536 107.481 0.891113 106.61 0.474426C105.265 -0.169495 102.589 -0.127869 101.528 0.553406C100.918 0.945862 100.626 0.993408 100.525 0.717346C100.317 0.145874 98.4629 0.242615 97.9102 0.853394C97.4775 1.33142 97.3838 1.32123 96.8711 0.740601C96.3926 0.197998 96.2383 0.170837 95.8418 0.559631ZM100.443 1.47534C100.443 1.74579 100.282 1.98547 100.086 2.00812C99.8896 2.0307 99.5615 2.06744 99.3584 2.09009C99.1543 2.11267 98.835 2.35236 98.6484 2.6228C98.168 3.32019 98.1855 2.4458 98.6689 1.61761C99.1045 0.870789 100.443 0.76355 100.443 1.47534ZM81.4961 2.11169C81.4961 2.19135 81.335 2.34741 81.1387 2.45892C80.9414 2.57037 80.7812 2.50513 80.7812 2.31433C80.7812 2.12347 80.9414 1.9671 81.1387 1.9671C81.335 1.9671 81.4961 2.03204 81.4961 2.11169ZM70.9648 3.91095C70.6143 4.43256 70.0479 4.00769 70.2979 3.40997C70.4346 3.08118 70.6299 3.01819 70.8584 3.22803C71.0518 3.40472 71.0996 3.71198 70.9648 3.91095ZM158.359 3.44244C158.359 3.71295 158.123 3.9342 157.834 3.9342C157.515 3.9342 157.39 3.74213 157.515 3.44244C157.628 3.172 157.864 2.95068 158.04 2.95068C158.215 2.95068 158.359 3.172 158.359 3.44244ZM162.087 3.19659C161.909 3.33197 161.644 3.58997 161.497 3.77032C161.345 3.95752 161.228 3.85193 161.225 3.52441C161.222 3.20544 161.483 2.95068 161.814 2.95068C162.143 2.95068 162.265 3.06116 162.087 3.19659ZM69.3408 3.9342C69.3408 4.11456 69.1797 4.26208 68.9834 4.26208C68.7861 4.26208 68.626 4.11456 68.626 3.9342C68.626 3.75391 68.7861 3.60638 68.9834 3.60638C69.1797 3.60638 69.3408 3.75391 69.3408 3.9342ZM80.6836 3.80438C80.5654 3.91327 80.2568 3.92505 79.999 3.83032C79.7139 3.72571 79.7988 3.64801 80.2148 3.63226C80.5918 3.61816 80.8027 3.69556 80.6836 3.80438ZM167.654 4.28699C167.654 4.44208 167.413 4.48438 167.118 4.3808C166.823 4.27686 166.581 4.0647 166.581 3.9093C166.581 3.75427 166.823 3.71198 167.118 3.81555C167.413 3.91949 167.654 4.13159 167.654 4.28699ZM175.161 3.9342C175.161 4.11456 174.88 4.25977 174.536 4.25714C174.001 4.25293 173.988 4.20569 174.446 3.9342C175.121 3.53424 175.161 3.53424 175.161 3.9342ZM62.7266 4.58997C62.8486 4.77026 62.7773 4.91779 62.5693 4.91779C62.3613 4.91779 62.1904 4.77026 62.1904 4.58997C62.1904 4.40961 62.2617 4.26208 62.3486 4.26208C62.4355 4.26208 62.6055 4.40961 62.7266 4.58997ZM156.214 4.58997C156.214 4.77026 156.043 4.91779 155.835 4.91779C155.627 4.91779 155.556 4.77026 155.678 4.58997C155.799 4.40961 155.97 4.26208 156.057 4.26208C156.144 4.26208 156.214 4.40961 156.214 4.58997ZM165.136 5.39154C165.46 5.75085 165.475 5.90137 165.184 5.90137C164.957 5.90137 164.679 5.68005 164.566 5.40955C164.452 5.1391 164.136 4.91779 163.862 4.91779C163.588 4.91779 163.364 4.76501 163.364 4.57849C163.364 4.15387 164.478 4.66504 165.136 5.39154ZM160.407 4.78796C160.288 4.89679 159.979 4.90863 159.722 4.81384C159.437 4.70929 159.521 4.63159 159.938 4.61584C160.314 4.60175 160.525 4.67914 160.407 4.78796ZM55.6367 5.79218C55.1709 6.21906 55.4082 6.88489 56.0234 6.88C56.5186 6.87604 56.5469 6.81506 56.1572 6.5885C55.8857 6.43115 55.7744 6.13837 55.9102 5.93805C56.1797 5.53711 56.0127 5.44763 55.6367 5.79218ZM173.635 6.75507C173.516 6.86395 173.207 6.87573 172.949 6.78101C172.664 6.67639 172.749 6.59869 173.166 6.58295C173.542 6.56885 173.753 6.64624 173.635 6.75507ZM174.804 7.21277C174.804 7.39307 174.644 7.54059 174.446 7.54059C174.25 7.54059 174.089 7.39307 174.089 7.21277C174.089 7.03247 174.25 6.88489 174.446 6.88489C174.644 6.88489 174.804 7.03247 174.804 7.21277ZM178.736 7.37671C178.736 7.64716 178.576 7.86847 178.379 7.86847C178.183 7.86847 178.021 7.64716 178.021 7.37671C178.021 7.1062 178.183 6.88489 178.379 6.88489C178.576 6.88489 178.736 7.1062 178.736 7.37671ZM188.747 8.05176C188.747 8.3327 188.586 8.47174 188.39 8.36023C188.192 8.24878 188.031 8.01892 188.031 7.84912C188.031 7.67932 188.192 7.54059 188.39 7.54059C188.586 7.54059 188.747 7.77075 188.747 8.05176ZM201.975 10.9831C201.975 11.2535 201.733 11.4749 201.438 11.4749C201.144 11.4749 200.901 11.2535 200.901 10.9831C200.901 10.7126 201.144 10.4913 201.438 10.4913C201.733 10.4913 201.975 10.7126 201.975 10.9831ZM214.366 13.8518C214.267 14.0773 214.186 13.8928 214.186 13.442C214.186 12.9911 214.267 12.8069 214.366 13.0322C214.466 13.2577 214.466 13.6265 214.366 13.8518ZM45.9238 17.704C45.8027 17.8844 45.874 18.0319 46.082 18.0319C46.29 18.0319 46.4609 17.8844 46.4609 17.704C46.4609 17.5237 46.3896 17.3762 46.3027 17.3762C46.2158 17.3762 46.0459 17.5237 45.9238 17.704ZM41.1543 19.0154C41.1543 19.4662 41.2354 19.6508 41.335 19.4253C41.4336 19.2001 41.4336 18.8312 41.335 18.6057C41.2354 18.3804 41.1543 18.5646 41.1543 19.0154ZM33.6572 19.4135C33.0996 19.9243 33.1133 20.4213 33.6797 20.2331C33.9258 20.1515 34.3984 20.301 34.7295 20.5656C35.0615 20.8304 35.5039 20.9498 35.7129 20.8314C36.2227 20.5426 36.1973 19.999 35.6748 19.999C35.4443 19.999 34.9912 19.7797 34.668 19.5118C34.2158 19.1358 33.9844 19.1135 33.6572 19.4135ZM28.8486 20.8508C28.7305 20.9586 28.7207 21.2527 28.8262 21.5048C28.9805 21.8724 28.7012 21.9232 27.4189 21.7619C26.4004 21.634 25.7305 21.6943 25.5723 21.9274C25.4365 22.1291 25.4961 22.294 25.7041 22.294C25.9121 22.294 26.083 22.6445 26.083 23.0726C26.083 23.6848 26.2744 23.8513 26.9766 23.8513C27.6064 23.8513 27.8701 23.6729 27.8701 23.248C27.8701 22.5842 28.8662 21.9707 29.5693 22.2018C29.8682 22.3002 29.9365 22.1589 29.7764 21.776C29.6123 21.3852 29.6689 21.2783 29.9551 21.4399C30.1846 21.5704 30.373 21.5366 30.373 21.3649C30.373 21.1931 30.1182 20.9633 29.8076 20.8538C29.1133 20.6095 29.1113 20.6095 28.8486 20.8508ZM31.0879 21.5533C31.0879 22.158 31.749 22.3583 32.4258 21.9592C32.9326 21.6603 32.9414 21.6202 32.4727 21.7517C32.1523 21.8416 31.71 21.7495 31.4893 21.5471C31.1924 21.2753 31.0879 21.277 31.0879 21.5533ZM23.4014 22.6218C23.2803 22.8022 23.3516 22.9497 23.5596 22.9497C23.7676 22.9497 23.9375 23.1589 23.9375 23.4142C23.9375 24.0873 24.7637 24.2391 25.2354 23.6526C25.5391 23.2739 25.5234 23.0454 25.1709 22.7225C24.6162 22.2137 23.7109 22.1622 23.4014 22.6218ZM20.9883 23.5034C20.6445 23.5861 20.3633 23.9198 20.3633 24.2451C20.3633 24.5703 20.0918 25.0391 19.7598 25.2866C19.2344 25.6781 19.1855 25.6656 19.3799 25.1899C19.5127 24.8644 19.3955 24.5703 19.0889 24.4624C18.8066 24.363 18.5752 24.4247 18.5752 24.5991C18.5752 24.7739 18.334 24.9168 18.0391 24.9168C17.7441 24.9168 17.5029 25.0598 17.5029 25.2345C17.5029 25.4089 17.2783 25.4728 17.0029 25.3758C16.2041 25.0948 16.1035 25.6797 16.834 26.3676C17.4238 26.9243 17.5029 26.9341 17.5029 26.4495C17.5029 26.1476 17.7441 25.9004 18.0391 25.9004C18.334 25.9004 18.5752 26.1318 18.5752 26.4151C18.5752 27.2761 20.1182 26.8413 20.4014 25.9004C20.5576 25.3846 20.6621 25.2935 20.6846 25.6545C20.7246 26.2951 21.2646 26.419 21.6338 25.8718C21.7656 25.6758 22.1738 25.5876 22.542 25.6758C23.0889 25.8066 23.1484 25.7299 22.8721 25.2555C22.6855 24.9365 22.6309 24.5857 22.75 24.4762C22.9883 24.2578 22.1992 23.2543 21.8389 23.3156C21.7148 23.3365 21.333 23.4211 20.9883 23.5034ZM23.2227 24.589C22.7646 24.8604 22.7773 24.9077 23.3125 24.9119C23.6562 24.9145 23.9375 24.7693 23.9375 24.589C23.9375 24.189 23.8975 24.189 23.2227 24.589ZM13.8574 27.0383C12.0176 28.1271 11.8242 28.4065 12.7656 28.6186C13.1094 28.696 12.8691 28.6996 12.2295 28.6265C11.0273 28.4888 10.6299 28.9547 11.6445 29.3117C12.0107 29.4406 12.1533 29.753 12.0352 30.1664C11.9336 30.5247 11.9951 30.8182 12.1738 30.8182C12.3516 30.8182 12.498 30.5231 12.498 30.1625C12.498 29.4478 12.7617 29.3586 13.5381 29.8097C14.124 30.1497 15.3574 29.5641 15.3574 28.9465C15.3574 28.7111 15.6182 28.6205 15.9834 28.7285C16.4883 28.8773 16.5098 28.8484 16.0957 28.5792C15.6768 28.3068 15.666 28.1527 16.0371 27.7426C16.4062 27.3347 16.4023 27.1272 16.0146 26.6426C15.5605 26.0748 15.4531 26.0941 13.8574 27.0383ZM6.59863 34.0967C6.72266 34.2797 6.45508 34.4222 5.99414 34.4196C5.33008 34.4153 5.27344 34.3524 5.70508 34.0967C6.37012 33.7026 6.33301 33.7026 6.59863 34.0967ZM215.381 42.6208C215.502 42.8012 215.342 42.9487 215.023 42.9487C214.705 42.9487 214.544 42.8012 214.666 42.6208C214.787 42.4406 214.948 42.293 215.023 42.293C215.099 42.293 215.259 42.4406 215.381 42.6208ZM209.248 46.0774C209.131 46.3558 208.959 46.5131 208.865 46.4272C208.771 46.3413 208.801 46.1135 208.931 45.9214C209.283 45.3981 209.489 45.4998 209.248 46.0774ZM208.175 48.0446C208.059 48.3229 207.887 48.4802 207.793 48.3943C207.699 48.3085 207.729 48.0806 207.858 47.8885C208.211 47.3652 208.417 47.4669 208.175 48.0446ZM199.829 49.1779C199.829 49.3582 199.659 49.5058 199.451 49.5058C199.242 49.5058 199.172 49.3582 199.293 49.1779C199.415 48.9976 199.585 48.8501 199.672 48.8501C199.759 48.8501 199.829 48.9976 199.829 49.1779ZM201.08 49.1779C201.202 49.3582 201.051 49.5058 200.744 49.5058C200.438 49.5058 200.187 49.3582 200.187 49.1779C200.187 48.9976 200.338 48.8501 200.523 48.8501C200.708 48.8501 200.959 48.9976 201.08 49.1779ZM177.307 55.735C177.307 55.9153 177.146 56.0628 176.949 56.0628C176.753 56.0628 176.592 55.9153 176.592 55.735C176.592 55.5546 176.753 55.4071 176.949 55.4071C177.146 55.4071 177.307 55.5546 177.307 55.735ZM39.0723 58.7181C39.2363 58.8306 39.1152 59.0118 38.8047 59.1213C38.3965 59.265 38.2383 59.1246 38.2383 58.6207C38.2383 58.2358 38.3584 58.0542 38.5059 58.2175C38.6533 58.3804 38.9082 58.606 39.0723 58.7181ZM45.291 59.2115C45.1729 59.3204 44.8643 59.3322 44.6064 59.2374C44.3213 59.1328 44.4053 59.0551 44.8223 59.0394C45.1992 59.0253 45.4102 59.1027 45.291 59.2115ZM132.977 60.4888C132.977 60.7714 132.653 60.9806 132.218 60.9806C131.583 60.9806 131.532 60.8997 131.903 60.4888C132.148 60.2184 132.49 59.9971 132.662 59.9971C132.835 59.9971 132.977 60.2184 132.977 60.4888ZM93.8301 60.6528C93.9512 60.8331 93.79 60.9806 93.4727 60.9806C93.1543 60.9806 92.9932 60.8331 93.1143 60.6528C93.2363 60.4724 93.3975 60.3249 93.4727 60.3249C93.5469 60.3249 93.708 60.4724 93.8301 60.6528ZM79.708 60.7767C79.708 60.8445 79.4668 61.0839 79.1719 61.3085C78.7324 61.6429 78.6357 61.6202 78.6357 61.1845C78.6357 60.8921 78.877 60.6528 79.1719 60.6528C79.4668 60.6528 79.708 60.7085 79.708 60.7767ZM103.304 60.7974C103.304 60.877 103.143 61.0331 102.946 61.1445C102.749 61.256 102.589 61.1908 102.589 60.9999C102.589 60.8091 102.749 60.6528 102.946 60.6528C103.143 60.6528 103.304 60.7177 103.304 60.7974ZM87.4238 61.6364C87.7031 61.6364 87.9307 61.9314 87.9307 62.2921C87.9307 62.6526 87.8389 62.9478 87.7266 62.9478C87.3164 62.9478 86.6777 62.1111 86.6006 61.4724C86.5576 61.1118 86.6113 61.0013 86.7197 61.2265C86.8291 61.4521 87.1455 61.6364 87.4238 61.6364ZM72.5586 62.2921C72.5586 62.7147 72.7393 62.9471 73.0049 62.8658C73.251 62.7907 73.4521 62.5323 73.4521 62.2921C73.4521 62.0517 73.251 61.7933 73.0049 61.7183C72.7393 61.637 72.5586 61.8694 72.5586 62.2921ZM95.3252 62.3536C95.2109 62.615 95.126 62.5372 95.1094 62.1553C95.0938 61.8098 95.1777 61.6163 95.2969 61.7252C95.416 61.834 95.4287 62.1169 95.3252 62.3536ZM96.332 63.2756C96.4541 63.4559 96.3018 63.6035 95.9961 63.6035C95.6895 63.6035 95.4385 63.4559 95.4385 63.2756C95.4385 63.0953 95.5898 62.9478 95.7744 62.9478C95.96 62.9478 96.2109 63.0953 96.332 63.2756Z" fill-rule="evenodd" fill="#6966FF"/>
</svg>
