<svg width="32.000000" height="100.000000" viewBox="0 0 32 100" fill="none" xmlns="http://www.w3.org/2000/svg" xmlns:xlink="http://www.w3.org/1999/xlink">
	<desc>
			Created with Pixso.
	</desc>
	<defs/>
	<path id="Down arrow" d="M13.8623 0.593018C13.7158 1.4718 13.7275 1.5155 14.1592 1.71289C14.3779 1.81262 14.5557 1.98206 14.5557 2.08948C14.5557 2.36719 15.2168 2.32043 15.5469 2.01941C15.9619 1.64087 15.8828 1.20422 15.3486 0.919922C15.0869 0.78064 14.873 0.56897 14.873 0.449707C14.873 0.266479 14.4082 0.00915527 14.0605 0C14.0059 -0.00146484 13.917 0.265381 13.8623 0.593018ZM15.4307 2.85364C15.1689 3.20129 15.1572 3.28711 15.3555 3.43726C15.4824 3.53418 15.6406 3.61462 15.7051 3.61633C15.7705 3.6178 15.8242 3.73987 15.8242 3.88721C15.8242 4.19214 15.1855 4.07532 15.001 3.73682C14.9404 3.62561 14.8525 3.58105 14.8047 3.63733C14.6729 3.79663 15.002 5.00305 15.2266 5.18188C15.3818 5.30469 15.3643 5.38721 15.1504 5.53833C14.998 5.64648 14.873 5.82166 14.873 5.92737C14.873 6.0332 14.9365 6.07263 15.0137 6.01526C15.2764 5.82007 15.5488 6.46497 15.4521 7.05078C15.3926 7.40649 15.4219 7.62219 15.5303 7.62219C15.6289 7.62219 15.6709 7.82581 15.627 8.09875C15.5693 8.4635 15.6182 8.57532 15.835 8.57532C15.9912 8.57532 16.1514 8.42529 16.1904 8.24182C16.2578 7.93445 16.2646 7.93542 16.2812 8.25439C16.292 8.44458 16.2139 8.78772 16.1094 9.01685C16.0039 9.24573 15.8926 9.64612 15.8613 9.90613C15.8291 10.1663 15.7412 10.4259 15.6641 10.4832C15.584 10.5424 15.5879 10.7076 15.6719 10.8678C15.7529 11.0223 15.8203 11.0546 15.8223 10.9395C15.8232 10.8243 16.0381 10.7229 16.2998 10.714C16.6133 10.7032 16.7754 10.7908 16.7754 10.9709C16.7754 11.1211 16.6689 11.244 16.5381 11.244C16.4072 11.244 16.2998 11.3818 16.2998 11.5504C16.2998 11.7545 16.2139 11.8171 16.043 11.7382C15.835 11.6421 15.8086 11.7014 15.9053 12.0514C15.9717 12.2888 16.0225 12.912 16.0195 13.4363C16.0166 13.9604 16.0967 14.4524 16.1963 14.5294C16.3174 14.6216 16.29 14.6705 16.1191 14.6724C15.623 14.678 15.6191 15.623 16.1152 15.6345C16.3555 15.64 16.3545 15.6635 16.1016 15.8938C15.9492 16.0331 15.8242 16.2446 15.8242 16.3641C15.8242 16.4838 15.748 16.5815 15.6553 16.5815C15.5615 16.5815 15.5078 16.7747 15.5361 17.0104C15.5635 17.2462 15.6543 17.4115 15.7373 17.3776C15.8203 17.3436 15.9492 17.5134 16.0234 17.7554C16.1094 18.0355 16.0977 18.2194 15.9902 18.2625C15.8984 18.2994 15.876 18.4296 15.9414 18.5516C16.1104 18.8667 16.1045 19.6315 15.9336 19.6315C15.8555 19.6315 15.8301 19.7557 15.8789 19.9077C15.9375 20.0924 15.8906 20.1488 15.7373 20.0779C15.5947 20.0126 15.5078 20.0891 15.5078 20.2782C15.5078 20.4468 15.5693 20.5846 15.6465 20.5846C15.833 20.5846 15.8242 21.5156 15.6357 21.6555C15.5527 21.717 15.6035 21.921 15.749 22.1152C15.9971 22.444 15.9932 22.4583 15.6807 22.36C15.4902 22.3002 15.3486 22.3466 15.3486 22.4685C15.3486 22.5857 15.4561 22.6814 15.5869 22.6814C15.7451 22.6814 15.8242 22.8721 15.8242 23.2533C15.8242 23.698 15.8945 23.8252 16.1416 23.8252C16.3164 23.8252 16.459 23.9109 16.459 24.0157C16.459 24.1206 16.3828 24.2064 16.291 24.2064C16.1982 24.2064 16.1748 24.3066 16.2373 24.4294C16.3135 24.5774 16.2676 24.6132 16.0996 24.536C15.7461 24.3727 15.4473 24.8547 15.6328 25.2903C15.8945 25.905 15.8271 27.0377 15.4873 27.7305L15.1602 28.3972L15.6484 28.7322C15.917 28.9165 16.1768 29.1937 16.2266 29.3483C16.3301 29.6674 15.8506 30.1685 15.5674 30.038C15.4463 29.9819 15.3809 30.1849 15.3809 30.6189C15.3809 31.0206 15.4707 31.3275 15.6064 31.3904C15.8896 31.5211 15.5928 32.022 15.2324 32.022C15.0303 32.022 15.0352 32.095 15.2637 32.5146C15.5176 32.9796 15.5166 33.0284 15.249 33.3842C15.0547 33.6416 15.0205 33.8024 15.1416 33.8921C15.2383 33.9644 15.3604 34.4524 15.4121 34.9766C15.4648 35.5009 15.4658 35.8225 15.415 35.6914C15.3643 35.5603 15.1973 35.4531 15.0449 35.4531C14.6973 35.4531 14.7129 36.0679 15.0723 36.5457C15.2305 36.7561 15.3193 37.1655 15.3008 37.6003C15.2744 38.1918 15.2119 38.3109 14.9238 38.3118C14.7148 38.3121 14.5371 38.4669 14.4746 38.7018C14.3506 39.1713 14.5264 40.5552 14.7285 40.7056C14.9902 40.9001 14.8799 41.137 14.4375 41.3315C14.1973 41.4368 14.0908 41.5298 14.1992 41.538C14.3086 41.5461 14.3975 41.7676 14.3975 42.0297C14.3975 42.3262 14.4873 42.5062 14.6357 42.5062C14.7666 42.5062 14.873 42.5919 14.873 42.6968C14.873 42.8016 14.7666 42.8875 14.6357 42.8875C14.3809 42.8875 14.3594 43.0663 14.3945 44.9006C14.415 45.9675 14.3857 46.0731 14.0107 46.2786C13.5615 46.5249 13.4561 47.2153 13.8418 47.3929C13.9717 47.4532 14.042 47.5731 13.998 47.6599C13.9531 47.7463 13.9971 47.8768 14.0947 47.9496C14.2256 48.0469 14.2236 48.1182 14.0898 48.2181C13.9883 48.2931 13.8975 48.5612 13.8857 48.8138C13.875 49.0664 13.7539 49.4347 13.6162 49.6322C13.3818 49.9689 13.3887 49.983 13.7236 49.8578C14.0146 49.7489 14.0801 49.7971 14.0801 50.1183C14.0801 50.3351 14.0215 50.5123 13.9482 50.5123C13.7529 50.5123 13.4521 51.8313 13.5645 52.1974C13.6172 52.3715 13.7373 52.5769 13.8311 52.6539C13.9346 52.7391 13.8965 52.795 13.7334 52.7969C13.3193 52.8013 13.251 53.1141 13.5234 53.7474C13.6826 54.1178 13.708 54.3248 13.5957 54.3248C13.499 54.3248 13.4521 54.4321 13.4912 54.5631C13.5791 54.8582 13.3145 55.511 13.1553 55.3925C13.0908 55.3448 13.0293 55.4497 13.0176 55.6254C12.9834 56.1466 12.8818 56.5923 12.7637 56.7339C12.7031 56.8066 12.6533 57.101 12.6533 57.3877C12.6533 57.7635 12.7979 58.0255 13.1689 58.3256C13.5439 58.6289 13.5928 58.718 13.3477 58.6544C13.0811 58.585 13.0264 58.641 13.0879 58.924C13.1309 59.1202 13.084 59.281 12.9834 59.281C12.8496 59.281 12.8467 59.3833 12.9727 59.6663C13.2061 60.1915 13.0186 60.4806 12.5381 60.3354C12.1836 60.2285 12.166 60.2471 12.377 60.5011C12.9219 61.1559 12.8926 63.7587 12.333 64.4314C12.0908 64.7227 12.0215 64.9653 12.0986 65.2555C12.2891 65.9725 12.3154 66.8035 12.1533 66.9243C12.0586 66.9945 12.0947 67.1605 12.2451 67.3411C12.5674 67.7278 12.5645 68.0496 12.2393 68.0496C12.0449 68.0496 12 68.1876 12.0527 68.6169C12.0908 68.9287 12.0449 69.2185 11.9512 69.2606C11.8467 69.3079 11.9238 69.6472 12.1523 70.1438C12.4209 70.7267 12.4756 71.0079 12.3506 71.1583C12.2559 71.2728 12.1777 71.6066 12.1777 71.9001C12.1777 72.2792 12.0977 72.4357 11.9004 72.4397C11.6377 72.4452 11.6377 72.4561 11.9033 72.6415C12.1006 72.7799 12.1416 72.9265 12.043 73.1394C11.877 73.4948 11.9883 74.1495 12.2129 74.1495C12.2998 74.1495 12.3262 74.2877 12.2725 74.4567C12.2021 74.6764 12.2422 74.7324 12.4141 74.6533C12.7256 74.5094 12.7188 74.7004 12.3955 75.1295C12.2188 75.3638 12.1309 75.859 12.1182 76.6913C12.1035 77.58 12.0449 77.8857 11.9004 77.8203C11.6416 77.7032 11.6357 78.568 11.8926 78.877C12.001 79.0072 12.0137 79.1057 11.9229 79.1057C11.8311 79.1057 11.7461 79.7607 11.7246 80.6307C11.6992 81.6494 11.7451 82.1556 11.8633 82.1556C11.96 82.1556 12.0244 82.3917 12.0068 82.6799C11.9678 83.3118 12.1592 84.0619 12.3604 84.0619C12.4434 84.0619 12.4365 83.9061 12.3447 83.6997C12.2207 83.4213 12.2422 83.3107 12.4365 83.2211C12.6494 83.1227 12.6729 83.2167 12.5898 83.8215C12.5352 84.2159 12.4873 84.6885 12.4834 84.8721C12.4785 85.0554 12.417 85.2057 12.3467 85.2057C12.2754 85.2057 12.2178 85.42 12.2178 85.6823C12.2178 85.9443 12.2803 86.1588 12.3564 86.1588C12.4326 86.1588 12.4951 86.2875 12.4951 86.4447C12.4951 86.6019 12.6016 86.7306 12.7324 86.7306C13.0215 86.7306 13.0439 87.1375 12.7725 87.4668C12.6133 87.6595 12.6289 87.7449 12.8516 87.8958C13.0039 87.9993 13.1289 88.2941 13.1289 88.551C13.1289 88.8079 13.2119 89.0181 13.3125 89.0181C13.4189 89.0181 13.3818 89.1691 13.2217 89.3811C12.9873 89.6927 12.9785 89.8059 13.1582 90.1824C13.2725 90.4237 13.5049 90.7627 13.6729 90.9358C14.082 91.3558 14.1826 93.0912 13.835 93.7284C13.5947 94.1707 13.584 94.1721 13.1045 93.8373C12.8379 93.6504 12.5732 93.3588 12.5166 93.1887C12.332 92.6243 11.2734 91.3611 10.8887 91.245C10.6807 91.182 10.3916 90.8911 10.248 90.5985C9.73633 89.5605 9.24414 89.0181 8.8125 89.0181C8.5625 89.0181 8.29492 88.8538 8.15625 88.6162C8.02734 88.3951 7.84473 88.2716 7.75098 88.3416C7.65723 88.4115 7.58008 88.3687 7.58008 88.2465C7.58008 88.1243 7.47266 88.0736 7.3418 88.134C7.18066 88.2085 7.10449 88.1237 7.10449 87.8684C7.10449 87.662 7.03809 87.4932 6.95703 87.4932C6.87598 87.4932 6.6875 87.3463 6.53809 87.1667C6.38867 86.9872 6.15918 86.8214 6.02734 86.7981C5.89551 86.775 5.74512 86.6851 5.69336 86.5985C5.51172 86.2991 4.27441 85.4108 3.86621 85.2878C3.6416 85.22 3.45703 85.0907 3.45703 85.001C3.45703 84.9111 3.24316 84.5743 2.98145 84.2526C2.71973 83.9308 2.50586 83.5448 2.50586 83.3949C2.50586 83.0713 1.93164 82.6604 1.70996 82.8253C1.625 82.8888 1.55469 82.8436 1.55469 82.7252C1.55469 82.3278 1.07227 81.9248 0.564453 81.8972C-0.0498047 81.8639 -0.210938 82.3518 0.322266 82.6326C0.520508 82.7373 0.693359 82.9944 0.706055 83.2041C0.717773 83.4138 0.736328 83.7686 0.745117 83.9926C0.766602 84.511 2.08398 86.1583 2.86328 86.6401C3.18945 86.8423 3.45703 87.1393 3.45703 87.3C3.45703 87.6705 4.00684 88.0923 4.30859 87.9531C4.46582 87.8801 4.57031 88.0283 4.64453 88.4327C4.74316 88.9766 4.92969 89.1141 5.46191 89.037C5.56152 89.0227 5.63281 89.1589 5.62012 89.3398C5.60742 89.5289 5.79004 89.7825 6.05078 89.9354C6.57227 90.2427 7.10449 90.8376 7.10449 91.115C7.10449 91.2197 7.23145 91.3055 7.38672 91.3055C7.54297 91.3055 7.98828 91.7373 8.37695 92.265C8.76562 92.7928 9.35254 93.4478 9.67969 93.7206C10.0068 93.9935 10.2754 94.3302 10.2754 94.469C10.2754 95.1329 10.8584 96.0726 11.4639 96.3834C11.8135 96.5624 12.1523 96.6941 12.2178 96.676C12.2832 96.6578 12.3359 96.8146 12.3359 97.0243C12.3359 97.2339 12.4072 97.4055 12.4951 97.4055C12.582 97.4055 12.6533 97.62 12.6533 97.8821C12.6533 98.1787 12.7432 98.3586 12.8916 98.3586C13.0225 98.3586 13.2715 98.5302 13.4463 98.7399C13.6201 98.9495 13.835 99.1211 13.9219 99.1211C14.0088 99.1211 14.0801 99.2069 14.0801 99.3118C14.0801 99.4165 14.1816 99.5023 14.3047 99.5023C14.4287 99.5023 14.5566 99.5984 14.5889 99.7161C14.6211 99.8335 14.9131 99.949 15.2363 99.9727C15.6689 100.004 15.8242 99.9399 15.8242 99.7294C15.8242 99.4905 15.875 99.4978 16.1279 99.7739C16.3721 100.039 16.499 100.062 16.7646 99.8909C17.0283 99.7208 17.0645 99.6034 16.9375 99.3191C16.8242 99.0641 16.833 98.9392 16.9688 98.8849C17.0732 98.843 17.1768 98.4728 17.1982 98.0621C17.2207 97.6514 17.3125 97.2858 17.4033 97.2494C17.4941 97.213 17.5684 96.9758 17.5684 96.7225C17.5684 96.469 17.6416 96.2617 17.7314 96.2617C17.8203 96.2617 17.9609 96.0474 18.0439 95.7852C18.127 95.5231 18.2627 95.3086 18.3467 95.3086C18.4297 95.3086 18.5439 95.1371 18.5986 94.9274C18.6543 94.7178 18.79 94.5461 18.9014 94.5461C19.0127 94.5461 19.1846 94.3317 19.2842 94.0696C19.3828 93.8075 19.5244 93.593 19.5977 93.593C19.6709 93.593 20.0117 93.0787 20.3545 92.4502C20.6973 91.8218 21.0293 91.3071 21.0928 91.3065C21.2725 91.3049 23.1172 89.1477 23.126 88.928C23.1309 88.8202 23.5693 88.3032 24.1016 87.7791C24.6338 87.2549 25.2773 86.4828 25.5322 86.0635C25.7861 85.644 26.0254 85.3225 26.0625 85.3486C26.2451 85.4773 26.4473 85.3387 27.0352 84.6814C27.3857 84.2883 28.0342 83.589 28.4766 83.1273C28.918 82.6658 29.3213 82.0867 29.3721 81.8406C29.4658 81.3936 29.7334 81.287 30.5439 81.3734C31.0615 81.4285 31.4238 81.0447 31.1836 80.696C30.9541 80.3647 31.0371 80.2618 31.5732 80.2085C32.0195 80.1641 32.1768 79.6776 31.7461 79.6776C31.6074 79.6776 31.5244 79.5712 31.5605 79.441C31.5967 79.3108 31.5488 79.1101 31.4541 78.9946C31.3604 78.8793 31.1152 78.5194 30.9102 78.1947C30.5195 77.5768 29.707 77.1115 29.4062 77.3345C29.3096 77.4061 29.042 77.4475 28.8105 77.4263C28.5801 77.4052 28.3018 77.5168 28.1924 77.6749C28.083 77.8328 27.8984 77.962 27.7812 77.962C27.6641 77.962 27.4922 78.1335 27.3984 78.3433C27.3057 78.553 27.1426 78.7231 27.0361 78.7216C26.9023 78.7195 26.9092 78.6689 27.0586 78.5548C27.2109 78.4387 27.2217 78.3522 27.0967 78.2588C26.7949 78.0347 25.5244 79.1414 25.4678 79.6776C25.4297 80.0355 25.3184 80.1593 25.0205 80.1747C24.1748 80.219 24.0693 80.2584 24.0693 80.5294C24.0693 80.6833 23.9805 80.769 23.8711 80.7197C23.6445 80.6172 22.6426 81.6772 22.6406 82.0225C22.6396 82.1481 22.458 82.4226 22.2373 82.6322C22.0156 82.8419 21.6211 83.2495 21.3613 83.5377C21.1006 83.826 20.8145 84.0619 20.7266 84.0619C20.5713 84.0619 20.2793 84.402 19.4971 85.4932C19.2295 85.8662 19.1738 86.0682 19.2988 86.218C19.6523 86.6439 19.4961 86.9583 18.9961 86.8259C18.6025 86.7223 18.5371 86.7529 18.6172 87.0035C18.6904 87.2336 18.6455 87.2756 18.4326 87.1769C18.252 87.0938 18.1885 87.1202 18.2549 87.2502C18.3125 87.3619 18.2197 87.6553 18.0488 87.9022C17.8779 88.149 17.7354 88.2837 17.7324 88.2013C17.7295 88.1189 17.5869 88.1416 17.416 88.2518C17.2451 88.3619 17.1416 88.5684 17.1875 88.7108C17.2412 88.8793 17.1152 89.0054 16.8242 89.0723C16.5801 89.1289 16.3701 89.1613 16.3594 89.1443C16.3486 89.1273 16.2871 88.9097 16.2236 88.6606C16.1504 88.373 16.166 88.2512 16.2676 88.3265C16.415 88.4362 16.4229 88.2 16.3262 86.5876C16.3076 86.2883 16.1992 86.1588 15.9658 86.1588C15.7373 86.1588 15.6602 86.0706 15.7217 85.8783C15.7705 85.7241 15.707 85.4729 15.5801 85.3201C15.4512 85.165 15.3486 84.6888 15.3486 84.2428C15.3486 83.5537 15.3818 83.4761 15.5869 83.6807C15.7178 83.8113 15.8301 83.886 15.8379 83.8469C15.9111 83.4519 15.9111 82.9182 15.8379 82.918C15.7227 82.9177 15.7324 80.9712 15.8486 80.719C15.8945 80.6179 15.9219 79.8875 15.9092 79.0955C15.8926 78.087 15.8057 77.5171 15.6172 77.1943C15.4414 76.8929 15.3486 76.3599 15.3486 75.6543C15.3486 74.7031 15.3916 74.559 15.7051 74.4375C16.0303 74.3119 16.0361 74.2914 15.7617 74.2053C15.5205 74.1298 15.5049 74.078 15.6826 73.9453C15.8633 73.8101 15.8672 73.7094 15.7041 73.3929C15.5947 73.1801 15.5615 73.0059 15.6309 73.0059C15.7002 73.0059 15.7705 72.8556 15.7871 72.6722C15.8047 72.4888 15.8486 72.0457 15.8867 71.6873C15.9248 71.3291 15.8906 70.8309 15.8105 70.5803C15.7314 70.3296 15.7197 70.1646 15.7852 70.2134C15.8506 70.2622 15.8799 69.6665 15.8516 68.8899C15.8096 67.7451 15.8438 67.4778 16.0332 67.4778C16.3555 67.4778 16.4854 66.9789 16.2285 66.7229C15.916 66.4116 15.8096 65.7621 16.0713 65.7621C16.2412 65.7621 16.2861 65.3296 16.2803 63.7463C16.2744 62.0886 16.3213 61.6653 16.5488 61.3635C16.8057 61.0217 16.8066 60.9728 16.5625 60.6479C16.418 60.4562 16.2998 60.1559 16.2998 59.9807C16.2998 59.8055 16.2402 59.6622 16.167 59.6622C16.0938 59.6622 15.9482 59.4373 15.8447 59.1622C15.6641 58.6854 15.6738 58.6664 16.0625 58.7559C16.2861 58.8073 16.4346 58.8076 16.3926 58.7566C16.3496 58.7054 16.4189 58.5391 16.5459 58.387C16.8506 58.02 16.8369 57.756 16.5137 57.756C16.2773 57.756 16.2803 57.7177 16.5381 57.3748C16.7959 57.0319 16.7988 56.9935 16.5625 56.9935C16.2334 56.9935 16.2266 56.8137 16.5469 56.5323C16.7373 56.3654 16.7588 56.2034 16.6426 55.8341C16.5459 55.5286 16.5459 55.2346 16.6416 55.028C16.7246 54.8494 16.7441 54.6083 16.6846 54.4926C16.625 54.3768 16.6748 54.1993 16.7949 54.0983C16.9473 53.97 16.959 53.8873 16.832 53.8246C16.6328 53.7258 16.7148 53.1726 17.04 52.4237C17.2949 51.8369 17.3174 50.8936 17.0762 50.8936C16.9795 50.8936 16.9414 50.7649 16.9922 50.6077C17.042 50.4503 17.0137 50.3217 16.9297 50.3217C16.8447 50.3217 16.7754 50.236 16.7754 50.1311C16.7754 50.0262 16.8721 49.9404 16.9893 49.9404C17.1064 49.9404 17.3232 49.7791 17.4717 49.5819C17.7158 49.2582 17.7178 49.1946 17.4971 48.9282C17.3613 48.766 17.251 48.5415 17.251 48.4291C17.251 48.3168 17.1328 48.2249 16.9893 48.2249C16.75 48.2249 16.752 48.1919 17.0049 47.8558C17.2139 47.5781 17.2881 47.1193 17.3066 45.9972C17.3252 44.8427 17.3799 44.5203 17.5488 44.5636C17.71 44.6045 17.7363 44.5037 17.6504 44.1824C17.4707 43.5128 17.5146 42.8553 17.751 42.6749C17.9141 42.551 17.917 42.5114 17.7637 42.509C17.6289 42.5071 17.5947 42.3499 17.6621 42.0297C17.7217 41.7422 17.6934 41.5531 17.5908 41.5531C17.4971 41.5531 17.459 41.4297 17.5068 41.2792C17.5557 41.1272 17.7021 41.0548 17.8359 41.1163C18.0098 41.1967 18.0586 41.1271 18.0107 40.8661C17.9756 40.6672 17.8613 40.5261 17.7578 40.5522C17.6533 40.5786 17.5684 40.4713 17.5684 40.314C17.5684 40.1567 17.4971 40.0281 17.4102 40.0281C17.1748 40.0281 17.2178 39.6602 17.4902 39.3319C17.6221 39.1737 17.6943 38.9751 17.6514 38.8906C17.6074 38.806 17.6768 38.6329 17.8037 38.5057C18.0068 38.3035 18.0049 38.2383 17.793 37.9836C17.6602 37.8235 17.5732 37.4677 17.5996 37.1924C17.6387 36.783 17.7197 36.7023 18.0439 36.7484C18.335 36.7896 18.3818 36.7568 18.2188 36.6243C18.0303 36.4713 18.0361 36.3275 18.2549 35.6683C18.5566 34.7616 18.4629 34.245 18.0254 34.412C17.5537 34.5919 17.6475 33.766 18.165 33.1826C18.5615 32.7358 18.6055 32.5538 18.6289 31.2594C18.6436 30.4731 18.7061 29.5082 18.7676 29.115C18.8408 28.6426 18.8193 28.4001 18.7051 28.4001C18.6094 28.4001 18.4492 28.2156 18.3486 27.9899C18.1943 27.6426 18.2041 27.5975 18.417 27.6958C18.79 27.8679 18.8936 27.5011 18.6621 26.8286C18.5049 26.3721 18.501 26.2153 18.6475 26.1571C18.8838 26.0623 18.8994 25.5408 18.666 25.5408C18.5596 25.5408 18.5332 25.3309 18.5967 24.9835C18.6885 24.4777 18.6641 24.4348 18.3311 24.5175C18.0791 24.5801 18.1211 24.5214 18.4639 24.3293C18.8896 24.0917 18.9639 23.9479 18.9639 23.3605C18.9639 22.981 18.8584 22.5443 18.7305 22.39C18.6025 22.2357 18.5576 22.1096 18.6318 22.1096C18.8105 22.1096 18.6865 20.5538 18.4824 20.251C18.377 20.0941 18.377 20.0127 18.4805 20.0127C18.7734 20.0127 18.7744 17.9846 18.4824 17.4227C18.2363 16.9506 18.0811 15.6454 18.2607 15.5654C18.3916 15.5072 18.3877 15.4185 18.248 15.2395C18.0957 15.0453 18.1113 14.9445 18.3213 14.7598C18.5459 14.5623 18.5547 14.4784 18.376 14.2194C18.2588 14.0508 18.2168 13.9128 18.2822 13.9128C18.3467 13.9128 18.3086 13.7803 18.1963 13.618C18.085 13.4561 17.9014 13.3661 17.7891 13.418C17.6611 13.4771 17.6172 13.4092 17.6729 13.2358C17.7715 12.9252 18.2031 12.8556 18.2031 13.1503C18.2031 13.2551 18.2852 13.3409 18.3857 13.3409C18.4951 13.3409 18.4639 13.2008 18.3066 12.9923C18.1621 12.8005 18.0439 12.4574 18.0439 12.2297C18.0439 12.0022 17.9727 11.8159 17.8857 11.8159C17.7988 11.8159 17.7275 11.7155 17.7275 11.5928C17.7275 11.47 17.6094 11.2126 17.4648 11.0209C17.2178 10.6934 17.2227 10.6722 17.5439 10.6722C17.7314 10.6722 17.8916 10.6078 17.8984 10.5293C17.9062 10.4507 17.9443 10.1505 17.9834 9.86206C18.0225 9.57251 17.9814 9.33789 17.8906 9.33789C17.8008 9.33789 17.7275 9.20923 17.7275 9.05188C17.7275 8.89465 17.6201 8.76599 17.4893 8.76599C17.3584 8.76599 17.251 8.68018 17.251 8.57532C17.251 8.47046 17.3174 8.38477 17.3975 8.38477C17.4775 8.38477 17.5928 8.11218 17.6543 7.77917C17.7363 7.3291 17.6982 7.1156 17.5078 6.948C17.3672 6.82397 17.251 6.62476 17.251 6.50525C17.251 6.38562 17.1494 6.28784 17.0244 6.28784C16.874 6.28784 16.8018 6.0929 16.8105 5.71606C16.8184 5.40149 16.8828 5.14417 16.9551 5.14417C17.1191 5.14417 16.7764 4.19177 16.4785 3.81836C16.3271 3.62817 16.3135 3.51831 16.4365 3.46936C16.5654 3.41772 16.5674 3.29211 16.4453 3.01721C16.3525 2.80774 16.1787 2.68127 16.0605 2.73584C15.9424 2.79053 15.8203 2.74768 15.791 2.64075C15.7617 2.53381 15.5986 2.62964 15.4307 2.85364ZM16.5312 18.8558C16.5811 18.9534 16.5498 19.087 16.4609 19.153C16.373 19.2188 16.2998 19.1389 16.2998 18.9756C16.2998 18.6406 16.3955 18.5914 16.5312 18.8558ZM17.7881 20.3086C17.8418 20.4783 17.8154 20.5547 17.7256 20.4879C17.6387 20.4238 17.5684 20.2908 17.5684 20.1921C17.5684 19.918 17.6826 19.9784 17.7881 20.3086ZM18.5195 21.0844C18.5195 21.5092 18.4834 21.5483 18.2803 21.3452C18.0977 21.1631 18.083 21.0435 18.2197 20.8452C18.4736 20.4784 18.5195 20.5154 18.5195 21.0844ZM17.1719 21.1565C17.1182 21.2612 17.0068 21.347 16.9248 21.347C16.8428 21.347 16.7754 21.2612 16.7754 21.1565C16.7754 21.0516 16.8867 20.9658 17.0225 20.9658C17.1592 20.9658 17.2256 21.0516 17.1719 21.1565ZM18.0889 23.6891C18.1338 23.8318 18.0498 23.934 17.8857 23.934C17.7217 23.934 17.6367 23.8318 17.6826 23.6891C17.7256 23.5543 17.8174 23.444 17.8857 23.444C17.9541 23.444 18.0459 23.5543 18.0889 23.6891ZM15.7178 53.4512C15.7656 53.5999 15.7021 53.7687 15.5762 53.8265C15.4258 53.8959 15.3486 53.8042 15.3486 53.5564C15.3486 53.1226 15.5908 53.0535 15.7178 53.4512ZM14.3223 58.8629C14.2734 58.9216 14.1455 58.8632 14.0381 58.7328C13.8828 58.5444 13.9014 58.5227 14.127 58.626C14.2832 58.6976 14.3711 58.8042 14.3223 58.8629ZM15.666 60.2341C15.8506 60.3776 15.8037 60.4196 15.458 60.4219C15.2012 60.4236 15.0547 60.3441 15.1113 60.2341C15.2324 59.9973 15.3613 59.9973 15.666 60.2341ZM12.6533 81.8494C12.6533 81.8905 12.5469 81.9736 12.416 82.0341C12.2852 82.0942 12.1777 82.0605 12.1777 81.9591C12.1777 81.8575 12.2852 81.7744 12.416 81.7744C12.5469 81.7744 12.6533 81.8082 12.6533 81.8494ZM15.666 81.8585C15.666 81.9048 15.5947 81.9956 15.5078 82.0603C15.4199 82.1252 15.3486 82.0873 15.3486 81.9763C15.3486 81.8654 15.4199 81.7744 15.5078 81.7744C15.5947 81.7744 15.666 81.8121 15.666 81.8585Z" fill-rule="evenodd" fill="#6966FF"/>
</svg>
