<svg width="277.000000" height="24.000000" viewBox="0 0 277 24" fill="none" xmlns="http://www.w3.org/2000/svg" xmlns:xlink="http://www.w3.org/1999/xlink">
	<desc>
			Created with Pixso.
	</desc>
	<defs/>
	<path id="Group 2 (Traced)" d="M181.374 0.141968C181.298 0.209717 179.09 0.270752 176.47 0.278076C173.097 0.287354 171.703 0.400024 171.699 0.663574C171.695 0.937744 171.623 0.940308 171.427 0.673828C171.258 0.445068 170.225 0.34668 168.618 0.406494C165.648 0.516724 163.539 0.562012 162.9 0.529175C162.327 0.499756 150.102 0.854004 150.102 0.900024C150.102 0.918823 149.202 0.975464 148.104 1.02588C145.379 1.15112 145.457 1.1272 145.71 1.75452C145.882 2.18164 145.784 2.15356 145.295 1.63635C144.804 1.11658 144.359 0.991333 143.384 1.09802C142.685 1.17444 141.501 1.25171 140.752 1.2699C139.878 1.29102 139.39 1.45557 139.39 1.72839C139.39 2.23376 138.78 2.30054 138.596 1.81519C138.525 1.62866 137.98 1.4856 137.386 1.49707C133.752 1.56665 133.009 1.64111 132.77 1.95935C132.583 2.20654 132.501 2.19312 132.497 1.91431C132.493 1.63416 131.75 1.51501 130.011 1.51501C128.646 1.51501 127.425 1.60693 127.297 1.71936C127.169 1.83191 125.631 1.97302 123.878 2.03345C116.841 2.2749 115.429 2.39282 114.895 2.7832C114.588 3.00708 114.337 3.05981 114.337 2.90039C114.337 2.74072 114.028 2.61035 113.652 2.61035C113.243 2.61035 113.039 2.77588 113.146 3.02087C113.39 3.57861 113.058 3.53772 112.36 2.92444C111.842 2.46851 111.623 2.46497 110.205 2.89026C109.333 3.15149 108.416 3.2489 108.156 3.10779C107.897 2.96692 107.508 2.91064 107.29 2.98279C107.072 3.05469 105.995 3.17676 104.896 3.25378C100.674 3.55017 98.5225 3.76868 97.998 3.95496C97.6982 4.06104 96.6123 4.12073 95.584 4.08752C94.5557 4.05432 93.6201 4.16162 93.5049 4.32544C93.3896 4.48975 92.9014 4.55774 92.4199 4.47656C91.9395 4.39575 90.6045 4.50146 89.4551 4.71143C88.3047 4.92163 86.6113 5.14783 85.6914 5.21423C84.7715 5.28064 83.5293 5.40881 82.9297 5.4989C82.3311 5.58899 80.8604 5.74158 79.6621 5.83838C75.9102 6.14062 70.0264 6.91821 69.5527 7.17432C69.3848 7.26514 68.4043 7.38489 67.374 7.44019C65.0449 7.56543 64.1211 7.74622 62.7598 8.34351C62.1484 8.61194 61.6895 8.6748 61.6895 8.49023C61.6895 8.10754 58.6641 8.47803 58.4893 8.8822C58.4258 9.02722 58.1406 9.06677 57.8535 8.96997C57.5195 8.8573 57.332 9.00073 57.332 9.36841C57.332 9.91394 57.3076 9.91333 56.8428 9.35364C56.5234 8.96973 56.1816 8.85791 55.8604 9.03259C55.5898 9.17993 54.8711 9.3479 54.2627 9.40637C53.6543 9.46448 53.1055 9.64624 53.042 9.81018C52.9746 9.9856 52.5918 9.99609 52.1123 9.83569C51.3711 9.58789 48.3906 10.0558 46.8027 10.6694C46.5029 10.7852 46.0371 10.8474 45.7676 10.8081C45.4629 10.7634 45.3828 10.8855 45.5557 11.1315C45.7578 11.4202 45.6455 11.4579 45.1377 11.271C44.1299 10.9005 42.1484 11.0522 40.9658 11.5905C40.4014 11.847 39.4238 12.0569 38.7939 12.0569C38.1621 12.0569 36.3164 12.3418 34.6904 12.6901C33.0645 13.038 31.2852 13.4001 30.7363 13.4948C30.1436 13.5967 29.7373 13.8743 29.7373 14.1783C29.7373 14.6039 29.6426 14.6215 29.1777 14.2819C28.7529 13.972 28.5156 13.9628 28.1973 14.2426C27.9658 14.446 27.3916 14.6125 26.9209 14.6125C25.2881 14.6125 22.8389 15.3173 22.8389 15.7875C22.8389 16.0532 22.6631 16.1512 22.4209 16.02C22.1914 15.8951 21.7822 16.0577 21.5127 16.3816C21.2441 16.7058 21.0234 16.7994 21.0234 16.5902C21.0234 16.381 20.6152 16.2097 20.1162 16.2097C19.6162 16.2097 19.208 16.3689 19.208 16.5634C19.208 16.7579 18.9502 16.8298 18.6348 16.7234C17.6055 16.3759 16.3047 16.864 16.292 17.6019C16.2803 18.2725 16.2695 18.2737 15.7471 17.6661C15.2197 17.0521 15.2139 17.0521 15.209 17.6661C15.2041 18.1243 15.123 18.1757 14.8984 17.8633C14.6494 17.5179 14.334 17.5387 13.1787 17.9773C12.4014 18.2728 11.0293 18.7024 10.1309 18.9325C6.39453 19.8879 5.04883 20.5253 5.30957 21.2146C5.38672 21.4165 5.25195 21.689 5.01074 21.8203C4.73242 21.9717 4.66699 21.9241 4.83203 21.6899C5.65527 20.5176 2.93066 20.7872 1.71973 21.9976C1.36523 22.3525 1.06055 22.4573 0.982422 22.2512C0.910156 22.0582 0.617188 22.2826 0.333008 22.7495C-0.109375 23.4763 -0.110352 23.6385 0.325195 23.875C1.05957 24.2743 2.13867 23.661 2.16895 22.8271C2.19141 22.2075 2.22656 22.1918 2.45508 22.7023C2.76465 23.3933 3.21484 23.4552 3.64062 22.8655C3.84961 22.5752 3.94922 22.5604 3.95312 22.8196C3.95703 23.0952 4.2334 23.0739 4.95703 22.7416C5.50684 22.4895 6.24121 22.2825 6.59082 22.2812C6.94043 22.2803 7.22656 22.0682 7.22656 21.8101C7.22656 21.5244 7.43945 21.413 7.77051 21.5248C8.07031 21.6261 8.60156 21.6024 8.95117 21.4728C9.30078 21.3427 9.99219 21.1897 10.4883 21.1328C11.8086 20.9811 13.0869 20.3016 12.8916 19.855C12.7939 19.6305 12.9795 19.5021 13.333 19.5499C13.6689 19.5953 14.0547 19.4014 14.1904 19.119C14.4053 18.6724 14.4404 18.6794 14.4629 19.1724C14.4834 19.626 14.7227 19.7094 15.668 19.5908C18.8115 19.1967 21.7061 18.1632 21.4619 17.5231C21.3438 17.2129 21.4434 17.162 21.793 17.3544C22.4756 17.7288 23.2637 17.8118 23.7266 17.5575C23.9375 17.4415 24.4365 17.3297 24.8359 17.3093C25.4512 17.2773 28.083 16.7975 31.916 16.0181C32.415 15.9169 33.2324 15.7533 33.7314 15.6545C34.2305 15.5562 34.7598 15.3175 34.9062 15.1239C35.0879 14.8846 35.1748 14.9058 35.1787 15.1904C35.1816 15.4204 35.3613 15.5121 35.5791 15.3939C35.7959 15.276 35.8945 14.9127 35.7979 14.5873C35.6035 13.9333 36.1602 13.9061 36.9258 14.5326C37.5273 15.0239 38.0469 15.031 40.1064 14.5745C40.9941 14.3781 41.7197 14.0314 41.7197 13.8043C41.7197 13.3845 42.582 13.3484 43.0371 13.7487C43.1748 13.8694 43.5059 13.8077 43.7744 13.6123C44.1338 13.3494 44.2607 13.3533 44.2607 13.6263C44.2607 13.8794 44.4619 13.9017 44.8965 13.6969C45.6357 13.3494 47.4199 13.0347 49.6406 12.8612C50.5029 12.7936 51.4199 12.5842 51.6777 12.3955C51.9365 12.207 52.8652 11.9958 53.7412 11.9269C54.6182 11.8575 55.458 11.7866 55.6074 11.769C55.7568 11.7518 55.8916 11.486 55.9053 11.1783C55.9268 10.7209 55.9756 10.7062 56.1777 11.0985C56.4248 11.5774 58.0742 11.7122 59.1475 11.3409C59.9131 11.0765 62.9043 10.7245 65.6533 10.5752C66.9355 10.5056 68.1777 10.3073 68.4141 10.1344C68.6514 9.96155 69.2363 9.83289 69.7148 9.84851C71.1143 9.89392 77.4609 9.14917 77.6621 8.91602C77.7637 8.79846 78.2549 8.70459 78.7549 8.70679C79.2539 8.70935 79.9482 8.50745 80.2979 8.25793C80.7842 7.91138 80.9326 7.90051 80.9326 8.2113C80.9326 8.48572 81.1973 8.5448 81.75 8.39404C82.1992 8.271 83.0859 8.18604 83.7197 8.2052C84.3535 8.22437 84.9766 8.09216 85.1035 7.91162C85.2549 7.69507 85.5576 7.68835 85.9902 7.89185C86.3516 8.06177 86.7598 8.10144 86.8984 7.97974C87.0361 7.85828 87.834 7.71777 88.6709 7.66797C91.0752 7.52417 93.8057 7.31238 94.0039 7.25391C94.1035 7.22449 94.7168 7.22583 95.3652 7.25708C96.042 7.28967 96.5459 7.1593 96.5459 6.95142C96.5459 6.75171 96.709 6.67725 96.9092 6.78589C97.1084 6.89453 97.2715 6.83093 97.2715 6.64502C97.2715 6.45911 97.4453 6.30676 97.6562 6.30676C97.8682 6.30676 97.9404 6.45044 97.8164 6.62622C97.6934 6.80188 97.9287 6.94568 98.3398 6.94568C98.751 6.94568 99.0869 6.83704 99.0869 6.70447C99.0869 6.57153 100.19 6.44983 101.538 6.43384C102.886 6.4176 104.643 6.29712 105.441 6.16614C106.24 6.03552 107.271 5.94067 107.73 5.95569C108.249 5.97253 108.475 5.84998 108.322 5.63403C108.146 5.38293 108.287 5.38354 108.823 5.63586C109.675 6.03711 112.885 6.11597 112.885 5.73584C112.885 5.34705 114.428 5.33655 114.956 5.7218C115.268 5.94922 115.427 5.95435 115.427 5.73682C115.427 5.55603 115.753 5.48352 116.152 5.5752C116.552 5.66724 116.879 5.61768 116.879 5.46558C116.879 5.31323 118.021 5.20752 119.415 5.23083C121.217 5.26086 121.881 5.16821 121.705 4.91138C121.57 4.7124 121.735 4.74719 122.073 4.98804C122.412 5.22925 122.688 5.30115 122.688 5.14783C122.688 4.99475 123.78 4.86438 125.113 4.8584C126.729 4.85095 127.588 4.71326 127.689 4.44556C127.807 4.1377 127.961 4.13098 128.352 4.41589C128.632 4.62036 128.863 4.66223 128.866 4.50891C128.869 4.35583 129.021 4.43762 129.203 4.69128C129.469 5.06055 129.716 5.07971 130.444 4.78772C131.138 4.50977 131.396 4.51392 131.532 4.80591C131.647 5.05518 131.814 5.07715 132.01 4.86926C132.175 4.69348 133.045 4.54016 133.943 4.52869C134.843 4.51721 135.986 4.42737 136.485 4.32935C136.984 4.2312 137.594 4.29163 137.839 4.46387C138.131 4.66797 138.642 4.66736 139.312 4.46191C139.876 4.28906 141.045 4.20349 141.909 4.27185C142.773 4.34045 143.993 4.27185 144.621 4.11975C145.247 3.96741 146.105 3.9552 146.528 4.0929C147.185 4.30664 147.271 4.24207 147.124 3.64758C146.991 3.10999 147.035 3.05627 147.319 3.4115C147.772 3.97852 149.917 4.17151 149.925 3.64636C149.929 3.42981 150.079 3.47388 150.282 3.7511C150.477 4.01465 150.637 4.10474 150.641 3.95178C150.644 3.79846 150.876 3.84119 151.158 4.047C151.745 4.47534 152.304 3.98279 151.894 3.39844C151.757 3.20459 152.078 3.29529 152.606 3.59998C153.479 4.10278 154.278 4.13098 161.274 3.90381C165.514 3.76611 169.349 3.6604 169.799 3.6687C170.248 3.67664 170.615 3.55493 170.615 3.39783C170.615 3.2406 170.87 3.11218 171.182 3.11218C171.493 3.11218 171.655 3.24377 171.542 3.40454C171.247 3.82458 175.645 3.60669 176.134 3.17712C176.396 2.94678 176.757 2.92627 177.165 3.1189C177.511 3.28186 178.344 3.4198 179.016 3.42566C179.688 3.43164 180.932 3.47131 181.78 3.51379C182.947 3.57251 183.325 3.47449 183.329 3.11218C183.333 2.75793 183.409 2.73596 183.619 3.02759C183.922 3.44727 185.55 3.48242 195.669 3.28918C202.378 3.16077 201.812 3.16431 206.531 3.224C209.274 3.25879 210.354 3.16235 210.464 2.87268C210.548 2.6532 210.766 2.47327 210.948 2.47327C211.131 2.47327 211.24 2.6532 211.19 2.87268C211.08 3.35852 213.51 3.42981 213.908 2.95251C214.074 2.75317 214.177 2.7793 214.181 3.02283C214.184 3.26208 214.676 3.39587 215.457 3.37036C216.155 3.34705 216.728 3.21606 216.728 3.07874C216.728 2.94165 217.096 2.90869 217.545 3.00525C218.763 3.26746 225.694 3.20996 226.203 2.93359C226.481 2.78186 226.549 2.82788 226.387 3.05884C226.021 3.5802 228.819 3.37512 229.572 2.82532C230.07 2.46155 230.162 2.4679 230.162 2.86523C230.162 3.19788 230.53 3.32141 231.421 3.28723C232.113 3.26111 232.775 3.15564 232.892 3.05347C233.008 2.95093 233.705 2.98669 234.441 3.13293C235.178 3.27893 236.477 3.3147 237.328 3.21191C238.686 3.04834 238.881 2.92273 238.919 2.19031C238.961 1.38208 238.969 1.38586 239.192 2.30176C239.417 3.22278 239.487 3.25049 241.781 3.32471C243.079 3.36646 244.468 3.46143 244.867 3.53491C245.267 3.60864 245.762 3.55176 245.969 3.40869C246.367 3.13208 247.172 3.16492 247.771 3.48218C247.971 3.58789 248.625 3.6106 249.224 3.53259C249.823 3.45496 250.477 3.41248 250.676 3.43811C250.876 3.46362 252.673 3.53613 254.67 3.59875C256.667 3.66162 258.849 3.80261 259.518 3.91211C260.398 4.05652 260.924 3.96008 261.424 3.56238C261.874 3.20361 262.113 3.14954 262.113 3.40674C262.113 3.65918 262.554 3.76672 263.344 3.70667C264.021 3.65564 264.85 3.81506 265.187 4.06104C265.713 4.44556 265.847 4.44397 266.13 4.05017C266.358 3.73169 266.461 3.71338 266.465 3.99072C266.468 4.21045 266.809 4.39001 267.221 4.39001C267.817 4.39001 267.93 4.24243 267.77 3.67126C267.658 3.27612 267.66 3.13232 267.775 3.35181C267.89 3.57153 268.143 3.7511 268.338 3.7511C268.532 3.7511 268.586 3.57153 268.457 3.35181C268.328 3.13232 268.539 3.29333 268.925 3.71021C269.525 4.3584 269.659 4.39294 269.853 3.94983C270.131 3.31091 271.043 3.27063 271.311 3.88562C271.514 4.35168 272.14 4.3894 272.883 3.98083C273.405 3.69299 274.542 4.03992 274.931 4.60571C275.317 5.16943 277 5.15576 277 4.58875C277 3.91785 276.186 3.46521 274.612 3.26135C273.829 3.16016 272.697 2.9541 272.099 2.80396C271.499 2.65381 270.764 2.52954 270.465 2.52759C270.165 2.526 269.512 2.42737 269.012 2.30811C267.586 1.96826 264.283 1.51245 262.295 1.38074C261.297 1.3147 259.744 1.17188 258.846 1.06323C257.947 0.95459 254.516 0.792725 251.221 0.702881C247.926 0.613525 244.413 0.479004 243.414 0.404541C238.867 0.0646973 230.771 -0.0500488 230.203 0.217651C229.859 0.379639 229.38 0.404175 229.138 0.272949C228.896 0.141357 227.876 0.126343 226.871 0.239746C225.866 0.353149 224.971 0.341553 224.881 0.214111C224.718 -0.0180664 181.638 -0.0895996 181.374 0.141968ZM229.98 1.19556C230.104 1.37122 230.031 1.51501 229.82 1.51501C229.608 1.51501 229.436 1.37122 229.436 1.19556C229.436 1.01978 229.508 0.876099 229.596 0.876099C229.684 0.876099 229.856 1.01978 229.98 1.19556ZM247.953 2.15381C247.739 2.50525 247.504 2.79272 247.43 2.79272C247.355 2.79272 247.381 2.50525 247.484 2.15381C247.589 1.80249 247.825 1.51501 248.008 1.51501C248.192 1.51501 248.168 1.8009 247.953 2.15381ZM217.816 2.15381C217.816 2.32959 217.745 2.47327 217.656 2.47327C217.568 2.47327 217.396 2.32959 217.272 2.15381C217.148 1.97815 217.221 1.83447 217.433 1.83447C217.644 1.83447 217.816 1.97815 217.816 2.15381ZM164.08 2.65186C164.08 2.92566 163.917 3.06116 163.717 2.95251C163.518 2.84387 163.354 2.62 163.354 2.45447C163.354 2.28894 163.518 2.15381 163.717 2.15381C163.917 2.15381 164.08 2.37817 164.08 2.65186ZM272.821 4.39514C272.695 4.57373 272.44 4.63733 272.255 4.53601C272.069 4.43506 271.917 4.50476 271.917 4.69067C271.917 5.17908 272.481 5.1062 273.006 4.5498C273.255 4.28625 273.366 4.07056 273.253 4.07056C273.141 4.07056 272.946 4.21655 272.821 4.39514ZM101.266 5.34839C101.266 5.52405 101.194 5.66785 101.105 5.66785C101.018 5.66785 100.845 5.52405 100.722 5.34839C100.598 5.17273 100.67 5.02893 100.882 5.02893C101.093 5.02893 101.266 5.17273 101.266 5.34839ZM10.5605 20.1125C10.2998 20.3416 10.1309 20.3604 10.1309 20.1604C10.1309 19.7339 10.5605 19.3561 10.8027 19.5695C10.9062 19.6602 10.7969 19.9045 10.5605 20.1125Z" fill-rule="evenodd" fill="#6966FF"/>
</svg>
