<svg width="115.000000" height="24.000000" viewBox="0 0 115 24" fill="none" xmlns="http://www.w3.org/2000/svg" xmlns:xlink="http://www.w3.org/1999/xlink">
	<desc>
			Created with Pixso.
	</desc>
	<defs/>
	<path id="Group 2 (Traced)" d="M75.2998 0.141968C75.2676 0.209717 74.3516 0.270752 73.2637 0.278076C71.8633 0.287354 71.2852 0.400024 71.2832 0.663574C71.2812 0.937744 71.252 0.940308 71.1699 0.673828C71.0996 0.445068 70.6709 0.34668 70.0039 0.406494C68.7715 0.516724 67.8955 0.562012 67.6299 0.529175C67.3916 0.499756 62.3164 0.854004 62.3164 0.900024C62.3164 0.918823 61.9434 0.975464 61.4873 1.02588C60.3555 1.15112 60.3887 1.1272 60.4932 1.75452C60.5645 2.18164 60.5244 2.15356 60.3213 1.63635C60.1172 1.11658 59.9326 0.991333 59.5273 1.09802C59.2373 1.17444 58.7461 1.25171 58.4346 1.2699C58.0723 1.29102 57.8691 1.45557 57.8691 1.72839C57.8691 2.23376 57.6162 2.30054 57.54 1.81519C57.5107 1.62866 57.2842 1.4856 57.0371 1.49707C55.5283 1.56665 55.2207 1.64111 55.1211 1.95935C55.043 2.20654 55.0098 2.19312 55.0078 1.91431C55.0059 1.63416 54.6973 1.51501 53.9756 1.51501C53.4092 1.51501 52.9023 1.60693 52.8486 1.71936C52.7959 1.83191 52.1572 1.97302 51.4297 2.03345C48.5078 2.2749 47.9219 2.39282 47.7002 2.7832C47.5723 3.00708 47.4688 3.05981 47.4688 2.90039C47.4688 2.74072 47.3408 2.61035 47.1846 2.61035C47.0146 2.61035 46.9297 2.77588 46.9746 3.02087C47.0752 3.57861 46.9375 3.53772 46.6475 2.92444C46.4326 2.46851 46.3418 2.46497 45.7529 2.89026C45.3906 3.15149 45.0098 3.2489 44.9023 3.10779C44.7949 2.96692 44.6328 2.91064 44.543 2.98279C44.4521 3.05469 44.0049 3.17676 43.5488 3.25378C41.7959 3.55017 40.9023 3.76868 40.6855 3.95496C40.5605 4.06104 40.1094 4.12073 39.6826 4.08752C39.2559 4.05432 38.8672 4.16162 38.8193 4.32544C38.7715 4.48975 38.5693 4.55774 38.3691 4.47656C38.1699 4.39575 37.6162 4.50146 37.1387 4.71143C36.6611 4.92163 35.958 5.14783 35.5762 5.21423C35.1943 5.28064 34.6777 5.40881 34.4297 5.4989C34.1807 5.58899 33.5703 5.74158 33.0732 5.83838C31.5146 6.14062 29.0723 6.91821 28.876 7.17432C28.8057 7.26514 28.3984 7.38489 27.9717 7.44019C27.0039 7.56543 26.6211 7.74622 26.0557 8.34351C25.8018 8.61194 25.6113 8.6748 25.6113 8.49023C25.6113 8.10754 24.3555 8.47803 24.2822 8.8822C24.2559 9.02722 24.1377 9.06677 24.0186 8.96997C23.8799 8.8573 23.8018 9.00073 23.8018 9.36841C23.8018 9.91394 23.792 9.91333 23.5986 9.35364C23.4668 8.96973 23.3242 8.85791 23.1914 9.03259C23.0791 9.17993 22.7803 9.3479 22.5273 9.40637C22.2754 9.46448 22.0469 9.64624 22.0205 9.81018C21.9932 9.9856 21.834 9.99609 21.6348 9.83569C21.3271 9.58789 20.0898 10.0558 19.4307 10.6694C19.3066 10.7852 19.1133 10.8474 19.001 10.8081C18.874 10.7634 18.8408 10.8855 18.9131 11.1315C18.9971 11.4202 18.9502 11.4579 18.7393 11.271C18.3213 10.9005 17.498 11.0522 17.0078 11.5905C16.7734 11.847 16.3672 12.0569 16.1055 12.0569C15.8438 12.0569 15.0771 12.3418 14.4023 12.6901C13.7275 13.038 12.9883 13.4001 12.7607 13.4948C12.5146 13.5967 12.3457 13.8743 12.3457 14.1783C12.3457 14.6039 12.3066 14.6215 12.1133 14.2819C11.9375 13.972 11.8389 13.9628 11.707 14.2426C11.6104 14.446 11.3721 14.6125 11.1768 14.6125C10.498 14.6125 9.48145 15.3173 9.48145 15.7875C9.48145 16.0532 9.4082 16.1512 9.30859 16.02C9.21289 15.8951 9.04297 16.0577 8.93164 16.3816C8.81934 16.7058 8.72852 16.7994 8.72852 16.5902C8.72852 16.381 8.55859 16.2097 8.35156 16.2097C8.14453 16.2097 7.97461 16.3689 7.97461 16.5634C7.97461 16.7579 7.86719 16.8298 7.73633 16.7234C7.30957 16.3759 6.76953 16.864 6.76367 17.6019C6.75879 18.2725 6.75488 18.2737 6.53809 17.6661C6.31836 17.0521 6.31641 17.0521 6.31445 17.6661C6.3125 18.1243 6.27832 18.1757 6.18555 17.8633C6.08203 17.5179 5.95117 17.5387 5.47168 17.9773C5.14844 18.2728 4.5791 18.7024 4.20605 18.9325C2.65527 19.8879 2.0957 20.5253 2.2041 21.2146C2.23633 21.4165 2.18066 21.689 2.08008 21.8203C1.96484 21.9717 1.9375 21.9241 2.00586 21.6899C2.34766 20.5176 1.2168 20.7872 0.713867 21.9976C0.566406 22.3525 0.44043 22.4573 0.408203 22.2512C0.37793 22.0582 0.255859 22.2826 0.138672 22.7495C-0.0449219 23.4763 -0.0458984 23.6385 0.134766 23.875C0.439453 24.2743 0.887695 23.661 0.900391 22.8271C0.90918 22.2075 0.924805 22.1918 1.01953 22.7023C1.14746 23.3933 1.33496 23.4552 1.51172 22.8655C1.59766 22.5752 1.63965 22.5604 1.6416 22.8196C1.64258 23.0952 1.75781 23.0739 2.05762 22.7416C2.28613 22.4895 2.59082 22.2825 2.73633 22.2812C2.88086 22.2803 3 22.0682 3 21.8101C3 21.5244 3.08887 21.413 3.22656 21.5248C3.35059 21.6261 3.57129 21.6024 3.71582 21.4728C3.86133 21.3427 4.14844 21.1897 4.35449 21.1328C4.90234 20.9811 5.43359 20.3016 5.35254 19.855C5.31152 19.6305 5.38867 19.5021 5.53516 19.5499C5.6748 19.5953 5.83496 19.4014 5.8916 19.119C5.98047 18.6724 5.99512 18.6794 6.00391 19.1724C6.0127 19.626 6.1123 19.7094 6.50488 19.5908C7.80957 19.1967 9.01172 18.1632 8.91016 17.5231C8.86133 17.2129 8.90234 17.162 9.04785 17.3544C9.33105 17.7288 9.6582 17.8118 9.85059 17.5575C9.9375 17.4415 10.1455 17.3297 10.3105 17.3093C10.5664 17.2773 11.6592 16.7975 13.25 16.0181C13.458 15.9169 13.7969 15.7533 14.0039 15.6545C14.2109 15.5562 14.4307 15.3175 14.4922 15.1239C14.5674 14.8846 14.6035 14.9058 14.6045 15.1904C14.6064 15.4204 14.6807 15.5121 14.7705 15.3939C14.8613 15.276 14.9023 14.9127 14.8623 14.5873C14.7812 13.9333 15.0117 13.9061 15.3301 14.5326C15.5801 15.0239 15.7959 15.031 16.6504 14.5745C17.0195 14.3781 17.3203 14.0314 17.3203 13.8043C17.3203 13.3845 17.6787 13.3484 17.8672 13.7487C17.9248 13.8694 18.0625 13.8077 18.1729 13.6123C18.3223 13.3494 18.376 13.3533 18.376 13.6263C18.376 13.8794 18.459 13.9017 18.6396 13.6969C18.9463 13.3494 19.6865 13.0347 20.6094 12.8612C20.9668 12.7936 21.3477 12.5842 21.4551 12.3955C21.5625 12.207 21.9473 11.9958 22.3115 11.9269C22.6758 11.8575 23.0244 11.7866 23.0859 11.769C23.1484 11.7518 23.2041 11.486 23.21 11.1783C23.2188 10.7209 23.2393 10.7062 23.3232 11.0985C23.4258 11.5774 24.1104 11.7122 24.5557 11.3409C24.874 11.0765 26.1152 10.7245 27.2568 10.5752C27.7891 10.5056 28.3047 10.3073 28.4033 10.1344C28.501 9.96155 28.7441 9.83289 28.9434 9.84851C29.5244 9.89392 32.1582 9.14917 32.2422 8.91602C32.2842 8.79846 32.4883 8.70459 32.6963 8.70679C32.9033 8.70935 33.1914 8.50745 33.3369 8.25793C33.5381 7.91138 33.6006 7.90051 33.6006 8.2113C33.6006 8.48572 33.71 8.5448 33.9395 8.39404C34.126 8.271 34.4941 8.18604 34.7568 8.2052C35.0205 8.22437 35.2793 8.09216 35.332 7.91162C35.3945 7.69507 35.5205 7.68835 35.7002 7.89185C35.8496 8.06177 36.0195 8.10144 36.0771 7.97974C36.1348 7.85828 36.4658 7.71777 36.8125 7.66797C37.8105 7.52417 38.9443 7.31238 39.0273 7.25391C39.0684 7.22449 39.3223 7.22583 39.5918 7.25708C39.873 7.28967 40.082 7.1593 40.082 6.95142C40.082 6.75171 40.1504 6.67725 40.2324 6.78589C40.3154 6.89453 40.3838 6.83093 40.3838 6.64502C40.3838 6.45911 40.4551 6.30676 40.543 6.30676C40.6309 6.30676 40.6611 6.45044 40.6094 6.62622C40.5586 6.80188 40.6562 6.94568 40.8271 6.94568C40.998 6.94568 41.1377 6.83704 41.1377 6.70447C41.1377 6.57153 41.5957 6.44983 42.1553 6.43384C42.7148 6.4176 43.4434 6.29712 43.7754 6.16614C44.1074 6.03552 44.5342 5.94067 44.7256 5.95569C44.9404 5.97253 45.0342 5.84998 44.9717 5.63403C44.8984 5.38293 44.957 5.38354 45.1797 5.63586C45.5332 6.03711 46.8652 6.11597 46.8652 5.73584C46.8652 5.34705 47.5059 5.33655 47.7256 5.7218C47.8545 5.94922 47.9209 5.95435 47.9209 5.73682C47.9209 5.55603 48.0566 5.48352 48.2217 5.5752C48.3877 5.66724 48.5234 5.61768 48.5234 5.46558C48.5234 5.31323 48.9971 5.20752 49.5771 5.23083C50.3242 5.26086 50.6006 5.16821 50.5273 4.91138C50.4717 4.7124 50.54 4.74719 50.6807 4.98804C50.8203 5.22925 50.9355 5.30115 50.9355 5.14783C50.9355 4.99475 51.3887 4.86438 51.9424 4.8584C52.6133 4.85095 52.9697 4.71326 53.0117 4.44556C53.0605 4.1377 53.124 4.13098 53.2861 4.41589C53.4033 4.62036 53.499 4.66223 53.5 4.50891C53.502 4.35583 53.5645 4.43762 53.6406 4.69128C53.751 5.06055 53.8535 5.07971 54.1553 4.78772C54.4434 4.50977 54.5508 4.51392 54.6074 4.80591C54.6553 5.05518 54.7246 5.07715 54.8057 4.86926C54.874 4.69348 55.2354 4.54016 55.6084 4.52869C55.9814 4.51721 56.4561 4.42737 56.6641 4.32935C56.8711 4.2312 57.124 4.29163 57.2256 4.46387C57.3467 4.66797 57.5586 4.66736 57.8369 4.46191C58.0713 4.28906 58.5566 4.20349 58.915 4.27185C59.2744 4.34045 59.7803 4.27185 60.041 4.11975C60.3008 3.96741 60.6572 3.9552 60.833 4.0929C61.1055 4.30664 61.1416 4.24207 61.0801 3.64758C61.0254 3.10999 61.0439 3.05627 61.1611 3.4115C61.3496 3.97852 62.2402 4.17151 62.2432 3.64636C62.2441 3.42981 62.3076 3.47388 62.3916 3.7511C62.4717 4.01465 62.5391 4.10474 62.54 3.95178C62.541 3.79846 62.6377 3.84119 62.7549 4.047C62.999 4.47534 63.2305 3.98279 63.0605 3.39844C63.0039 3.20459 63.1367 3.29529 63.3564 3.59998C63.7188 4.10278 64.0508 4.13098 66.9551 3.90381C68.7148 3.76611 70.3076 3.6604 70.4941 3.6687C70.6807 3.67664 70.833 3.55493 70.833 3.39783C70.833 3.2406 70.9395 3.11218 71.0684 3.11218C71.1973 3.11218 71.2646 3.24377 71.2178 3.40454C71.0957 3.82458 72.9209 3.60669 73.124 3.17712C73.2324 2.94678 73.3828 2.92627 73.5527 3.1189C73.6963 3.28186 74.042 3.4198 74.3203 3.42566C74.5996 3.43164 75.1162 3.47131 75.4688 3.51379C75.9531 3.57251 76.1094 3.47449 76.1113 3.11218C76.1133 2.75793 76.1445 2.73596 76.2314 3.02759C76.3574 3.44727 77.0332 3.48242 81.2344 3.28918C84.0195 3.16077 83.7852 3.16431 85.7441 3.224C86.8828 3.25879 87.3311 3.16235 87.377 2.87268C87.4111 2.6532 87.502 2.47327 87.5781 2.47327C87.6533 2.47327 87.6992 2.6532 87.6787 2.87268C87.6328 3.35852 88.6416 3.42981 88.8066 2.95251C88.876 2.75317 88.918 2.7793 88.9199 3.02283C88.9209 3.26208 89.125 3.39587 89.4492 3.37036C89.7393 3.34705 89.9775 3.21606 89.9775 3.07874C89.9775 2.94165 90.1299 2.90869 90.3164 3.00525C90.8223 3.26746 93.7002 3.20996 93.9111 2.93359C94.0264 2.78186 94.0547 2.82788 93.9873 3.05884C93.835 3.5802 94.9971 3.37512 95.3096 2.82532C95.5166 2.46155 95.5547 2.4679 95.5547 2.86523C95.5547 3.19788 95.707 3.32141 96.0771 3.28723C96.3652 3.26111 96.6396 3.15564 96.6875 3.05347C96.7363 2.95093 97.0254 2.98669 97.3311 3.13293C97.6367 3.27893 98.1768 3.3147 98.5303 3.21191C99.0938 3.04834 99.1748 2.92273 99.1904 2.19031C99.207 1.38208 99.2109 1.38586 99.3037 2.30176C99.3965 3.22278 99.4268 3.25049 100.379 3.32471C100.917 3.36646 101.494 3.46143 101.659 3.53491C101.825 3.60864 102.031 3.55176 102.117 3.40869C102.282 3.13208 102.616 3.16492 102.865 3.48218C102.948 3.58789 103.22 3.6106 103.469 3.53259C103.717 3.45496 103.988 3.41248 104.071 3.43811C104.154 3.46362 104.9 3.53613 105.729 3.59875C106.559 3.66162 107.464 3.80261 107.742 3.91211C108.107 4.05652 108.326 3.96008 108.533 3.56238C108.721 3.20361 108.819 3.14954 108.819 3.40674C108.819 3.65918 109.003 3.76672 109.33 3.70667C109.611 3.65564 109.956 3.81506 110.096 4.06104C110.314 4.44556 110.369 4.44397 110.487 4.05017C110.582 3.73169 110.625 3.71338 110.626 3.99072C110.628 4.21045 110.769 4.39001 110.94 4.39001C111.188 4.39001 111.234 4.24243 111.168 3.67126C111.121 3.27612 111.122 3.13232 111.17 3.35181C111.218 3.57153 111.323 3.7511 111.403 3.7511C111.484 3.7511 111.507 3.57153 111.453 3.35181C111.399 3.13232 111.487 3.29333 111.647 3.71021C111.896 4.3584 111.952 4.39294 112.032 3.94983C112.148 3.31091 112.526 3.27063 112.638 3.88562C112.723 4.35168 112.982 4.3894 113.291 3.98083C113.508 3.69299 113.979 4.03992 114.141 4.60571C114.302 5.16943 115 5.15576 115 4.58875C115 3.91785 114.662 3.46521 114.009 3.26135C113.684 3.16016 113.214 2.9541 112.965 2.80396C112.716 2.65381 112.411 2.52954 112.287 2.52759C112.162 2.526 111.891 2.42737 111.684 2.30811C111.092 1.96826 109.721 1.51245 108.896 1.38074C108.48 1.3147 107.836 1.17188 107.463 1.06323C107.09 0.95459 105.665 0.792725 104.298 0.702881C102.93 0.613525 101.471 0.479004 101.057 0.404541C99.1689 0.0646973 95.8076 -0.0500488 95.5713 0.217651C95.4287 0.379639 95.2305 0.404175 95.1299 0.272949C95.0293 0.141357 94.6055 0.126343 94.1885 0.239746C93.7715 0.353149 93.3994 0.341553 93.3623 0.214111C93.2939 -0.0180664 75.4092 -0.0895996 75.2998 0.141968ZM95.4795 1.19556C95.5303 1.37122 95.5 1.51501 95.4131 1.51501C95.3252 1.51501 95.2529 1.37122 95.2529 1.19556C95.2529 1.01978 95.2832 0.876099 95.3193 0.876099C95.3564 0.876099 95.4277 1.01978 95.4795 1.19556ZM102.94 2.15381C102.852 2.50525 102.754 2.79272 102.724 2.79272C102.692 2.79272 102.703 2.50525 102.746 2.15381C102.79 1.80249 102.888 1.51501 102.964 1.51501C103.04 1.51501 103.03 1.8009 102.94 2.15381ZM90.4297 2.15381C90.4297 2.32959 90.3994 2.47327 90.3633 2.47327C90.3262 2.47327 90.2549 2.32959 90.2031 2.15381C90.1523 1.97815 90.1816 1.83447 90.2695 1.83447C90.3574 1.83447 90.4297 1.97815 90.4297 2.15381ZM68.1201 2.65186C68.1201 2.92566 68.0518 3.06116 67.9688 2.95251C67.8857 2.84387 67.8184 2.62 67.8184 2.45447C67.8184 2.28894 67.8857 2.15381 67.9688 2.15381C68.0518 2.15381 68.1201 2.37817 68.1201 2.65186ZM113.265 4.39514C113.213 4.57373 113.107 4.63733 113.03 4.53601C112.953 4.43506 112.89 4.50476 112.89 4.69067C112.89 5.17908 113.124 5.1062 113.342 4.5498C113.445 4.28625 113.491 4.07056 113.444 4.07056C113.397 4.07056 113.317 4.21655 113.265 4.39514ZM42.042 5.34839C42.042 5.52405 42.0117 5.66785 41.9756 5.66785C41.9385 5.66785 41.8672 5.52405 41.8154 5.34839C41.7646 5.17273 41.7949 5.02893 41.8818 5.02893C41.9697 5.02893 42.042 5.17273 42.042 5.34839ZM4.38477 20.1125C4.27637 20.3416 4.20605 20.3604 4.20605 20.1604C4.20605 19.7339 4.38477 19.3561 4.48535 19.5695C4.52734 19.6602 4.48242 19.9045 4.38477 20.1125Z" fill-rule="evenodd" fill="#6966FF"/>
</svg>
