<svg width="16.000000" height="16.000000" viewBox="0 0 16 16" fill="none" xmlns="http://www.w3.org/2000/svg" xmlns:xlink="http://www.w3.org/1999/xlink">
	<desc>
			Created with Pixso.
	</desc>
	<defs>
		<clipPath id="clip3_1903">
			<rect id="fi:external-link" width="16.000000" height="16.000000" fill="white"/>
		</clipPath>
	</defs>
	<g clip-path="url(#clip3_1903)">
		<path id="Vector" d="M12 8.66675L12 12.6667C12 13.0203 11.8594 13.3594 11.6094 13.6094C11.3594 13.8596 11.0205 14 10.667 14L3.33301 14C2.97949 14 2.64062 13.8596 2.39062 13.6094C2.14062 13.3594 2 13.0203 2 12.6667L2 5.33325C2 4.97974 2.14062 4.64062 2.39062 4.39062C2.64062 4.14038 2.97949 4 3.33301 4L7.33301 4" stroke="#C8C7D8" stroke-width="2.000000" stroke-linejoin="round" stroke-linecap="round"/>
		<path id="Vector" d="M10 2L14 2L14 6" stroke="#C8C7D8" stroke-width="2.000000" stroke-linejoin="round" stroke-linecap="round"/>
		<path id="Vector" d="M6.66699 9.33325L14 2" stroke="#C8C7D8" stroke-width="2.000000" stroke-linejoin="round" stroke-linecap="round"/>
	</g>
</svg>
