<svg width="60.000000" height="60.000000" viewBox="0 0 60 60" fill="none" xmlns="http://www.w3.org/2000/svg" xmlns:xlink="http://www.w3.org/1999/xlink">
	<desc>
			Created with Pixso.
	</desc>
	<defs>
		<linearGradient id="paint_linear_3_1881_0" x1="40.898460" y1="45.052773" x2="28.073721" y2="27.485588" gradientUnits="userSpaceOnUse">
			<stop stop-color="#6966FF"/>
			<stop offset="1.000000" stop-color="#6966FF" stop-opacity="0.360784"/>
		</linearGradient>
	</defs>
	<path id="Vector (Stroke) (Stroke)" d="M38.2373 12.0527L46.1357 12.0527L20.7061 47.6689L12.9385 47.6689L38.2373 12.0527ZM28.959 22.5476L21.5146 12.0527L13.5859 12.0527L25.0752 28.2722L28.959 22.5476ZM27.0117 22.5679L25.0469 25.4641L16.6797 13.6528L20.6885 13.6528L27.0117 22.5679ZM16.0371 46.0691L19.8818 46.0691L43.0273 13.6528L39.0635 13.6528L16.0371 46.0691Z" fill-rule="evenodd" fill="#FFFFFF"/>
	<path id="Vector (Stroke) (Stroke)" d="M39.9727 46.1572L43.8145 46.1572L34.8018 33.3591L32.8066 36.2083L39.9727 46.1572ZM30.8447 36.2214L39.1533 47.7573L46.8975 47.7573L34.7979 30.5747L30.8447 36.2214Z" fill-rule="evenodd" fill="url(#paint_linear_3_1881_0)"/>
	<path id="innergrid" d="" fill-rule="nonzero" fill="#55555E" fill-opacity="1.000000"/>
	<path id="outergrid" d="M29.8896 0.523926L29.9463 0.523926C30.1836 0.52417 30.375 0.716309 30.375 0.952881C30.375 1.1897 30.1826 1.38135 29.9463 1.3811L29.8906 1.3811C29.6533 1.38135 29.4619 1.1897 29.4609 0.952881C29.4609 0.716309 29.6523 0.52417 29.8896 0.523926ZM25.8389 1.23438C25.875 1.46826 25.7148 1.6875 25.4814 1.72388L25.4268 1.73267C25.1924 1.76953 24.9736 1.61011 24.9365 1.37622C24.8994 1.14233 25.0586 0.922852 25.293 0.885986L25.3486 0.877197C25.583 0.840576 25.8018 1.00049 25.8389 1.23438ZM33.9971 1.23438C34.0342 1.00049 34.2529 0.840576 34.4873 0.877197L34.5439 0.885986C34.7773 0.922852 34.9365 1.14233 34.8994 1.37622C34.8633 1.61011 34.6436 1.76953 34.4092 1.73267L34.3545 1.72388C34.1211 1.6875 33.9609 1.46826 33.9971 1.23438ZM38.4336 2.22168C38.5059 1.99658 38.748 1.87305 38.9736 1.9458L39.0273 1.96362C39.2529 2.03687 39.376 2.27881 39.3018 2.50366C39.2285 2.72876 38.9873 2.85181 38.7617 2.77856L38.709 2.76147C38.4844 2.68848 38.3604 2.44678 38.4336 2.22168ZM21.4023 2.22168C21.4756 2.44678 21.3516 2.68848 21.127 2.76147L21.0742 2.77856C20.8486 2.85181 20.6074 2.72876 20.5342 2.50366C20.4609 2.27881 20.584 2.03687 20.8086 1.96362L20.8633 1.9458C21.0879 1.87305 21.3301 1.99658 21.4023 2.22168ZM42.6582 3.89551C42.7656 3.68457 43.0234 3.60059 43.2344 3.70801L43.2852 3.73389C43.4961 3.8418 43.5791 4.09985 43.4717 4.31079C43.3633 4.52148 43.1055 4.60474 42.8945 4.49683L42.8457 4.47168C42.6348 4.36426 42.5508 4.1062 42.6582 3.89551ZM17.1777 3.89551C17.2852 4.1062 17.2012 4.36426 16.9902 4.47168L16.9414 4.49683C16.7305 4.60474 16.4727 4.52148 16.3643 4.31079C16.2568 4.09985 16.3398 3.8418 16.5508 3.73389L16.6016 3.70801C16.8125 3.60059 17.0703 3.68457 17.1777 3.89551ZM13.2686 6.21167C13.4082 6.40332 13.3652 6.67114 13.1738 6.8103L13.1289 6.84277C12.9375 6.98242 12.6699 6.94043 12.5303 6.74902C12.3906 6.55786 12.4326 6.28979 12.624 6.15039L12.6699 6.1167C12.8613 5.97778 13.1299 6.02026 13.2686 6.21167ZM46.5674 6.21167C46.7061 6.02026 46.9746 5.97778 47.166 6.1167L47.2119 6.15039C47.4033 6.28979 47.4453 6.55786 47.3057 6.74902C47.166 6.94043 46.8984 6.98242 46.707 6.84277L46.6621 6.8103C46.4707 6.67114 46.4287 6.40332 46.5674 6.21167ZM9.76855 9.10986C9.93555 9.27734 9.93555 9.54883 9.76855 9.71582L9.72949 9.75513C9.56152 9.92261 9.29102 9.92285 9.12305 9.75562C8.95508 9.58838 8.95508 9.31714 9.12207 9.14966L9.16309 9.10938C9.33008 8.94214 9.60156 8.94238 9.76855 9.10986ZM50.0674 9.10986C50.2344 8.94238 50.5059 8.94214 50.6738 9.10938L50.7139 9.14966C50.8809 9.31714 50.8809 9.58838 50.7129 9.75562C50.5459 9.92285 50.2744 9.92261 50.1074 9.75513L50.0674 9.71582C49.9004 9.54883 49.9004 9.27734 50.0674 9.10986ZM6.7627 12.5171C6.95312 12.6567 6.99512 12.9248 6.85645 13.116L6.82324 13.1606C6.68457 13.3523 6.41602 13.3948 6.22461 13.2556C6.0332 13.1165 5.99121 12.8484 6.12988 12.657L6.16309 12.6108C6.30273 12.4197 6.57129 12.3777 6.7627 12.5171ZM53.0742 12.5171C53.2646 12.3777 53.5332 12.4197 53.6729 12.6108L53.7061 12.657C53.8447 12.8484 53.8027 13.1165 53.6113 13.2556C53.4199 13.3948 53.1514 13.3523 53.0127 13.1606L52.9805 13.116C52.8408 12.9248 52.8828 12.6567 53.0742 12.5171ZM55.5127 16.3513C55.7227 16.2437 55.9814 16.3269 56.0889 16.5376L56.1152 16.5884C56.2227 16.7993 56.1387 17.0574 55.9277 17.1648C55.7168 17.2722 55.459 17.1882 55.3516 16.9773L55.3262 16.9282C55.2178 16.7175 55.3018 16.4592 55.5127 16.3513ZM4.32422 16.3513C4.53418 16.4592 4.61816 16.7175 4.50977 16.9282L4.48535 16.9775C4.37793 17.1882 4.11914 17.2722 3.9082 17.1648C3.69727 17.0574 3.61328 16.7993 3.7207 16.5884L3.74707 16.5376C3.85449 16.3269 4.11328 16.2437 4.32422 16.3513ZM2.5166 20.5208C2.74219 20.594 2.86523 20.8359 2.79199 21.061L2.77441 21.1138C2.70215 21.3389 2.45996 21.4624 2.23438 21.3894C2.00977 21.3167 1.88574 21.075 1.95898 20.8499L1.97656 20.7954C2.0498 20.5703 2.29199 20.4475 2.5166 20.5208ZM57.3193 20.5208C57.5439 20.4475 57.7861 20.5703 57.8594 20.7954L57.877 20.8499C57.9502 21.075 57.8262 21.3167 57.6016 21.3894C57.376 21.4624 57.1348 21.3389 57.0615 21.1138L57.0439 21.061C56.9707 20.8359 57.0938 20.594 57.3193 20.5208ZM1.38965 24.9231C1.62305 24.96 1.7832 25.1794 1.74609 25.4133L1.7373 25.4683C1.7002 25.7021 1.48145 25.8621 1.24805 25.8254C1.01367 25.7891 0.853516 25.5698 0.890625 25.3359L0.899414 25.2795C0.936523 25.0457 1.15527 24.886 1.38965 24.9231ZM58.4463 24.9231C58.6807 24.886 58.9004 25.0457 58.9365 25.2795L58.9463 25.3359C58.9824 25.5698 58.8223 25.7891 58.5889 25.8254C58.3545 25.8621 58.1357 25.7021 58.0986 25.4683L58.0898 25.4133C58.0537 25.1794 58.2129 24.96 58.4463 24.9231ZM0.96582 29.448C1.20312 29.4482 1.39453 29.6404 1.39453 29.877L1.39453 29.9326C1.39453 30.1694 1.20312 30.3613 0.96582 30.3616C0.729492 30.3618 0.537109 30.1702 0.537109 29.9336L0.537109 29.8762C0.537109 29.6396 0.729492 29.4478 0.96582 29.448ZM58.8701 29.448C59.1064 29.4478 59.2988 29.6396 59.2988 29.8762L59.2988 29.9336C59.2988 30.1702 59.1064 30.3618 58.8701 30.3616C58.6338 30.3613 58.4414 30.1694 58.4414 29.9326L58.4414 29.877C58.4414 29.6404 58.6338 29.4482 58.8701 29.448ZM1.24805 33.9841C1.48145 33.9478 1.7002 34.1077 1.7373 34.3416L1.74609 34.3965C1.7832 34.6301 1.62305 34.8496 1.38965 34.8867C1.15527 34.9236 0.936523 34.7642 0.899414 34.5303L0.890625 34.4739C0.853516 34.24 1.01367 34.0208 1.24805 33.9841ZM58.5889 33.9841C58.8223 34.0208 58.9824 34.24 58.9463 34.4739L58.9365 34.5303C58.9004 34.7642 58.6807 34.9236 58.4463 34.8867C58.2129 34.8496 58.0537 34.6301 58.0898 34.3965L58.0986 34.3416C58.1357 34.1077 58.3545 33.9478 58.5889 33.9841ZM2.23438 38.4202C2.45996 38.3474 2.70215 38.4709 2.77441 38.696L2.79199 38.7488C2.86523 38.9739 2.74219 39.2156 2.5166 39.2891C2.29199 39.3623 2.0498 39.2393 1.97656 39.0142L1.95898 38.96C1.88574 38.7349 2.00977 38.4932 2.23438 38.4202ZM57.6016 38.4202C57.8262 38.4932 57.9502 38.7349 57.877 38.96L57.8594 39.0142C57.7861 39.2393 57.5439 39.3623 57.3193 39.2891C57.0938 39.2156 56.9707 38.9739 57.0439 38.7488L57.0615 38.696C57.1348 38.4709 57.376 38.3474 57.6016 38.4202ZM3.9082 42.645C4.11914 42.5376 4.37793 42.6213 4.48535 42.8323L4.50977 42.8816C4.61816 43.0923 4.53418 43.3506 4.32422 43.4583C4.11328 43.5662 3.85449 43.4827 3.74707 43.272L3.7207 43.2214C3.61328 43.0105 3.69727 42.7524 3.9082 42.645ZM55.9277 42.645C56.1387 42.7524 56.2227 43.0105 56.1152 43.2214L56.0889 43.272C55.9814 43.4827 55.7227 43.5662 55.5127 43.4583C55.3018 43.3506 55.2178 43.0923 55.3262 42.8816L55.3516 42.8323C55.459 42.6213 55.7168 42.5376 55.9277 42.645ZM6.22461 46.5542C6.41602 46.415 6.68457 46.4575 6.82324 46.6492L6.85645 46.6938C6.99512 46.885 6.95312 47.1531 6.7627 47.2925C6.57129 47.4321 6.30273 47.3901 6.16309 47.1987L6.12988 47.1528C5.99121 46.9612 6.0332 46.6934 6.22461 46.5542ZM53.6113 46.5542C53.8027 46.6934 53.8447 46.9612 53.7061 47.1528L53.6729 47.1987C53.5332 47.3901 53.2646 47.4321 53.0742 47.2925C52.8828 47.1531 52.8408 46.885 52.9805 46.6938L53.0127 46.6492C53.1514 46.4575 53.4199 46.415 53.6113 46.5542ZM9.12305 50.0542C9.29102 49.887 9.56152 49.8872 9.72949 50.0547L9.76855 50.0938C9.93555 50.261 9.93555 50.5325 9.76855 50.7C9.60156 50.8674 9.33008 50.8677 9.16309 50.7004L9.12207 50.6602C8.95508 50.4927 8.95508 50.2212 9.12305 50.0542ZM50.7129 50.0542C50.8809 50.2212 50.8809 50.4927 50.7139 50.6602L50.6738 50.7004C50.5059 50.8677 50.2344 50.8674 50.0674 50.7C49.9004 50.5325 49.9004 50.261 50.0674 50.0938L50.1074 50.0547C50.2744 49.8872 50.5459 49.887 50.7129 50.0542ZM12.5303 53.0605C12.6699 52.8694 12.9375 52.8274 13.1289 52.9668L13.1738 52.9995C13.3652 53.1384 13.4082 53.4065 13.2686 53.5979C13.1299 53.7896 12.8613 53.832 12.6699 53.6929L12.624 53.6594C12.4326 53.52 12.3906 53.252 12.5303 53.0605ZM47.3057 53.0605C47.4453 53.252 47.4033 53.52 47.2119 53.6594L47.166 53.6929C46.9746 53.832 46.7061 53.7896 46.5674 53.5979C46.4287 53.4065 46.4707 53.1384 46.6621 52.9995L46.707 52.9668C46.8984 52.8274 47.166 52.8694 47.3057 53.0605ZM16.3643 55.499C16.4727 55.2883 16.7305 55.2051 16.9414 55.3127L16.9902 55.3379C17.2012 55.4453 17.2852 55.7034 17.1777 55.9143C17.0703 56.1252 16.8125 56.2092 16.6016 56.1018L16.5508 56.0759C16.3398 55.968 16.2568 55.7097 16.3643 55.499ZM43.4717 55.499C43.5791 55.7097 43.4961 55.968 43.2852 56.0759L43.2344 56.1018C43.0234 56.2092 42.7656 56.1252 42.6582 55.9143C42.5508 55.7034 42.6348 55.4453 42.8457 55.3379L42.8945 55.3127C43.1055 55.2051 43.3633 55.2883 43.4717 55.499ZM20.5342 57.3059C20.6074 57.0808 20.8486 56.958 21.0742 57.0312L21.127 57.0483C21.3516 57.1213 21.4756 57.3628 21.4023 57.5881C21.3301 57.8132 21.0879 57.9368 20.8633 57.8638L20.8086 57.8462C20.584 57.7729 20.4609 57.531 20.5342 57.3059ZM39.3018 57.3059C39.376 57.531 39.2529 57.7729 39.0273 57.8462L38.9736 57.8638C38.748 57.9368 38.5059 57.8132 38.4336 57.5881C38.3604 57.3628 38.4844 57.1213 38.709 57.0483L38.7617 57.0312C38.9873 56.958 39.2285 57.0808 39.3018 57.3059ZM24.9365 58.4336C24.9736 58.1997 25.1924 58.04 25.4268 58.0771L25.4814 58.0857C25.7148 58.1223 25.875 58.3416 25.8389 58.5752C25.8018 58.8091 25.583 58.9692 25.3486 58.9326L25.293 58.9238C25.0586 58.8867 24.8994 58.6672 24.9365 58.4336ZM34.8994 58.4336C34.9365 58.6672 34.7773 58.8867 34.5439 58.9238L34.4873 58.9326C34.2529 58.9692 34.0342 58.8091 33.9971 58.5752C33.9609 58.3416 34.1211 58.1223 34.3545 58.0857L34.4092 58.0771C34.6436 58.04 34.8633 58.1997 34.8994 58.4336ZM29.4609 58.8569C29.4619 58.6201 29.6533 58.4285 29.8906 58.4287L29.9463 58.4287C30.1826 58.4285 30.375 58.6201 30.375 58.8569C30.375 59.0935 30.1836 59.2856 29.9463 59.2859L29.8896 59.2859C29.6523 59.2856 29.4609 59.0935 29.4609 58.8569Z" fill-rule="evenodd" fill="#FFFFFF"/>
	<path id="Dot4" d="M30.8711 58.8572C30.8711 59.3831 30.4443 59.8096 29.9189 59.8096C29.3926 59.8096 28.9668 59.3831 28.9668 58.8572C28.9668 58.3313 29.3926 57.9048 29.9189 57.9048C30.4443 57.9048 30.8711 58.3313 30.8711 58.8572Z" fill-rule="nonzero" fill="#6966FF"/>
	<path id="Dot3" d="M58.8701 30.8569C58.3447 30.8569 57.918 30.4304 57.918 29.9045C57.918 29.3787 58.3447 28.9521 58.8701 28.9521C59.3965 28.9521 59.8223 29.3787 59.8223 29.9045C59.8223 30.4304 59.3965 30.8569 58.8701 30.8569Z" fill-rule="nonzero" fill="#6966FF"/>
	<path id="Dot2" d="M30.8711 0.952393C30.8711 1.47827 30.4443 1.90479 29.9189 1.90479C29.3926 1.90479 28.9668 1.47827 28.9668 0.952393C28.9668 0.426514 29.3926 0 29.9189 0C30.4443 0 30.8711 0.426514 30.8711 0.952393Z" fill-rule="nonzero" fill="#6966FF"/>
	<path id="Dot1" d="M0.96582 30.8569C0.44043 30.8569 0.0136719 30.4304 0.0136719 29.9045C0.0136719 29.3787 0.44043 28.9521 0.96582 28.9521C1.49219 28.9521 1.91797 29.3787 1.91797 29.9045C1.91797 30.4304 1.49219 30.8569 0.96582 30.8569Z" fill-rule="nonzero" fill="#6966FF"/>
</svg>
