<svg width="120.000000" height="40.000000" viewBox="0 0 120 40" fill="none" xmlns="http://www.w3.org/2000/svg" xmlns:xlink="http://www.w3.org/1999/xlink">
	<desc>
			Created with Pixso.
	</desc>
	<defs/>
	<path id="Right arrow curved" d="M52.6123 0.123779C52.3418 0.186401 52.0488 0.294678 51.9609 0.364624C51.873 0.43457 51.7627 0.409546 51.7148 0.309326C51.6025 0.0762939 51.0869 0.0706787 51.0869 0.302734C51.0869 0.409302 50.9502 0.397583 50.7383 0.273193C50.4658 0.112671 50.3096 0.123291 50.0205 0.321899C49.7432 0.512573 49.6377 0.521973 49.5947 0.360596C49.5527 0.196777 49.4561 0.194214 49.1904 0.350464C48.9531 0.490112 48.8125 0.496216 48.748 0.369263C48.6963 0.26709 48.3906 0.171509 48.0693 0.156982C47.6104 0.136108 47.4395 0.21521 47.2705 0.527466C47.1514 0.745605 47.0547 0.839966 47.0547 0.737183C47.0547 0.531006 45.4453 0.416992 45.208 0.606079C45.1279 0.670288 44.6592 0.703857 44.166 0.680908C43.4053 0.645386 43.2207 0.699219 42.9414 1.03699C42.6865 1.34607 42.5703 1.38916 42.4209 1.22961C42.1445 0.933716 41.0391 1.02588 40.8467 1.36084C40.7178 1.58582 40.6484 1.59558 40.4775 1.41296C40.3281 1.25232 40.2529 1.24573 40.2158 1.38965C40.1826 1.51733 39.7314 1.59253 38.9854 1.59485C38.3379 1.5968 37.4629 1.72522 37.043 1.88025C36.6221 2.0354 36.0713 2.14148 35.8193 2.11646C35.5664 2.09119 35.2822 2.15405 35.1865 2.25586C35.0918 2.35791 34.8916 2.44421 34.7422 2.44763C34.1738 2.46069 33.3477 2.69604 33.0801 2.92126C32.9268 3.05017 32.5449 3.15088 32.2314 3.14478C31.918 3.13879 31.542 3.21594 31.3975 3.31616C31.252 3.4165 30.8359 3.55603 30.4717 3.62634C30.1084 3.69666 29.8115 3.82556 29.8115 3.91309C29.8115 4.00037 29.7002 4.0719 29.5645 4.0719C29.4287 4.0719 29.1836 4.19299 29.0195 4.34082C28.8555 4.48877 28.623 4.56104 28.5029 4.50134C28.3828 4.44177 28.0352 4.55994 27.7314 4.76404C27.3867 4.99585 27.1475 5.06689 27.0928 4.95337C27.04 4.8429 26.9424 4.83521 26.8447 4.93396C26.7559 5.02332 26.1602 5.35034 25.5215 5.66089C24.8838 5.97131 24.207 6.38196 24.0186 6.573C23.8301 6.7644 23.5859 6.87622 23.4756 6.8219C23.3389 6.75427 23.2764 6.84912 23.2764 7.1228C23.2764 7.42188 23.2324 7.47607 23.1025 7.3374C22.9814 7.2085 22.7598 7.22827 22.3721 7.40247C22.0664 7.54004 21.7998 7.65393 21.7812 7.65527C21.7617 7.65674 21.7451 7.8396 21.7441 8.0614C21.7432 8.35278 21.709 8.39795 21.624 8.22424C21.5254 8.02344 21.4561 8.02332 21.209 8.22241C21.0459 8.35388 20.9121 8.51245 20.9121 8.57483C20.9121 8.63708 20.6465 8.74133 20.3213 8.80664C19.4609 8.97913 18.5479 9.46204 18.5479 9.74438C18.5479 9.87891 18.457 9.98901 18.3467 9.98901C18.2363 9.98901 17.9775 10.1893 17.7734 10.4338C17.5684 10.6786 17.3477 10.8365 17.2832 10.7849C17.2178 10.7333 17.0557 10.8557 16.9219 11.0571C16.7881 11.2587 16.5361 11.4235 16.3613 11.4235C16.1709 11.4235 16.0449 11.5319 16.0449 11.6969C16.0449 11.8472 15.8887 12.0469 15.6973 12.1406C15.5059 12.2344 15.3486 12.4542 15.3477 12.6293C15.3457 12.8649 15.3154 12.8871 15.2314 12.715C15.1396 12.5298 15.0283 12.5479 14.6777 12.8046C14.4365 12.9819 14.2383 13.2278 14.2383 13.351C14.2373 13.4744 14.1123 13.5751 13.959 13.5751C13.8066 13.5751 13.6807 13.6396 13.6807 13.7188C13.6807 13.7976 13.3994 14.0386 13.0557 14.2543C12.7109 14.4698 12.4297 14.728 12.4297 14.8279C12.4297 14.9277 12.3359 15.0095 12.2207 15.0095C12.1055 15.0095 12.0127 15.1689 12.0127 15.3682C12.0127 15.5674 11.9199 15.7268 11.8037 15.7268C11.6895 15.7268 11.5957 15.8075 11.5957 15.906C11.5957 16.0046 11.5166 16.0856 11.4219 16.0857C11.1621 16.0864 10.2324 17.1587 10.4824 17.1687C10.5977 17.1732 10.4727 17.2787 10.2051 17.403C9.93652 17.527 9.53711 17.8463 9.31543 18.1122C9.09375 18.3782 8.85938 18.5957 8.79395 18.5957C8.72852 18.5957 8.6748 18.7145 8.6748 18.86C8.6748 19.0054 8.50098 19.2406 8.28711 19.3828C8.07422 19.525 7.65527 20.0112 7.35645 20.4633C7.05762 20.9153 6.74512 21.2853 6.66309 21.2853C6.47363 21.2853 5.75488 22.3271 5.75391 22.6036C5.75391 22.7168 5.56836 22.9451 5.3418 23.1111C5.11523 23.277 4.89062 23.62 4.84082 23.8732C4.79199 24.1263 4.68359 24.3334 4.60059 24.3334C4.35547 24.3334 3.66895 25.2699 3.66895 25.6029C3.66895 25.7711 3.5752 25.9552 3.45996 26.0121C3.3457 26.0687 3.25195 26.2495 3.25195 26.4136C3.25195 26.5778 3.14258 26.8434 3.00879 27.0038C2.67578 27.4023 2.41797 28.0256 2.41797 28.4275C2.41797 28.6111 2.2959 28.9414 2.14844 29.1617C2 29.3821 1.91016 29.6688 1.94922 29.7988C1.99219 29.9426 1.92578 30.0249 1.78125 30.0084C1.41602 29.9672 1.39746 30.3442 1.75293 30.5851C1.92773 30.703 1.96973 30.7637 1.84668 30.7201C1.65527 30.6516 1.16602 31.1553 1.16602 31.4215C1.16602 31.4717 1.00195 31.8486 0.800781 32.2589C0.498047 32.8774 0.463867 33.0635 0.599609 33.3453C0.717773 33.5891 0.722656 33.7511 0.615234 33.9176C0.455078 34.1664 0.558594 34.7332 0.763672 34.7332C0.832031 34.7332 0.887695 34.8063 0.887695 34.8956C0.887695 34.985 0.762695 35.0159 0.609375 34.9645C0.422852 34.9015 0.332031 34.9589 0.332031 35.1385C0.332031 35.2859 0.238281 35.506 0.125 35.6274C-0.0556641 35.8209 -0.046875 35.9049 0.194336 36.3011C0.496094 36.7949 0.563477 37.4227 0.314453 37.4227C0.202148 37.4227 0.200195 37.4879 0.308594 37.6561C0.391602 37.7845 0.423828 38.0641 0.380859 38.2772C0.276367 38.793 0.65332 39.2791 1.03613 39.1222C1.20996 39.0511 1.29492 38.9034 1.25 38.7513C1.20801 38.6106 1.25781 38.4985 1.3623 38.4985C1.56641 38.4985 1.71289 38.9878 1.61816 39.3502C1.58594 39.4736 1.47168 39.5743 1.36328 39.5743C1.1123 39.5743 1.10645 39.865 1.35449 39.9877C1.45801 40.0389 1.64551 39.9257 1.77148 39.736C2.02148 39.3595 2.07812 38.8572 1.87012 38.8572C1.71191 38.8572 1.73145 38.0925 1.89258 37.9475C1.95508 37.8909 2.03516 37.653 2.07031 37.4186C2.10547 37.1842 2.22949 36.9238 2.3457 36.8401C2.46191 36.7562 2.55664 36.4648 2.55664 36.1926C2.55664 35.8783 2.71777 35.485 2.99805 35.115C3.31348 34.6992 3.44336 34.3555 3.4502 33.916C3.45801 33.4537 3.52148 33.2996 3.7041 33.2992C3.92578 33.2987 4.00293 33.1232 3.91211 32.8262C3.89355 32.7634 4.01074 32.6487 4.17285 32.5713C4.39941 32.4631 4.45312 32.3218 4.40039 31.9679C4.34961 31.6252 4.38965 31.5056 4.55664 31.5056C4.68066 31.5056 4.78125 31.4249 4.78125 31.3263C4.78125 31.2277 4.875 31.147 4.99023 31.147C5.10449 31.147 5.19824 31.0605 5.19824 30.955C5.19824 30.8492 5.29688 30.6365 5.41602 30.4823C5.57031 30.2841 5.59082 30.146 5.48535 30.011C5.26172 29.7228 5.30762 29.511 5.58105 29.5702C5.72266 29.6008 5.82422 29.5106 5.82422 29.354C5.82422 29.2061 5.94922 29.0375 6.10254 28.9794C6.25586 28.9215 6.36523 28.7802 6.3457 28.6656C6.32715 28.5513 6.39453 28.4574 6.49512 28.4574C6.59668 28.4574 6.82129 28.2631 6.99414 28.0255C7.28809 27.6224 7.29199 27.5876 7.05371 27.5084C6.87598 27.4492 6.91113 27.4169 7.16895 27.4023C7.42773 27.3879 7.67773 27.1541 8.00293 26.6228C8.69922 25.4835 8.93945 25.212 9.20117 25.2683C9.3584 25.302 9.45508 25.1818 9.48438 24.9161C9.51074 24.6729 9.62598 24.5127 9.77246 24.5127C9.91309 24.5127 10.1328 24.2273 10.291 23.8403C10.4424 23.4706 10.625 23.157 10.6982 23.1437C11.168 23.0582 11.4971 22.7878 11.6279 22.3813C11.7109 22.1237 11.7695 21.8522 11.7568 21.7783C11.7441 21.7045 11.8125 21.6315 11.9082 21.6166C12.0039 21.6016 12.1445 21.5706 12.2207 21.5476C12.2979 21.5245 12.4766 21.4966 12.6201 21.4851C12.8076 21.4702 12.8594 21.3661 12.8066 21.106C12.749 20.8207 12.8018 20.7473 13.0684 20.7473C13.252 20.7473 13.4033 20.6556 13.4033 20.5438C13.4033 20.2803 14.0039 19.5642 14.5059 19.2295C14.7217 19.0853 14.9355 18.8434 14.9805 18.6919C15.0264 18.5404 15.1865 18.4164 15.3369 18.4164C15.4883 18.4164 15.6416 18.3542 15.6777 18.2787C15.7139 18.2028 15.4824 18.1626 15.1641 18.1893C14.6465 18.2325 14.6182 18.2156 14.9004 18.0294C15.1172 17.8857 15.1904 17.7185 15.1338 17.4911C15.0352 17.0875 15.1787 17.0677 15.498 17.4409C15.7168 17.6967 15.7686 17.6807 16.0996 17.2534C16.2988 16.9965 16.4619 16.8707 16.4619 16.9739C16.4619 17.2188 16.8418 17.2173 16.9053 16.9722C16.9316 16.8682 17.0781 16.7592 17.2295 16.7301C17.4014 16.697 17.5049 16.5387 17.5049 16.3077C17.5049 15.7943 17.668 15.6344 17.9189 15.9025C18.0596 16.0532 18.1309 16.063 18.1309 15.9314C18.1309 15.8226 18.2871 15.683 18.4785 15.6211C18.6699 15.5593 18.8262 15.3962 18.8262 15.2592C18.8262 15.1001 18.9814 15.0095 19.2529 15.0095C19.667 15.0095 20.6602 14.2717 21.04 13.6818C21.1396 13.5267 21.2734 13.4408 21.3359 13.4908C21.3984 13.541 21.6738 13.4204 21.9463 13.2229C22.2188 13.0255 22.4414 12.905 22.4414 12.9552C22.4414 13.141 23.3516 12.4342 23.5283 12.1108C23.6299 11.9268 23.7734 11.8247 23.8477 11.884C23.9229 11.9436 24.0586 11.9137 24.1514 11.8177C24.2432 11.7218 24.6006 11.5865 24.9443 11.5173C25.2891 11.448 25.8037 11.1968 26.0889 10.9592C26.374 10.7214 26.7354 10.5269 26.8926 10.5269C27.0498 10.5269 27.4111 10.3936 27.6953 10.2303C27.9795 10.0671 28.2676 9.94971 28.3359 9.96948C28.4033 9.98914 28.5986 9.83606 28.7695 9.62927C28.9941 9.35706 29.1787 9.28516 29.4385 9.36914C29.668 9.44336 29.9102 9.3822 30.1133 9.1991C30.2871 9.04187 30.6992 8.91321 31.0293 8.91321C31.4189 8.91321 31.6543 8.8241 31.7041 8.65796C31.7461 8.51782 31.8721 8.3573 31.9854 8.30151C32.0986 8.24512 32.1523 8.27783 32.1064 8.37524C32.0586 8.47461 32.1152 8.50415 32.2383 8.44373C32.3564 8.38489 32.459 8.20435 32.4648 8.04224C32.4707 7.88013 32.5029 7.83057 32.5352 7.93164C32.6064 8.1499 33.7051 8.04895 33.7051 7.8241C33.7051 7.73889 33.8037 7.71814 33.9248 7.77783C34.1094 7.86902 34.6201 7.71179 35.9297 7.1604C36.2168 7.03979 36.6797 6.96558 37.7217 6.87305C38.21 6.82983 38.6484 6.71631 38.6953 6.62097C38.7764 6.45618 39.127 6.40808 40.7275 6.34192C41.1104 6.32617 41.4648 6.23816 41.5166 6.14624C41.5674 6.05444 41.8799 5.95801 42.2119 5.93201C42.543 5.90588 42.8506 5.88025 42.8965 5.87488C42.9414 5.86951 43.1543 5.67004 43.3701 5.43176C43.6973 5.06897 43.791 5.03784 43.9473 5.23975C44.0508 5.37219 44.1348 5.5625 44.1348 5.66235C44.1348 5.91858 46.082 5.6936 46.416 5.39893C46.6084 5.22839 46.7539 5.2157 46.9521 5.35193C47.1074 5.45959 47.4385 5.4845 47.7295 5.41064C48.0088 5.33997 49.7695 5.25671 51.6436 5.22595C53.5176 5.19495 55.1914 5.16394 55.3643 5.15686C55.5381 5.14966 55.8193 4.96326 55.9902 4.74255L56.3018 4.34082L56.3486 4.76526C56.3896 5.14417 56.4482 5.17859 56.8867 5.08679C57.1582 5.03015 57.4971 4.84692 57.6406 4.67944C57.8867 4.39124 57.9014 4.39429 57.9014 4.73779C57.9014 5.03296 57.999 5.10596 58.4229 5.12817C59.6465 5.19238 60.3184 5.13464 60.4902 4.95032C60.627 4.8042 60.7295 4.82458 60.8887 5.02954C61.1543 5.37207 63.7461 5.41882 63.9131 5.08411C63.9785 4.95264 64.0156 4.99158 64.0176 5.19263C64.0195 5.52893 64.4199 5.5946 64.9229 5.34119C65.1035 5.25061 65.25 5.28613 65.3408 5.44177C65.417 5.57397 65.8555 5.72803 66.3135 5.78406C66.7725 5.84021 67.3359 5.91504 67.5645 5.95032C67.793 5.9856 68.0186 5.93457 68.0654 5.83679C68.1182 5.72632 68.2246 5.7489 68.3447 5.89648C68.5723 6.17444 69.582 6.30249 69.582 6.05322C69.582 5.95984 69.8115 6.00732 70.0938 6.15881C70.375 6.3103 70.8359 6.40588 71.1191 6.37109C71.4912 6.32544 71.6152 6.37073 71.5664 6.53467C71.5059 6.73621 71.7871 6.85632 72.1328 6.77686C72.1982 6.76208 72.6357 6.88379 73.1064 7.04749C73.5771 7.21118 74.2754 7.36633 74.6572 7.39209C75.04 7.41797 75.4775 7.49219 75.6309 7.55737C75.8516 7.65125 75.9648 7.54199 76.1777 7.03064C76.3945 6.50989 76.4697 6.43945 76.5674 6.66467C76.6338 6.81812 76.6504 7.02368 76.6035 7.12158C76.5566 7.21948 76.5918 7.29944 76.6826 7.29944C76.8066 7.29944 76.8076 7.36035 76.6875 7.54651C76.5615 7.7417 76.5947 7.81628 76.8447 7.90259C77.335 8.07202 77.3936 8.04211 77.3027 7.6698C77.2305 7.37671 77.2832 7.32544 77.6406 7.3385C77.9893 7.3512 78.0645 7.42871 78.0645 7.7749C78.0645 8.39563 78.5459 8.94421 78.9697 8.80688C79.1631 8.74438 79.5537 8.81738 79.8525 8.97217C80.2529 9.17834 80.4307 9.19739 80.5469 9.04639C80.6641 8.89539 80.7773 8.94434 80.9893 9.23767C81.2061 9.53748 81.3896 9.61353 81.7539 9.55505C82.0312 9.51074 82.2783 9.56714 82.3389 9.68884C82.3975 9.80469 82.6631 10.001 82.9316 10.1255C83.3418 10.316 83.4414 10.3099 83.5684 10.0867C83.6836 9.88538 83.7588 9.87207 83.8818 10.0311C83.9707 10.1461 84.0439 10.3359 84.0439 10.4534C84.0439 10.7593 85.1924 11.4128 85.9619 11.5443C86.3213 11.6058 86.7393 11.7651 86.8906 11.8984C87.041 12.0316 87.2559 12.1406 87.3682 12.1406C87.4795 12.1406 87.8574 12.3214 88.2061 12.5422C88.6094 12.7975 89.0996 12.9447 89.5498 12.9457C90.0918 12.9471 90.2549 13.0106 90.2451 13.2164C90.2363 13.3822 90.3789 13.5073 90.6143 13.5421C90.8242 13.5732 90.9961 13.6654 90.9961 13.7468C90.9961 13.9493 92.0381 14.4717 92.4424 14.4717C92.623 14.4717 92.8477 14.5927 92.9434 14.7406C93.1318 15.0339 93.6387 15.1101 93.6387 14.8451C93.6387 14.7548 93.5605 14.6401 93.4648 14.5903C93.3574 14.5348 93.3818 14.4944 93.5264 14.4858C93.6562 14.478 93.874 14.7153 94.0098 15.0132C94.1465 15.3109 94.3379 15.5151 94.4346 15.4669C94.5322 15.4189 94.6123 15.4496 94.6123 15.5353C94.6123 15.6211 94.8428 15.6829 95.124 15.6726C95.4111 15.662 95.6602 15.7487 95.6914 15.8696C95.7227 15.9882 95.8281 16.0853 95.9277 16.0853C96.0264 16.0853 96.1855 16.2064 96.2803 16.3544C96.376 16.5022 96.5713 16.6233 96.7148 16.6233C96.8584 16.6233 97.1074 16.7926 97.2676 16.9995C97.4561 17.2419 97.6768 17.3468 97.8887 17.2944C98.0693 17.2498 98.2461 17.3025 98.2812 17.4114C98.3242 17.5441 98.3887 17.5288 98.4785 17.3651C98.5898 17.1587 98.624 17.1587 98.6973 17.3651C98.7637 17.5529 98.8027 17.558 98.8643 17.387C98.9268 17.2159 98.9912 17.2247 99.1465 17.4241C99.2568 17.567 99.4551 17.6394 99.5869 17.585C99.7705 17.509 99.7822 17.5266 99.6377 17.6598C99.4795 17.8062 99.4795 17.8584 99.6377 17.9905C99.7412 18.0768 99.9209 18.1556 100.035 18.1656C100.149 18.1757 100.354 18.1959 100.487 18.2104C100.621 18.225 100.73 18.358 100.73 18.506C100.73 18.6932 100.876 18.7749 101.21 18.7749C101.501 18.7749 101.738 18.8856 101.812 19.0552C101.879 19.2092 102.031 19.3541 102.152 19.3768C102.272 19.3997 102.468 19.5223 102.587 19.6493C102.706 19.7764 102.922 19.8315 103.068 19.7719C103.225 19.7079 103.405 19.7753 103.509 19.9363C103.605 20.0865 103.786 20.21 103.911 20.2107C104.035 20.2112 104.325 20.3721 104.555 20.568C104.784 20.764 105.081 20.9248 105.215 20.9253C105.349 20.926 105.458 20.9901 105.458 21.0675C105.458 21.2081 105.783 21.2809 106.42 21.2831C106.605 21.2838 106.867 21.4135 107.003 21.5712C107.138 21.7291 107.304 21.8143 107.371 21.7607C107.438 21.7069 107.581 21.8201 107.688 22.0121C107.796 22.204 107.956 22.3611 108.045 22.3611C108.133 22.3611 108.283 22.4821 108.379 22.63C108.602 22.9768 108.935 22.9768 108.935 22.63C108.935 22.4821 108.872 22.3611 108.796 22.3611C108.719 22.3611 108.656 22.2878 108.656 22.1986C108.656 22.1093 108.809 22.1285 108.994 22.2413C109.243 22.3933 109.293 22.5052 109.186 22.6727C109.105 22.7971 109.095 22.9072 109.161 22.9175C109.228 22.9276 109.521 22.9617 109.812 22.9932C110.385 23.0548 110.742 23.3372 110.742 23.7277C110.742 23.8636 110.808 23.9749 110.887 23.9749C110.966 23.9749 111.194 24.113 111.394 24.282C111.594 24.451 111.852 24.6071 111.966 24.6288C112.081 24.6504 112.222 24.7661 112.279 24.8855C112.336 25.0051 112.484 25.053 112.607 24.9922C112.746 24.9231 112.896 25.0148 113.002 25.235C113.097 25.4296 113.276 25.5885 113.403 25.5885C113.532 25.5885 113.671 25.785 113.72 26.0369C113.768 26.2833 113.904 26.4851 114.022 26.4851C114.215 26.4851 114.216 26.515 114.03 26.754C113.915 26.902 113.755 27.0229 113.673 27.0229C113.591 27.0229 113.523 27.1058 113.523 27.2069C113.523 27.3115 113.344 27.2704 113.105 27.1117C112.805 26.9113 112.614 26.8829 112.428 27.0111C112.286 27.1094 112.127 27.1344 112.074 27.0668C112.021 26.9991 111.923 27.0601 111.854 27.2025C111.747 27.427 111.721 27.4263 111.652 27.1973C111.587 26.9761 111.254 26.9479 109.594 27.0229C108.505 27.0723 107.528 27.1835 107.425 27.27C107.303 27.3713 107.191 27.3395 107.113 27.1804C107.017 26.9835 106.992 26.9814 106.99 27.1702C106.989 27.3005 106.906 27.5121 106.808 27.6404C106.659 27.8314 106.572 27.8171 106.327 27.5604C106.086 27.3086 105.91 27.2765 105.43 27.3965C105.102 27.4783 104.786 27.5487 104.729 27.553C104.671 27.5574 104.624 27.6819 104.624 27.8298C104.624 27.9778 104.56 28.0989 104.48 28.0989C104.401 28.0989 104.301 27.9778 104.257 27.8298C104.162 27.5105 103.907 27.4813 103.688 27.7646C103.503 28.0018 103.802 28.4955 104.1 28.4451C104.512 28.3751 104.643 28.4802 104.618 28.8608C104.56 29.7976 104.618 30.063 104.856 29.9448C105.033 29.8574 105.068 29.9022 105 30.1296C104.947 30.3087 104.979 30.4309 105.08 30.4323C105.174 30.4336 105.391 30.4834 105.562 30.5427C105.793 30.6223 105.876 30.5741 105.876 30.3611C105.876 30.0306 106.058 29.9927 106.426 30.2462C106.626 30.3846 106.694 30.3473 106.751 30.0669C106.79 29.8719 106.896 29.7125 106.984 29.7125C107.082 29.7125 107.111 29.8531 107.058 30.0701C106.988 30.3516 107.019 30.4032 107.201 30.3129C107.329 30.2498 107.481 30.2986 107.54 30.421C107.599 30.5435 107.874 30.6575 108.151 30.6743C108.551 30.6986 108.656 30.6385 108.656 30.3881C108.656 29.9556 109.024 29.9858 109.113 30.4259C109.179 30.7469 109.28 30.7733 110.196 30.7063C110.884 30.6559 111.327 30.7113 111.578 30.8789C111.893 31.0887 112.004 31.0885 112.319 30.8781C112.522 30.7418 112.689 30.6923 112.689 30.7679C112.689 30.8436 112.877 30.87 113.106 30.8265C113.336 30.7832 113.523 30.6444 113.523 30.5182C113.523 30.175 113.905 30.0527 113.999 30.3661C114.113 30.75 114.101 30.8259 113.942 30.7C113.862 30.636 113.841 30.7124 113.893 30.8838C113.962 31.1189 114.003 31.1296 114.1 30.938C114.197 30.7422 114.244 30.7476 114.358 30.9677C114.474 31.1908 114.518 31.1951 114.619 30.9934C114.701 30.8295 114.771 30.813 114.833 30.9427C114.884 31.0487 115.126 31.1285 115.371 31.1198C115.617 31.1112 115.881 31.1233 115.957 31.1469C116.246 31.2354 116.333 31.1385 116.18 30.9005C116.053 30.7026 116.089 30.6539 116.36 30.6539C116.574 30.6539 116.724 30.7775 116.767 30.9901C116.86 31.4528 117.106 31.4127 117.18 30.9229L117.24 30.5194L117.259 30.9229C117.285 31.4712 117.974 31.5144 117.974 30.9677C117.974 30.7705 118.03 30.6091 118.1 30.6091C118.169 30.6091 118.195 30.756 118.159 30.9354C118.079 31.3308 118.423 31.7373 118.767 31.6539C118.904 31.6206 119.078 31.413 119.153 31.1925C119.229 30.9722 119.354 30.8005 119.432 30.8114C119.788 30.8607 119.892 30.7504 119.972 30.2334C120.04 29.7935 119.993 29.6112 119.745 29.3527C119.466 29.0599 119.45 28.969 119.599 28.4618C119.745 27.9608 119.729 27.8528 119.462 27.5073C119.295 27.293 119.177 26.9552 119.198 26.7566C119.228 26.4871 119.205 26.4573 119.109 26.6388C119.021 26.8086 118.953 26.8221 118.887 26.6836C118.834 26.5743 118.677 26.4851 118.536 26.4851C118.243 26.4851 118.112 26.1455 118.112 25.3839C118.112 25.0905 118.061 24.8911 117.998 24.9413C117.87 25.0431 117.417 24.4275 117.417 24.1521C117.417 24.0546 117.332 23.9749 117.228 23.9749C117.102 23.9749 117.061 23.8274 117.104 23.5317C117.154 23.1923 117.062 22.9719 116.708 22.5903C115.841 21.6536 115.456 21.1006 115.545 20.916C115.665 20.6664 115.235 19.8508 114.984 19.8508C114.863 19.8508 114.815 19.7445 114.864 19.5818C114.917 19.4031 114.857 19.3109 114.686 19.3071C114.276 19.2982 113.94 18.8667 113.94 18.3502C113.94 17.9191 113.915 17.8961 113.661 18.101C113.415 18.2991 113.338 18.2612 113.028 17.7886C112.834 17.4929 112.584 16.9885 112.472 16.6681C112.243 16.0144 112.072 15.9371 111.872 16.3977C111.676 16.8494 111.51 16.5288 111.526 15.7299C111.537 15.1998 111.494 15.0618 111.342 15.137C111.218 15.1984 111.114 15.0914 111.065 14.8535C111.023 14.6434 110.907 14.4717 110.809 14.4717C110.692 14.4717 110.656 14.6141 110.706 14.875L110.783 15.2784L110.488 14.8538C110.088 14.2748 109.975 13.7487 110.206 13.5371C110.345 13.4109 110.313 13.3873 110.093 13.4496C109.875 13.5105 109.811 13.4641 109.864 13.2859C109.904 13.149 109.864 13.0372 109.773 13.0372C109.683 13.0372 109.364 12.7103 109.067 12.3108C108.77 11.9114 108.446 11.5983 108.348 11.6149C107.7 11.7252 107.544 11.6044 107.544 10.9921C107.544 10.4785 107.502 10.3955 107.278 10.4709C107.097 10.5321 106.936 10.4108 106.772 10.09C106.641 9.83105 106.567 9.57458 106.61 9.52014C106.707 9.39526 106.276 8.83411 105.852 8.52966C105.53 8.29993 105.447 8.26135 105.181 8.21838C105.104 8.20593 105.041 8.03455 105.041 7.83728C105.041 7.6333 104.948 7.47876 104.826 7.47876C104.708 7.47876 104.505 7.23718 104.374 6.94189C104.085 6.28687 103.849 6.25354 103.732 6.8512C103.685 7.09766 103.549 7.29944 103.43 7.29944C103.278 7.29944 103.24 7.19397 103.303 6.94189C103.368 6.67542 103.339 6.61011 103.187 6.6853C102.854 6.84985 102.806 7.46704 103.105 7.70898C103.253 7.8269 103.372 8.0387 103.372 8.1792C103.372 8.32007 103.413 8.38281 103.463 8.31897C103.562 8.19006 104.336 9.43103 104.342 9.73047C104.346 9.92334 105.28 10.5269 105.574 10.5269C105.664 10.5269 105.736 10.396 105.736 10.2361C105.736 9.9978 105.774 9.98535 105.945 10.1683C106.06 10.2911 106.154 10.5228 106.155 10.6832C106.157 10.9329 106.177 10.937 106.287 10.7114C106.358 10.5664 106.465 10.5103 106.524 10.5867C106.658 10.7593 106.284 11.0789 106.11 10.9404C105.993 10.8469 105.743 11.1873 105.738 11.4473C105.737 11.5099 105.861 11.6029 106.014 11.6544C106.166 11.7058 106.336 11.8969 106.39 12.0787C106.542 12.593 107.027 13.0465 107.352 12.9785C107.578 12.931 107.63 12.9918 107.578 13.2461C107.542 13.427 107.455 13.5751 107.386 13.5751C107.316 13.5751 107.364 13.7816 107.493 14.0341C107.638 14.3181 107.762 14.4183 107.82 14.297C107.992 13.9376 108.362 14.3124 108.405 14.8903C108.444 15.405 108.497 15.463 108.97 15.5135C109.452 15.5648 109.479 15.5978 109.336 15.9441C109.202 16.2672 109.214 16.3025 109.422 16.1996C109.606 16.1083 109.648 16.156 109.599 16.4019C109.518 16.7983 109.849 17.2288 110.128 17.0906C110.263 17.0242 110.382 17.1492 110.47 17.4486C110.64 18.0258 110.514 18.3335 110.23 18.0306C110.115 17.9076 109.824 17.7954 109.582 17.7812C108.87 17.7395 108.796 17.7104 108.796 17.4738C108.796 17.2574 107.906 16.8026 107.483 16.8026C107.372 16.8026 107.229 16.6855 107.167 16.5426C107.102 16.3918 106.775 16.2516 106.392 16.2091C106.027 16.1687 105.691 16.0868 105.645 16.0271C105.599 15.9675 105.453 15.993 105.321 16.084C105.119 16.2233 105.092 16.1804 105.147 15.8087C105.187 15.543 105.147 15.3682 105.049 15.3682C104.959 15.3682 104.925 15.4489 104.972 15.5475C105.199 16.0221 104.653 15.6589 104.018 14.9135C103.831 14.6945 102.838 14.3029 102.538 14.33C101.853 14.3918 101.426 14.2721 101.426 14.0178C101.426 13.8667 101.316 13.6931 101.183 13.632C101.049 13.5706 100.845 13.4193 100.73 13.2954C100.615 13.1716 100.334 13.0442 100.104 13.0122C99.875 12.9803 99.4785 12.8086 99.2227 12.6305C98.9668 12.4525 98.6377 12.3555 98.4922 12.415C98.3447 12.4755 98.2275 12.4386 98.2275 12.332C98.2275 12.2267 98.0713 12.1406 97.8799 12.1406C97.6885 12.1406 97.5322 12.0552 97.5322 11.9508C97.5322 11.8464 97.4688 11.811 97.3926 11.8724C97.3154 11.9337 97.0703 11.8175 96.8496 11.614C96.6279 11.4105 96.3779 11.2441 96.2939 11.2441C96.21 11.2441 96.1416 11.1635 96.1416 11.0648C96.1416 10.9662 95.998 10.8855 95.8213 10.8855C95.6455 10.8855 95.4424 10.8136 95.3701 10.7256C95.2969 10.6377 94.708 10.3594 94.0615 10.1072C93.1289 9.74353 92.8428 9.69312 92.6787 9.86365C92.5146 10.035 92.4951 10.0304 92.584 9.8407C92.7148 9.55896 92.2588 8.93823 92.002 9.04895C91.9082 9.08911 91.6201 8.95398 91.3623 8.74878C91.1045 8.54321 90.7207 8.37524 90.5088 8.37524C90.2969 8.37524 90.0537 8.25562 89.9688 8.10974C89.8838 7.9635 89.6895 7.81433 89.5361 7.77795C89.3838 7.74158 89.1641 7.6665 89.0498 7.61108C88.3457 7.27112 87.9209 7.15918 87.6621 7.24634C87.4766 7.30896 87.3047 7.23364 87.1963 7.0426C87.1016 6.87512 86.8242 6.73242 86.5771 6.72327C86.3311 6.71436 86.1299 6.62988 86.1299 6.53577C86.1299 6.44165 86.042 6.40759 85.9365 6.46021C85.8301 6.51282 85.6064 6.3916 85.4385 6.1908C85.2207 5.92932 85.0234 5.85437 84.7412 5.92712C84.4785 5.995 84.3223 5.94763 84.2744 5.78479C84.2344 5.65051 83.7441 5.40698 83.1836 5.24365C82.624 5.08044 82.0234 4.82727 81.8496 4.68115C81.6758 4.53503 81.4795 4.45801 81.4141 4.50977C81.3496 4.56165 81.1035 4.47998 80.8672 4.32837C80.4482 4.05823 79.6533 4.06274 79.1416 4.33801C78.9463 4.44312 78.8984 4.37695 78.8984 4.00146C78.8984 3.70544 78.8223 3.53394 78.6904 3.53394C78.5752 3.53394 78.4814 3.46643 78.4814 3.38379C78.4814 3.30103 78.2549 3.22253 77.9785 3.20911C77.7021 3.19568 77.3936 3.0968 77.293 2.98926C77.084 2.7655 76.375 2.59546 75.7803 2.62671C75.5566 2.63831 75.3291 2.55481 75.2744 2.44116C75.2207 2.32727 74.8398 2.19849 74.4297 2.15491C73.3428 2.03943 73.1621 2.04358 72.8066 2.19226C72.5537 2.29773 72.4707 2.25085 72.4141 1.97278C72.3408 1.6106 72.3301 1.60791 70.5547 1.47375C69.8369 1.41968 69.4922 1.32617 69.3535 1.14856C69.3008 1.07983 68.9678 1.02368 68.6133 1.02368C68.2588 1.02368 67.9092 0.947754 67.8369 0.854614C67.7285 0.71582 66.8457 0.641602 65.6885 0.674072C65.5732 0.677246 65.1982 0.593018 64.8535 0.486938C63.9248 0.199951 63.1377 0.141846 62.9434 0.345581C62.8467 0.446777 62.6641 0.462891 62.5264 0.382202C62.1982 0.189941 59.5693 0.128418 59.5693 0.312988C59.5693 0.392944 59.3955 0.346313 59.1826 0.209351C58.9434 0.0552979 58.4521 -0.0223389 57.8965 0.00561523C56.9658 0.0526123 56.5869 0.210938 56.7236 0.496216C56.7676 0.586792 56.7061 0.612915 56.5869 0.554321C56.4688 0.495483 56.3711 0.365479 56.3711 0.265381C56.3711 0.1604 56.2832 0.177734 56.1631 0.306519C55.9932 0.487793 55.9541 0.479858 55.9541 0.263672C55.9541 0.0450439 55.752 0.00891113 54.8203 0.0605469C54.1963 0.0950928 53.6562 0.161743 53.6201 0.208618C53.583 0.255615 53.4521 0.22998 53.3291 0.151978C53.2051 0.0739746 52.8828 0.0611572 52.6123 0.123779ZM102.017 4.55957C101.921 4.60376 101.851 4.89526 101.859 5.2074C101.87 5.58923 101.897 5.65771 101.943 5.41675C101.981 5.21948 102.076 4.95532 102.155 4.82971C102.324 4.56287 102.264 4.44592 102.017 4.55957ZM63.6025 4.96838C63.6025 5.06702 63.5361 5.14771 63.4551 5.14771C63.374 5.14771 63.3467 5.06702 63.3936 4.96838C63.4414 4.86987 63.5068 4.78918 63.541 4.78918C63.5752 4.78918 63.6025 4.86987 63.6025 4.96838ZM102.677 5.45557C102.677 5.80664 102.923 6.22363 103.131 6.22363C103.196 6.22363 103.201 6.1228 103.141 5.99939C103.081 5.87622 103.03 5.66125 103.028 5.52173C103.022 5.13281 102.677 5.06775 102.677 5.45557ZM39.0908 5.79395C39.0449 5.85352 38.9248 5.85999 38.8242 5.80811C38.7129 5.75098 38.7461 5.70837 38.9082 5.69983C39.0547 5.69214 39.1367 5.73438 39.0908 5.79395ZM102.329 6.04431C102.282 6.14294 102.341 6.22363 102.46 6.22363C102.58 6.22363 102.677 6.14294 102.677 6.04431C102.677 5.94568 102.618 5.86499 102.546 5.86499C102.475 5.86499 102.377 5.94568 102.329 6.04431ZM36.7646 6.59277C36.7646 6.68567 36.7021 6.76147 36.625 6.76147C36.5488 6.76147 36.4863 6.63562 36.4863 6.48193C36.4863 6.32825 36.5488 6.25232 36.625 6.31323C36.7021 6.37415 36.7646 6.49988 36.7646 6.59277ZM29.6729 6.66125C29.6729 6.70483 29.6104 6.79016 29.5332 6.8512C29.457 6.91211 29.3945 6.87646 29.3945 6.77209C29.3945 6.66772 29.457 6.58215 29.5332 6.58215C29.6104 6.58215 29.6729 6.61768 29.6729 6.66125ZM29.3477 8.42004C29.3086 8.54346 29.2773 8.4425 29.2773 8.19592C29.2773 7.94934 29.3086 7.84863 29.3477 7.9718C29.3857 8.09521 29.3857 8.29688 29.3477 8.42004ZM27.7256 9.80969C27.7256 9.90833 27.6162 9.98779 27.4824 9.98633C27.2744 9.98401 27.2695 9.95813 27.4473 9.80969C27.71 9.59094 27.7256 9.59094 27.7256 9.80969ZM90.875 11.1134C90.6494 11.4049 90.5205 11.1321 90.7393 10.8253C90.8428 10.6804 90.9492 10.6418 90.9775 10.7395C91.0049 10.8372 90.959 11.0052 90.875 11.1134ZM25.1533 10.8855C25.2002 10.9841 25.1729 11.0648 25.0918 11.0648C25.0107 11.0648 24.9443 10.9841 24.9443 10.8855C24.9443 10.7869 24.9727 10.7062 25.0059 10.7062C25.04 10.7062 25.1055 10.7869 25.1533 10.8855ZM106.988 12.2303C106.988 12.3782 106.926 12.4993 106.849 12.4993C106.772 12.4993 106.71 12.3782 106.71 12.2303C106.71 12.0824 106.772 11.9613 106.849 11.9613C106.926 11.9613 106.988 12.0824 106.988 12.2303ZM111.716 18.7749C111.716 18.8735 111.688 18.9542 111.654 18.9542C111.621 18.9542 111.555 18.8735 111.507 18.7749C111.46 18.6763 111.487 18.5957 111.568 18.5957C111.649 18.5957 111.716 18.6763 111.716 18.7749ZM111.021 27.8298C111.021 27.9778 110.958 28.0989 110.882 28.0989C110.805 28.0989 110.742 27.9778 110.742 27.8298C110.742 27.6819 110.805 27.5609 110.882 27.5609C110.958 27.5609 111.021 27.6819 111.021 27.8298ZM5.05957 28.1779C5.05957 28.2214 4.99707 28.3068 4.9209 28.3678C4.84375 28.4287 4.78125 28.3931 4.78125 28.2887C4.78125 28.1843 4.84375 28.0989 4.9209 28.0989C4.99707 28.0989 5.05957 28.1343 5.05957 28.1779ZM111.854 28.3678C111.854 28.5157 111.792 28.6367 111.716 28.6367C111.64 28.6367 111.577 28.7712 111.577 28.9357C111.577 29.0999 111.538 29.1843 111.49 29.1232C111.365 28.9618 111.558 28.0989 111.719 28.0989C111.794 28.0989 111.854 28.2198 111.854 28.3678ZM106.854 29.1704C106.575 29.3931 106.397 29.2076 106.607 28.9113C106.718 28.7544 106.829 28.7284 106.917 28.8385C107.008 28.9513 106.986 29.0653 106.854 29.1704ZM108.086 28.8829C108.253 29.1427 108.157 29.7125 107.946 29.7125C107.878 29.7125 107.822 29.5916 107.822 29.4436C107.822 29.2957 107.721 29.1747 107.597 29.1747C107.412 29.1747 107.402 29.1261 107.544 28.9056C107.759 28.5724 107.883 28.5671 108.086 28.8829ZM117.156 29.0432C117.019 29.219 117.003 29.1984 117.078 28.9429C117.131 28.766 117.208 28.6665 117.251 28.7217C117.294 28.7767 117.251 28.9215 117.156 29.0432ZM105.454 29.3091C105.45 29.7321 105.43 29.7574 105.308 29.4871C105.229 29.3136 105.203 29.0918 105.25 28.9939C105.395 28.694 105.458 28.7935 105.454 29.3091ZM109.908 29.7231C109.908 29.9261 109.846 30.0425 109.77 29.9816C109.692 29.9205 109.63 29.7545 109.63 29.6123C109.63 29.4701 109.692 29.354 109.77 29.354C109.846 29.354 109.908 29.5201 109.908 29.7231ZM113.106 29.9816C113.106 30.1294 113.015 30.2505 112.902 30.2505C112.778 30.2505 112.729 30.1454 112.778 29.9816C112.822 29.8336 112.914 29.7125 112.982 29.7125C113.051 29.7125 113.106 29.8336 113.106 29.9816ZM2.55371 30.8823C2.45703 31.0326 2.34961 31.1187 2.31445 31.0737C2.21777 30.9492 2.41406 30.6091 2.58203 30.6091C2.67383 30.6091 2.66309 30.712 2.55371 30.8823ZM3.80762 32.3019C3.80762 32.3455 3.74512 32.4308 3.66895 32.4918C3.59277 32.5527 3.53027 32.5171 3.53027 32.4127C3.53027 32.3083 3.59277 32.2229 3.66895 32.2229C3.74512 32.2229 3.80762 32.2583 3.80762 32.3019Z" fill-rule="evenodd" fill="#6966FF"/>
</svg>
