<svg width="161.000000" height="16.000000" viewBox="0 0 161 16" fill="none" xmlns="http://www.w3.org/2000/svg" xmlns:xlink="http://www.w3.org/1999/xlink">
	<desc>
			Created with Pixso.
	</desc>
	<defs/>
	<path id="Group 8 (Traced)" d="M82.2656 0.361084C81.2402 0.571045 80.1123 0.836548 79.7588 0.951172C79.4053 1.06592 78.3682 1.34399 77.4531 1.56909C75.8721 1.95813 73.1104 2.75293 72.2686 3.0614C72.0527 3.14001 71.04 3.45251 70.0186 3.75574C68.9961 4.05884 68.0244 4.37061 67.8594 4.44836C67.6943 4.52637 67.2666 4.64771 66.9082 4.71802C65.9355 4.90942 64.1484 5.6543 64.1484 5.86877C64.1484 5.97205 64.0547 6.00464 63.9404 5.94141C63.7588 5.84119 62.0918 6.28772 60.9199 6.74988C60.7051 6.83484 60.2861 6.98291 59.9902 7.07886C59.6943 7.17468 59.4521 7.33398 59.4521 7.43262C59.4521 7.53137 59.208 7.61218 58.9102 7.61218C58.4248 7.61218 55.9307 8.38086 55.0146 8.81323C54.3975 9.10413 51.7344 10.1039 51.4854 10.1382C51.3535 10.1562 51.1846 10.2258 51.1104 10.2927C51.0352 10.3597 50.8594 10.4146 50.7188 10.4146C50.5781 10.4146 49.998 10.6069 49.4307 10.8418C47.9609 11.4497 46.8643 11.8636 46.6367 11.8956C46.5293 11.9109 46.2646 11.9829 46.0498 12.0558C45.835 12.1287 45.1738 12.3478 44.582 12.5427C43.9902 12.7378 43.3301 12.9646 43.1152 13.047C41.6396 13.611 37.5215 13.6798 36.4629 13.1582C36.1396 12.9991 35.7275 12.8685 35.5479 12.8678C35.1846 12.8666 34.4082 12.0776 34.4082 11.7107C34.4082 11.5826 34.2539 11.403 34.0654 11.3114C33.877 11.2197 33.5029 10.7664 33.2344 10.3036C32.9648 9.84082 32.5068 9.08838 32.2168 8.63159C31.9258 8.1748 31.5879 7.46289 31.4648 7.0498C31.3418 6.6366 31.1309 6.1803 30.9951 6.03577C30.7354 5.75781 30.4736 5.23975 30.3789 4.81995C30.3486 4.68103 29.8555 4.17957 29.2842 3.70557C28.252 2.84961 28.2344 2.84326 26.7773 2.79163C25.9707 2.76306 25.2217 2.80042 25.1143 2.87463C25.0068 2.94897 24.5967 3.05383 24.2021 3.10803C23.29 3.23315 19.7334 4.47205 19.7334 4.66455C19.7334 4.74438 19.5156 4.80969 19.25 4.80969C18.9844 4.80969 18.2578 5.0127 17.6357 5.26099C17.0137 5.50916 15.748 5.98181 14.8223 6.31152C13.418 6.81152 11.0645 7.84143 6.62402 9.90015C6.24805 10.0748 5.70117 10.4196 5.41016 10.6665C5.11914 10.9132 4.80078 11.1152 4.70312 11.1152C4.60547 11.1152 4.31152 11.2656 4.0498 11.4497C3.64453 11.7355 3.43555 11.7609 2.61523 11.6237C1.69336 11.4695 1.63379 11.4846 1.10742 12.0006C0.734375 12.3658 0.558594 12.7266 0.558594 13.1261C0.558594 13.4495 0.40918 13.9482 0.225586 14.2343C-0.0976562 14.7389 -0.09375 14.7736 0.37207 15.3857C1.09961 16.3416 1.29199 16.2852 3.47754 14.4774C4.41895 13.6987 5.05957 13.4796 5.05957 13.9364C5.05957 14.0223 5.19141 14.0928 5.35254 14.0928C5.70117 14.0928 5.73145 13.8893 5.4248 13.6141C5.11035 13.3326 5.3125 12.9895 5.96484 12.6963C6.27344 12.5576 6.6582 12.3502 6.82031 12.2356C6.98145 12.1211 7.72949 11.7375 8.4834 11.3834C9.23633 11.0291 10.0732 10.6284 10.3418 10.4929C11.3711 9.97461 14.6582 8.66309 14.9277 8.66309C15.083 8.66309 15.2607 8.59045 15.3223 8.50146C15.3828 8.41248 15.6963 8.28796 16.0186 8.22473C16.3398 8.1615 16.6035 8.03723 16.6035 7.94861C16.6035 7.85986 16.7402 7.78735 16.9072 7.78735C17.0752 7.78735 17.7148 7.56396 18.3291 7.29114C18.9434 7.01819 19.7061 6.73657 20.0234 6.66528C20.3418 6.59387 21.0449 6.35437 21.5859 6.13318C22.4238 5.79089 23.9502 5.33691 25.7471 4.89539C27.1885 4.54126 28.7334 4.97498 28.7344 5.73328C28.7344 5.94788 28.9541 6.35229 29.2236 6.63232C29.4971 6.91711 29.7119 7.36072 29.7119 7.63953C29.7119 7.91345 29.8008 8.13757 29.9082 8.13757C30.0156 8.13757 30.1035 8.28198 30.1035 8.45837C30.1035 8.63452 30.3232 9.16663 30.5918 9.64062C30.8604 10.1144 31.0811 10.5676 31.0811 10.6479C31.0811 10.7279 31.4121 11.1592 31.8154 11.6062C32.2188 12.053 32.7256 12.6156 32.9404 12.8562C33.585 13.5767 35.2725 14.9623 35.5088 14.9653C35.6309 14.9672 35.8301 15.0773 35.9541 15.2101C36.4424 15.7366 39.8086 16.0345 41.8428 15.7312C42.5518 15.6255 44.9297 14.9945 45.2588 14.8243C45.3623 14.7714 45.6348 14.7097 45.8662 14.6876C46.0977 14.6656 47.1133 14.3348 48.125 13.9529C49.1357 13.5707 50.1836 13.2001 50.4521 13.1293C50.7217 13.0583 51.0732 12.905 51.2344 12.7885C51.3965 12.672 51.9688 12.4534 52.5068 12.3027C53.0449 12.1521 54.7617 11.5607 56.3223 10.9884C57.8828 10.4161 59.9072 9.6886 60.8223 9.37158C61.7373 9.05457 62.5693 8.72595 62.6709 8.6416C62.7734 8.55713 62.9932 8.48828 63.1602 8.48877C63.417 8.4895 67.3203 7.21179 68.5508 6.72412C68.7656 6.63892 69.6387 6.36951 70.4893 6.12537C71.3408 5.88135 72.1465 5.60107 72.2793 5.50232C72.4121 5.40369 72.5957 5.33813 72.6875 5.35693C72.7803 5.37549 72.9873 5.34558 73.1484 5.29041C73.3105 5.23499 74.8506 4.78149 76.5732 4.28259C78.2949 3.78357 79.9922 3.2644 80.3457 3.12915C80.6992 2.99377 81.2002 2.88306 81.458 2.88306C81.7168 2.88306 82.1562 2.80554 82.4346 2.71057C83.2734 2.42529 85.5 2.15955 86.0859 2.27478C87.0449 2.46326 87.6865 3.9696 87.6738 6.00574C87.6719 6.26318 87.7598 6.57227 87.8691 6.69263C87.9775 6.81311 88.0068 6.91162 87.9336 6.91162C87.8604 6.91162 87.9385 7.08667 88.1055 7.3009C88.2734 7.51501 88.4102 7.87195 88.4102 8.09399C88.4102 8.68604 89.4541 10.4337 90.1104 10.9401C91.29 11.8503 92.0205 12.059 93.9951 12.049C95.1465 12.0432 95.9463 11.9591 96.126 11.8251C96.2852 11.707 96.4863 11.6499 96.5732 11.698C96.7334 11.7864 99.9463 11.1305 101.03 10.7882C101.604 10.6071 104.555 9.74536 104.943 9.64539C105.051 9.61768 105.491 9.53748 105.922 9.4668C106.353 9.39624 106.881 9.27332 107.096 9.19385C107.492 9.04724 109.622 8.57397 110.52 8.43298C110.789 8.39075 111.669 8.22961 112.477 8.07495C114.628 7.66284 115.219 7.61499 118.346 7.60046C121.014 7.58777 121.245 7.61414 122.21 8.03796C122.775 8.28577 123.237 8.60144 123.237 8.73926C123.237 8.87708 123.414 9.03979 123.629 9.10095C123.844 9.16211 124.021 9.28552 124.021 9.37549C124.021 9.46533 124.147 9.53882 124.303 9.53882C124.458 9.53882 124.701 9.68665 124.842 9.86755C125.061 10.1469 125.744 10.6882 127.15 11.6976C127.906 12.2396 129.074 12.731 130.445 13.0841C131.769 13.4248 132.414 13.4705 135.955 13.4745C138.162 13.4768 141.728 13.4108 143.88 13.3275C146.032 13.2444 148.718 13.1656 149.848 13.1527C150.978 13.14 152.008 13.0681 152.137 12.993C152.266 12.9181 152.618 12.8982 152.92 12.9491C153.221 12.9996 154.128 13.087 154.935 13.1431C157.294 13.3069 157.713 13.3529 158.848 13.5735C160.05 13.8069 161 13.6093 161 13.1257C161 12.7101 160.101 11.991 159.58 11.991C159.328 11.991 159.036 11.9144 158.932 11.8207C158.827 11.7272 158.215 11.6084 157.571 11.5571C156.929 11.5056 156.006 11.3921 155.521 11.3049C154.555 11.1307 145.201 11.1897 141.63 11.3925C136.64 11.6759 131.238 11.4795 130.162 10.9756C129.959 10.8805 129.572 10.7173 129.303 10.6129C128.397 10.2614 126.874 9.4071 126.8 9.20935C126.76 9.10168 126.608 9.01343 126.463 9.01343C126.317 9.01343 126.143 8.85571 126.075 8.66309C126.007 8.47046 125.836 8.31274 125.697 8.31274C125.558 8.31274 125.199 7.99756 124.9 7.61218C124.534 7.13904 124.213 6.91162 123.909 6.91162C123.639 6.91162 123.412 6.77832 123.341 6.57617C123.154 6.04907 119.844 5.23694 118.15 5.30286C117.882 5.31311 117.303 5.3219 116.864 5.32202C115.979 5.32227 112.138 5.75378 110.617 6.02368C110.079 6.11938 108.847 6.40454 107.878 6.65759C106.91 6.91052 105.766 7.18042 105.335 7.2572C104.52 7.40247 101.863 8.11572 100.346 8.59705C99.8613 8.75061 99.2891 8.89844 99.0732 8.92578C98.5654 8.99023 96.3906 9.552 96.1436 9.68286C96.0381 9.73828 95.0879 9.81555 94.0312 9.85449C91.6055 9.94385 91.0459 9.76062 90.5439 8.71265C90.1514 7.89294 89.7266 5.90479 89.8916 5.66467C89.9473 5.58533 89.8643 5.34058 89.709 5.12122C89.5537 4.90173 89.3652 4.36743 89.291 3.93396C89.2168 3.50049 88.9883 2.88513 88.7832 2.56653C88.5781 2.24792 88.4102 1.84021 88.4102 1.66052C88.4102 1.19165 87.4746 0.252075 87.127 0.371582C86.9688 0.425903 86.6963 0.363525 86.5215 0.233154C86.0469 -0.119141 84.3643 -0.0687256 82.2656 0.361084ZM2.41797 12.6915C2.22266 12.8843 1.98828 13.0419 1.89648 13.0419C1.80469 13.0419 1.83984 12.8843 1.97363 12.6915C2.1084 12.4989 2.34277 12.3413 2.49512 12.3413C2.70801 12.3413 2.68945 12.4222 2.41797 12.6915Z" fill-rule="evenodd" fill="#6966FF"/>
</svg>
